<svg xmlns="http://www.w3.org/2000/svg" fill="none" data-testid="picto-agent-home-sale" viewBox="0 0 285 126"><g style="mix-blend-mode:multiply"><path fill="#F2F2F2" stroke="#000" stroke-linecap="round" stroke-linejoin="round" stroke-miterlimit="10" stroke-width="1.5" d="M37.521 60.151c-.694-2.267-2.785-5.233-4.49-6.84-1.175-1.118-1.435-2.843-.621-4.216a10.546 10.546 0 0 0 1.49-5.386c0-3.109-1.378-5.93-3.614-7.995-1.163-1.075-1.49-2.715-.802-4.11a7.409 7.409 0 0 0 .768-3.289c0-4.535-4.088-8.208-9.148-8.208-5.049 0-9.148 3.673-9.148 8.208 0 1.171.27 2.278.768 3.29.688 1.394.36 3.034-.802 4.109-2.237 2.065-3.615 4.886-3.615 7.995 0 1.948.543 3.779 1.491 5.386.813 1.373.554 3.109-.62 4.216-2.802 2.65-4.519 6.227-4.519 10.166 0 1.842.373 3.61 1.062 5.227.497 1.182.316 2.534-.542 3.524C2.559 75.273 1 79.094 1 83.236c0 9.964 9.002 18.044 20.104 18.044 4.043 0 13.029-2.048 17.22-6.586 3.71-4.02 6.163-14.432-.508-21.84a18.349 18.349 0 0 0-3.06-2.701c1.502-2.66 2.489-5.05 2.834-7.021.201-1.144.186-2.148-.069-2.98Z"/><path stroke="#000" stroke-linecap="round" stroke-linejoin="round" stroke-miterlimit="10" stroke-width="1.5" d="M22.162 71.26v39.069m-5.986-31.405 5.986 7.027"/><path fill="#fff" stroke="#000" stroke-linecap="round" stroke-linejoin="round" stroke-miterlimit="10" stroke-width="1.5" d="M150.171 110.558h-1.7c-5.395-.056-10.79-.056-16.243-.056-5.865 0-11.67-.055-17.534-.055H97.806c-4.398 0-8.796 0-13.253.055v.166c0-.055-.059-.11-.059-.166-2.99 0-5.922 0-8.913.056-4.105 0-8.268.055-12.373.055-9.324.055-18.648.11-27.972.221h-.82l-.177-11.607c-.175-10.723-.293-21.39-.41-32.113l-.176-18.627c0-2.763-.059-5.582.41-8.346.352-2.21 1.056-4.366 1.76-6.522a283.325 283.325 0 0 1 8.092-21.611l94.587.497c.704 0 1.466 0 2.052.387.528.332.821.885 1.056 1.437a148.561 148.561 0 0 1 4.808 10.778c1.115 2.764 2.17 5.527 2.757 8.402.879 4.034.879 8.18.879 12.27.059 21.556.117 43.167.117 64.779Z"/><path fill="#fff" stroke="#000" stroke-linecap="round" stroke-linejoin="round" stroke-miterlimit="10" stroke-width="1.5" d="M77.398 58.215c9.266-.111 18.59-.166 27.855-.277-.176-5.638-.411-11.275-.763-16.913a2176.18 2176.18 0 0 0-26.798 0c-.059 2.156 0 4.367-.176 6.522-.176 2.266-.235 4.532-.235 6.799.059 1.326.059 2.597.117 3.869Z"/><path fill="#fff" d="M86.84 41.191c.293 2.432.234 4.864.234 7.352-.058 3.205-.058 6.356-.117 9.562v-.277"/><path stroke="#000" stroke-linecap="round" stroke-linejoin="round" stroke-miterlimit="10" stroke-width="1.5" d="M86.84 41.191c.293 2.432.234 4.864.234 7.352-.058 3.205-.058 6.356-.117 9.562v-.277"/><path fill="#fff" d="M96.398 41.191c-.059.94.058 1.935.117 2.874.059 1.272-.059 2.543-.059 3.814-.058 1.548 0 3.096 0 4.643.059 1.824.059 3.648.118 5.472"/><path stroke="#000" stroke-linecap="round" stroke-linejoin="round" stroke-miterlimit="10" stroke-width="1.5" d="M96.398 41.191c-.059.94.058 1.935.117 2.874.059 1.272-.059 2.543-.059 3.814-.058 1.548 0 3.096 0 4.643.059 1.824.059 3.648.118 5.472"/><path fill="#fff" d="M104.783 49.704c-2.932-.11-5.922.11-8.854 0-6.099-.332-12.256.22-18.413 0"/><path stroke="#000" stroke-linecap="round" stroke-linejoin="round" stroke-miterlimit="10" stroke-width="1.5" d="M104.783 49.704c-2.932-.11-5.922.11-8.854 0-6.099-.332-12.256.22-18.413 0"/><path fill="#fff" stroke="#000" stroke-linecap="round" stroke-linejoin="round" stroke-miterlimit="10" stroke-width="1.5" d="M114.108 95.357c9.265-.11 18.589-.166 27.854-.276-.176-5.638-.411-11.276-.763-16.914a2176.18 2176.18 0 0 0-26.798 0c-.059 2.156 0 4.367-.176 6.522-.176 2.267-.235 4.533-.235 6.799 0 1.271.059 2.598.118 3.869Z"/><path fill="#fff" d="M123.549 78.28c.293 2.431.234 4.863.234 7.35-.058 3.206-.058 6.357-.117 9.562v-.276"/><path stroke="#000" stroke-linecap="round" stroke-linejoin="round" stroke-miterlimit="10" stroke-width="1.5" d="M123.549 78.28c.293 2.431.234 4.863.234 7.35-.058 3.206-.058 6.357-.117 9.562v-.276"/><path fill="#fff" d="M133.049 78.334c-.058.94.059 1.934.117 2.874.059 1.271-.058 2.543-.058 3.814-.059 1.547 0 3.095 0 4.643.058 1.824.058 3.648.117 5.472"/><path stroke="#000" stroke-linecap="round" stroke-linejoin="round" stroke-miterlimit="10" stroke-width="1.5" d="M133.049 78.334c-.058.94.059 1.934.117 2.874.059 1.271-.058 2.543-.058 3.814-.059 1.547 0 3.095 0 4.643.058 1.824.058 3.648.117 5.472"/><path fill="#fff" d="M141.434 86.79c-2.932-.11-5.923.11-8.855 0-6.098-.332-12.255.22-18.413 0"/><path stroke="#000" stroke-linecap="round" stroke-linejoin="round" stroke-miterlimit="10" stroke-width="1.5" d="M141.434 86.79c-2.932-.11-5.923.11-8.855 0-6.098-.332-12.255.22-18.413 0"/><path fill="#fff" stroke="#000" stroke-linecap="round" stroke-linejoin="round" stroke-miterlimit="10" stroke-width="1.5" d="M123.901 57.938c2.756.166 5.571.166 8.327-.055.058-2.156-.176-4.311-.235-6.411-.117-3.317.059-6.578-.059-9.894-2.756.166-5.512.221-8.268.276.059 0 0 5.251 0 5.638.059 2.21.059 4.422.117 6.633.059 1.326.118 2.542.118 3.813Z"/><path fill="#fff" d="M131.875 49.647c-.469.055-.996 0-1.466 0-2.169-.166-4.339-.055-6.509.055"/><path stroke="#000" stroke-linecap="round" stroke-linejoin="round" stroke-miterlimit="10" stroke-width="1.5" d="M131.875 49.647c-.469.055-.996 0-1.466 0-2.169-.166-4.339-.055-6.509.055"/><path fill="#fff" stroke="#000" stroke-linecap="round" stroke-linejoin="round" stroke-miterlimit="10" stroke-width="1.5" d="M50.424 58.105a69.72 69.72 0 0 0 8.327 0c.059-1.99-.176-4.035-.235-6.024-.117-3.096.059-6.19-.058-9.286-2.756.166-5.512.221-8.268.276.058 0 0 4.92 0 5.306.058 2.1.058 4.146.117 6.246.117 1.16.117 2.322.117 3.482Z"/><path fill="#fff" d="M58.399 50.366c-.47.055-.997 0-1.466 0-2.17-.166-4.34-.056-6.51.055"/><path stroke="#000" stroke-linecap="round" stroke-linejoin="round" stroke-miterlimit="10" stroke-width="1.5" d="M58.399 50.366c-.47.055-.997 0-1.466 0-2.17-.166-4.34-.056-6.51.055"/><path fill="#fff" stroke="#000" stroke-linecap="round" stroke-linejoin="round" stroke-miterlimit="10" stroke-width="1.5" d="M88.13 29.75a3.562 3.562 0 0 0 1.349 1.824c.234.166.47.277.762.387.293.056.587.056.821.056a4.442 4.442 0 0 0 2.053-.83c.586-.442.997-1.105 1.172-1.824.176-.719.06-1.437-.175-2.1-.176-.443-.41-.885-.821-1.217-.41-.331-.939-.497-1.525-.553-.41-.055-.88 0-1.29.11-.41.111-.762.277-1.114.498-1.29.774-1.642 2.267-1.232 3.649Zm35.829-13.044c.587.22 1.173.166 1.818.166l2.991-.166c.997-.055 2.052-.11 3.049-.166.059 0 .117 0 .117-.055 0-.056.059-.056.059-.11.528-4.975-.469-9.95-.117-14.924 0-.11 0-.221-.059-.277a.463.463 0 0 0-.293-.11c-2.58-.11-5.161-.055-7.799 0-.059 0-.176 4.698-.176 5.306.058 2.156.176 4.366.234 6.522.059 1.327.118 2.598.176 3.814Zm-34.422 89.319c5.277.332 10.614.387 15.891.055 0-3.648-.117-7.296-.41-10.944-.294-3.592-.176-7.185-.469-10.777-.176-2.1-.294-4.864-.411-6.965-5.102-.055-9.969-.276-15.07.11-.411.056.234 14.648.293 15.92.058 1.989 0 4.034.058 6.024 0 2.211.059 4.366.118 6.577Z"/><path fill="#fff" stroke="#000" stroke-linecap="round" stroke-linejoin="round" stroke-miterlimit="10" stroke-width="1.5" d="M91.532 92.042c.117.387.469.774.88.774.234 0 .468-.11.703-.221a.446.446 0 0 0 .235-.221c.175-.222.234-.553.175-.83-.175-1.326-2.287-.884-1.993.498Zm-6.921 18.46v.166c0-.056-.058-.111-.058-.166h.058Z"/><path fill="#fff" d="M13.188 110.778c5.101 0 10.73.111 15.656.055 11.494-.11 22.929-.221 34.422-.276 11.553-.055 23.046-.111 34.598-.111 11.494 0 22.929 0 34.422.056l34.481.165c1.407 0 2.814 0 4.222.056"/><path stroke="#000" stroke-linecap="round" stroke-linejoin="round" stroke-miterlimit="10" stroke-width="1.5" d="M13.188 110.778c5.101 0 10.73.111 15.656.055 11.494-.11 22.929-.221 34.422-.276 11.553-.055 23.046-.111 34.598-.111 11.494 0 22.929 0 34.422.056l34.481.165c1.407 0 2.815 0 4.222.056"/><path fill="#fff" stroke="#000" stroke-linecap="round" stroke-linejoin="round" stroke-miterlimit="10" stroke-width="1.5" d="M84.729 104.091c0 2.211-.059 4.311-.118 6.412v.165c0-.055-.058-.11-.058-.165-2.99 0-5.923 0-8.913.055-4.105 0-8.269.055-12.374.055-9.323.055-18.647.111-27.971.221h-.821c-1.877 0-3.694.056-5.57.056h-2.112c.059-5.804.117-13.155.117-17.3 0-4.754.118-19.567-.058-22.773 2.58-1.492 3.518-2.1 5.395-2.984a19.611 19.611 0 0 1 1.583-.719 80.408 80.408 0 0 1 5.043-2.155c4.34-1.77 8.855-3.206 13.429-4.422.82-.221 1.642-.442 2.521-.332.586.056 1.114.221 1.7.387A182.668 182.668 0 0 1 83.44 70.983c.88 9.341 1.348 21.943 1.29 33.108Z"/><path fill="#fff" stroke="#000" stroke-linecap="round" stroke-linejoin="round" stroke-miterlimit="10" stroke-width="1.5" d="M75.64 110.502c-4.105 0-8.269.055-12.373.055-9.324.055-18.648.111-27.972.221 0-.11-.059-.221-.059-.276-.351-2.211-.058-4.643-.117-6.909 0-2.432 0-4.92-.058-7.351 0-4.92-.059-9.839-.059-14.758v-1.88c13.429-.386 26.799-.497 40.227-.275.528 10.39.47 20.782.41 31.173Zm35.009-.055H97.865c-4.398 0-8.796 0-13.253.056v.166c0-.056-.058-.111-.058-.166-.645-1.825-.176-4.81 0-6.358h.175l25.04-.166c.293 2.101.586 4.312.88 6.468Z"/><path fill="#F2F2F2" stroke="#000" stroke-linecap="round" stroke-linejoin="round" stroke-miterlimit="10" stroke-width="1.5" d="M148.471 110.557c-5.395-.056-10.79-.056-16.243-.056-5.864 0-11.67-.055-17.534-.055.235-.774.528-1.492.939-2.211.996-1.658 2.814-3.04 4.808-3.15 1.056-.056 2.17.276 3.225.11 1.408-.221 2.463-1.16 3.577-1.989 1.994-1.548 4.398-2.764 6.979-2.875 2.58-.11 5.336 1.272 6.157 3.593.293.829.41 1.824 1.29 2.156.469.165.938.11 1.407.11 1.935-.055 3.695 1.216 4.692 2.819.293.498.527.995.703 1.548Z"/><path fill="#2B2B2B" stroke="#000" stroke-linecap="round" stroke-linejoin="round" stroke-miterlimit="10" stroke-width="1.5" d="M44.078 12.074 33.897 38.651c2.74 0 23.888 0 27.804-.739 3.916-.738 24.28-21.04 28.98-21.04 2.35 0 28.979 20.671 32.112 21.04 3.133.37 25.063 0 27.413-1.476.626-1.181-6.527-16.733-10.182-24.362H44.078Z"/></g><path fill="#D92228" stroke="#000" d="M167.552 84.781c.154-3.574.144-9.027.11-13.869l-.028-3.48c-.01-1.21-.02-2.328-.025-3.303a129.85 129.85 0 0 1 .005-3.125c2.955.106 9.737.049 16.769-.011l.757-.007c7.412-.062 14.967-.121 18.59.008-.011 4.629-.178 9.404-.343 14.14-.114 3.26-.227 6.502-.289 9.666-7.405.258-15.425.164-23.279.073-4.175-.05-8.304-.097-12.267-.092Z"/><path stroke="#000" stroke-linecap="round" stroke-linejoin="round" stroke-miterlimit="10" stroke-width="1.15" d="M200.717 55.857c-.186 1.255-.341 3.91-.31 5.165m-29.268-4.786v5.456"/><path fill="#fff" stroke="#000" stroke-linecap="round" stroke-linejoin="round" stroke-miterlimit="10" stroke-width="1.15" d="M158.438 124.149c0 2.622-.23-58.413.106-76.66 1.553-.15 3.036-.262 4.59.075.053 18.547.106 58.038.141 76.585-1.765.074-3.23.074-4.837 0Z"/><path fill="#fff" d="M171.437 124.229c-6.314.059-11.483.059-16.992 0h16.992Z"/><path stroke="#000" stroke-linecap="round" stroke-linejoin="round" stroke-miterlimit="10" stroke-width="1.15" d="M171.437 124.229c-6.314.059-11.483.059-16.992 0"/><path stroke="#000" stroke-linecap="round" stroke-linejoin="round" stroke-miterlimit="10" stroke-width="1.5" d="M284 125c-40.902-2.624-102.142.954-142.164-1.253"/><path fill="#fff" stroke="#000" stroke-linecap="round" stroke-linejoin="round" stroke-miterlimit="10" stroke-width="1.15" d="M206.178 55.68c-3.161 0-38.991 0-53.713-.116.062-.317.062-.601.031-.919-.093-.818.093-1.636.496-2.437 17.884-.1 35.643-.45 53.527-.033-.155 1.135-.217 2.37-.341 3.506Z"/><path fill="#fff" d="M179.948 68.142v.944h2.432v1.336h-2.432v1.752h-1.536v-5.36h4.28v1.328h-2.744Zm6.013-1.448c1.624 0 2.888 1.24 2.888 2.8 0 1.568-1.264 2.8-2.888 2.8-1.624 0-2.888-1.232-2.888-2.8 0-1.56 1.264-2.8 2.888-2.8Zm0 4.216c.776 0 1.336-.608 1.336-1.416 0-.8-.56-1.416-1.336-1.416s-1.336.616-1.336 1.416c0 .808.56 1.416 1.336 1.416Zm8.57 1.264h-1.848l-1.472-1.712h-.208v1.712h-1.536v-5.36h2.856c1.152 0 1.928.72 1.928 1.8 0 .864-.496 1.504-1.288 1.744l1.568 1.816Zm-3.528-2.928h1.032c.432 0 .704-.24.704-.592 0-.336-.272-.568-.704-.568h-1.032v1.16Zm-12.468 5.448c1.256 0 2.12.56 2.312 1.56l-1.504.304c-.104-.512-.496-.672-.808-.672-.336 0-.568.168-.568.432 0 .152.056.288.312.344l1.088.256c.984.248 1.528.728 1.528 1.592 0 1.256-1.168 1.784-2.28 1.784-1.304 0-2.296-.632-2.448-1.656l1.568-.296c.128.504.456.712.912.712.368 0 .632-.152.632-.432 0-.16-.072-.288-.368-.36l-1.112-.264c-.896-.208-1.472-.664-1.472-1.552 0-1.128.952-1.752 2.208-1.752Zm8.541 5.48h-1.656l-.296-.816h-2.112l-.304.816h-1.648l2.16-5.36h1.696l2.16 5.36Zm-2.416-2.104-.584-1.608-.592 1.608h1.176Zm6.855.784v1.32h-4.064v-5.36h1.536v4.04h2.528Zm4.849.024v1.296H192.1v-5.36h4.232v1.296h-2.696v.792h2.48v1.176h-2.48v.8h2.728Z"/><path fill="#fff" stroke="#000" stroke-linecap="round" stroke-linejoin="round" stroke-miterlimit="10" d="m220.678 50.224-1.839-.942s-2.087-1.46-2.385-1.743a1.34 1.34 0 0 0-.497-.283 4.7 4.7 0 0 1-.696-.33c-.795-.471-1.739-.754-2.683-.895a7.186 7.186 0 0 0-2.832.141c-.05 0-.149.047-.149.141.745.33 1.64.189 2.385.424.397.142.745.377 1.093.613.447.33.895.66 1.242 1.084.1.094.199.283.1.377a.386.386 0 0 1-.199.094c-1.093.142-2.137-.613-3.23-.565.547.8 1.441 1.32 2.336 1.696.894.377 1.888.566 2.882.707.248.047.546.094.795.141.099.047.198.047.298.142l.099.094c.398.377 2.286.424 2.534.707l.746-1.602Z"/><path fill="#2B2B2B" stroke="#000" stroke-linecap="round" stroke-linejoin="round" stroke-miterlimit="10" d="m239.361 35.29-11.677 14.746-9.043-1.225-1.541 2.544s8.497 5.088 11.777 4.382c3.23-.754 6.857-7.162 6.857-7.162l3.627-13.286Z"/><path fill="#fff" stroke="#000" stroke-linecap="round" stroke-linejoin="round" stroke-miterlimit="10" d="M233.446 90.65c0-1.272-.049-2.591-.049-3.863 0-1.272 0-2.591-.05-3.864 0-.753-.397-2.45.348-2.968.397-.282 1.093-.188 1.59-.188h2.186c1.193 0 2.435 0 3.628.283.198.047.397.14.497.282.099.142.049.33 0 .471-.249 1.225-.448 2.45-.696 3.628-1.342 7.256-2.932 14.558-3.627 21.861-.299 3.015-.547 9.847-.746 12.862l-2.683 2.262-.845-3.345c.05.047.497-24.924.447-27.42Zm18.336-3.673c-.397 9.422 1.69 9.47-.099 22.708l-.249 8.764-2.832 1.319s-.397-12.674-2.286-32.791c-.546-6.031 5.913-10.742 5.466 0Z"/><path fill="#2B2B2B" stroke="#000" stroke-linecap="round" stroke-linejoin="round" stroke-miterlimit="10" d="M245.372 34.16c2.336.141 6.559 1.979 7.255 4.288.497 3.156-1.988 9.093 0 19.363 1.59 14.464 1.391 30.577 1.391 30.577-9.341 2.733-22.112.142-22.112.142s1.839-23.981 4.125-38.304c.397-2.403-3.18-6.69 0-11.355 1.242-3.015 2.037-3.486 3.627-4.947.199-.094 3.727.095 5.714.236Z"/><path fill="#fff" stroke="#000" stroke-linecap="round" stroke-linejoin="round" stroke-miterlimit="10" d="m239.658 30.108.745 4.382c2.485.66 4.919-.376 4.919-.376l-1.689-5.278-3.975 1.272Z"/><path fill="#2B2B2B" stroke="#000" stroke-linecap="round" stroke-linejoin="round" stroke-miterlimit="10" d="M251.485 118.352c-.448-.283-.895-.377-1.491-.377-.547 0-1.044.188-1.441.424l-1.093 4.099v.848c.596.283 1.54.425 2.633.377 1.143-.047 2.187-.282 2.783-.612v-.801l-1.391-3.958Z"/><path fill="#F2F2F2" stroke="#000" stroke-linecap="round" stroke-linejoin="round" stroke-miterlimit="10" d="m251.385 75.289 13.914-5.466c1.59-.612 2.385-2.402 1.689-3.91l-2.981-6.879c-.646-1.507-2.535-2.261-4.125-1.602l-13.913 5.466c-1.59.612-2.385 2.402-1.689 3.91l2.981 6.879c.646 1.507 2.485 2.214 4.124 1.602Z"/><path fill="#fff" stroke="#000" stroke-linecap="round" stroke-linejoin="round" stroke-miterlimit="10" d="M254.516 66.764s0 1.79.099 2.356c.05.518-.099 1.083-.149 1.602-.049.282-.049.565-.049.848.049.33.198.612.397.895.447.66.944 1.319 1.441 1.931.05.095.149.189.298.189.05 0 .1 0 .149-.047.597-.189 1.143-.519 1.491-1.037.248-.33.348-.706.596-1.036.1-.094.199-.236.249-.33.149-.236.149-.518.099-.754-.05-.518-.149-1.036-.397-1.507-.15-.33-.348-.613-.497-.943-.249-.518-.199-1.036-.249-1.602-.05-.33-.099-.706-.149-1.036l-3.329.471Z"/><path fill="#2B2B2B" d="M250.391 34.914c2.932 2.968 5.168 7.68 5.764 10.46.646 2.967.994 5.983 1.143 8.998 0 .377.05.754.05 1.13.099 3.11-.05 6.22.348 9.33.049.376.099.8.149 1.177.05.283.248.801.199 1.037-.149.424-.845.282-1.243.33-.795 0-1.59.046-2.335.046l-2.832-15.311-2.087-7.02"/><path stroke="#000" stroke-linecap="round" stroke-linejoin="round" stroke-miterlimit="10" d="M250.391 34.914c2.932 2.968 5.168 7.68 5.764 10.46.646 2.967.994 5.983 1.143 8.998 0 .377.05.754.05 1.13.099 3.11-.05 6.22.348 9.33.049.376.099.8.149 1.177.05.283.248.801.199 1.037-.149.424-.845.282-1.243.33-.795 0-1.59.046-2.335.046l-2.832-15.311-2.087-7.02"/><path fill="#2B2B2B" stroke="#000" stroke-linecap="round" stroke-linejoin="round" stroke-miterlimit="10" d="M236.528 119.441c.05 0 .1 0 .149.047.1.047.149.141.149.235.299.66.348 1.32.398 1.979.05.236.248 1.273-.05 1.461-.397.236-11.627.377-12.273-.235-.348-.33 0-1.744.248-1.791a31.067 31.067 0 0 0 7.007-2.875c.248-.141.646-.282.795-.518.049 0 .049 0 .049.047.249.377.447.801.795 1.084.348.283.795.471 1.243.566.447.094.944.094 1.391.047.05-.047.05-.047.099-.047Z"/><path fill="#fff" d="M243.782 29.447s3.131-7.538-3.478-7.82c-1.292-.048-2.832.282-3.578 1.366-.596.895-.397 2.073-.596 3.11-.099.517-.348 1.036-.596 1.507a8.29 8.29 0 0 1 1.491 2.544c.149.424.298.895.695 1.178.348.235.795.282 1.193.282.745 0 1.043 0 1.739-.094"/><path stroke="#000" stroke-linecap="round" stroke-linejoin="round" stroke-miterlimit="10" d="M243.782 29.447s3.131-7.538-3.478-7.82c-1.292-.048-2.832.282-3.578 1.366-.596.895-.397 2.073-.596 3.11-.099.517-.348 1.036-.596 1.507a8.29 8.29 0 0 1 1.491 2.544c.149.424.298.895.695 1.178.348.235.795.282 1.193.282.745 0 1.043 0 1.739-.094"/><path fill="#000" stroke="#000" stroke-linecap="round" stroke-linejoin="round" stroke-miterlimit="10" d="M243.484 20.354c.149.047.249.094.398.188a27.9 27.9 0 0 1 6.062 5.606c1.689 2.12 3.031 4.523 3.727 7.115.496 1.79.745 3.675 1.291 5.465.547 1.79 1.541 3.58 3.181 4.57-1.342.235-2.684.471-4.075.377-.149 0-.298 0-.447-.047-3.081-.283-5.466-2.262-7.106-4.664-1.689-2.403-2.782-5.183-3.627-7.963a53.712 53.712 0 0 1-.795-3.015c-.05-.33-.05-.895-.249-1.178-.149-.235.696-1.13.05-1.884-.497-.566-1.242-.66-1.54.235 0 0-1.938-3.11-3.379-3.11.497-1.648 3.031-2.26 4.571-2.26.447 0 .895.093 1.292.235.298.235.447.282.646.33Z"/></svg>