<svg xmlns="http://www.w3.org/2000/svg" fill="none" data-testid="picto-instant-offers" viewBox="0 0 265 124"><g style="mix-blend-mode:multiply"><path stroke="#000" stroke-linecap="round" stroke-linejoin="round" stroke-miterlimit="10" stroke-width="1.5" d="M33.052 55.5c-1.166-1.167-1.692-2.855-.885-4.289a11.445 11.445 0 0 0 1.48-5.623c0-3.246-1.367-6.19-3.586-8.347a3.747 3.747 0 0 1-.796-4.29 8.066 8.066 0 0 0 .762-3.434c0-4.735-4.057-8.569-9.078-8.569-5.01 0-9.078 3.834-9.078 8.569 0 1.223.269 2.378.762 3.434a3.747 3.747 0 0 1-.796 4.29c-2.219 2.156-3.586 5.101-3.586 8.346 0 2.034.538 3.946 1.48 5.624a3.678 3.678 0 0 1-.617 4.401c-2.78 2.767-4.483 6.502-4.483 10.614 0 1.922.37 3.767 1.054 5.457.493 1.233.313 2.645-.538 3.678C2.547 78.54 1 82.53 1 86.853 1 97.256 14.522 107 26.541 105M22 74.35v40.788m-5.941-32.786 5.94 7.336"/><path stroke="#000" stroke-linecap="round" stroke-linejoin="round" stroke-miterlimit="10" stroke-width="1.5" d="M149.021 57c0-22.562-.058 13.253-.116-9.251 0-4.27 0-8.598-.873-12.81-.582-3-1.629-5.886-2.735-8.771a158.688 158.688 0 0 0-4.771-11.252c-.233-.577-.524-1.154-1.048-1.5-.581-.405-1.338-.405-2.036-.405l-93.858-.519a305.701 305.701 0 0 0-8.03 22.562c-.699 2.25-1.397 4.501-1.746 6.81-.465 2.884-.407 5.827-.407 8.712l.174 19.446"/><path fill="#fff" stroke="#000" stroke-linecap="round" stroke-linejoin="round" stroke-miterlimit="10" stroke-width="1.5" d="M76.81 60.731c9.194-.115 18.446-.173 27.639-.288-.174-5.886-.407-11.772-.756-17.657-8.845-.058-17.748-.058-26.592 0-.058 2.25 0 4.558-.175 6.808-.174 2.366-.233 4.732-.233 7.098.059 1.385.059 2.712.117 4.04Z"/><path fill="#fff" d="M130.867 51.786c-.466.058-.989 0-1.455 0-2.153-.173-4.306-.057-6.459.058"/><path stroke="#000" stroke-linecap="round" stroke-linejoin="round" stroke-miterlimit="10" stroke-width="1.5" d="M130.867 51.786c-.466.058-.989 0-1.455 0-2.153-.173-4.306-.057-6.459.058"/><path fill="#fff" d="M122.74 56.233s0 2.767 0 0V59"/><path stroke="#000" stroke-linecap="round" stroke-linejoin="round" stroke-miterlimit="10" stroke-width="1.55" d="M122.74 56.233c0 2.767 0 0 0 0V59"/><path fill="#fff" d="M86.179 42.959c.29 2.539.232 5.078.232 7.674-.058 3.347-.058 6.636-.116 9.983v-.288m9.368-17.369c-.058.98.058 2.02.116 3 .058 1.328-.058 2.655-.058 3.982-.058 1.616 0 3.231 0 4.847.058 1.904.058 3.809.116 5.713"/><path fill="#fff" d="M103.984 51.845c-2.909-.115-5.877.116-8.786 0-6.052-.346-12.162.231-18.272 0m-26.883 8.772c2.735.173 5.528.173 8.263 0 .058-2.078-.174-4.213-.233-6.29-.116-3.231.059-6.463-.058-9.694-2.735.173-5.47.23-8.205.288.059 0 0 5.136 0 5.54.059 2.192.059 4.328.117 6.52.116 1.212.116 2.424.116 3.636Z"/><path fill="#fff" d="M57.957 52.537c-.465.058-.989 0-1.455 0-2.153-.173-4.305-.057-6.458.058"/><path stroke="#000" stroke-linecap="round" stroke-linejoin="round" stroke-miterlimit="10" stroke-width="1.5" d="M86.179 42.959c.29 2.539.232 5.078.232 7.674-.058 3.347-.058 6.636-.116 9.983v-.288m9.368-17.369c-.058.98.058 2.02.116 3 .058 1.328-.058 2.655-.058 3.982-.058 1.616 0 3.231 0 4.847.058 1.904.058 3.809.116 5.713m8.147-8.656c-2.909-.115-5.877.116-8.786 0-6.052-.346-12.162.231-18.272 0m54.291 8.54c.058-2.25-.175-4.501-.233-6.694-.117-3.462.058-6.866-.058-10.329-2.735.174-5.47.231-8.205.289.058 0 0 5.482 0 5.886.058 2.308-.083 5.655-.025 7.963m-64.739-4.963c-.465.058-.989 0-1.455 0-2.153-.173-4.305-.057-6.458.058m0 8.022c2.734.173 5.527.173 8.262 0 .058-2.078-.174-4.213-.233-6.29-.116-3.231.059-6.463-.058-9.694-2.735.173-5.47.23-8.205.288.059 0 0 5.136 0 5.54.059 2.192.059 4.328.117 6.52.116 1.212.116 2.424.116 3.636Z"/><path fill="#fff" stroke="#000" stroke-linecap="round" stroke-linejoin="round" stroke-miterlimit="10" stroke-width="1.5" d="M87.458 31.014c.233.75.698 1.443 1.338 1.905.233.173.466.289.757.404.29.058.582.058.815.058a4.29 4.29 0 0 0 2.036-.866c.582-.462.99-1.154 1.164-1.905.175-.75.058-1.5-.175-2.193-.174-.461-.407-.923-.814-1.27-.408-.346-.931-.519-1.513-.576-.407-.058-.873 0-1.28.115a3.873 3.873 0 0 0-1.106.52c-1.28.807-1.63 2.366-1.222 3.808Zm-3.49 84.304v.173c0-.057-.058-.115-.058-.173h.058Z"/><path fill="#fff" stroke="#000" stroke-linecap="round" stroke-linejoin="round" stroke-miterlimit="10" stroke-width="1.5" d="M84.084 108.625c0 2.308-.058 4.501-.116 6.694v.173c0-.058-.059-.115-.059-.173-2.967 0-5.877 0-8.844.058-4.073 0-8.205.057-12.278.057-9.252.058-18.504.116-27.756.231h-.814c-1.863 0-3.666.058-5.528.058h-2.095c.058-6.059.116-13.734.116-18.061 0-4.963.116-20.427-.058-23.774 2.56-1.558 3.491-2.193 5.353-3.116.524-.288 1.048-.52 1.571-.75a77.747 77.747 0 0 1 5.005-2.25c4.305-1.847 8.786-3.347 13.325-4.617.814-.23 1.629-.461 2.502-.346.582.058 1.105.23 1.687.404A175.917 175.917 0 0 1 82.804 74.06c.873 9.752 1.338 22.908 1.28 34.564Z"/><path fill="#fff" stroke="#000" stroke-linecap="round" stroke-linejoin="round" stroke-miterlimit="10" stroke-width="1.5" d="M75.065 115.318c-4.073 0-8.205.058-12.278.058-9.252.058-18.504.116-27.756.231 0-.115-.058-.231-.058-.289-.35-2.308-.058-4.847-.116-7.212 0-2.539 0-5.136-.059-7.675 0-5.135-.058-10.271-.058-15.407v-1.962c13.325-.403 26.592-.519 39.918-.288.523 10.848.465 21.696.407 32.544Z"/><path stroke="#000" stroke-linecap="round" stroke-linejoin="round" stroke-miterlimit="10" stroke-width="1.5" d="M130.925 12.56c.524-5.192-.407-5.896-.058-11.09 0-.115 0-.23-.058-.288a.447.447 0 0 0-.291-.115c-2.56-.116-5.121-.058-7.739 0-.058 0-.175 4.904-.175 5.54.059 2.25.233 5.808.233 5.808M33.643 40.306c2.72 0 23.704 0 27.59-.77 3.886-.771 24.093-21.966 28.756-21.966 2.331 0 28.756 21.58 31.865 21.966 3.109.385 24.553.505 26.884-1.036"/></g><g style="mix-blend-mode:multiply"><path stroke="#000" stroke-linecap="round" stroke-linejoin="round" stroke-miterlimit="10" stroke-width="1.5" d="M33.052 55.5c-1.166-1.167-1.692-2.855-.885-4.289a11.445 11.445 0 0 0 1.48-5.623c0-3.246-1.367-6.19-3.586-8.347a3.747 3.747 0 0 1-.796-4.29 8.066 8.066 0 0 0 .762-3.434c0-4.735-4.057-8.569-9.078-8.569-5.01 0-9.078 3.834-9.078 8.569 0 1.223.269 2.378.762 3.434a3.747 3.747 0 0 1-.796 4.29c-2.219 2.156-3.586 5.101-3.586 8.346 0 2.034.538 3.946 1.48 5.624a3.678 3.678 0 0 1-.617 4.401c-2.78 2.767-4.483 6.502-4.483 10.614 0 1.922.37 3.767 1.054 5.457.493 1.233.313 2.645-.538 3.678C2.547 78.54 1 82.53 1 86.853 1 97.256 14.522 107 26.541 105M22 74.35v40.788m-5.941-32.786 5.94 7.336"/><path stroke="#000" stroke-linecap="round" stroke-linejoin="round" stroke-miterlimit="10" stroke-width="1.5" d="M149.021 57c0-22.562-.058 13.253-.116-9.251 0-4.27 0-8.598-.873-12.81-.582-3-1.629-5.886-2.735-8.771a158.688 158.688 0 0 0-4.771-11.252c-.233-.577-.524-1.154-1.048-1.5-.581-.405-1.338-.405-2.036-.405l-93.858-.519a305.701 305.701 0 0 0-8.03 22.562c-.699 2.25-1.397 4.501-1.746 6.81-.465 2.884-.407 5.827-.407 8.712l.174 19.446"/><path fill="#fff" stroke="#000" stroke-linecap="round" stroke-linejoin="round" stroke-miterlimit="10" stroke-width="1.5" d="M76.81 60.731c9.194-.115 18.446-.173 27.639-.288-.174-5.886-.407-11.772-.756-17.657-8.845-.058-17.748-.058-26.592 0-.058 2.25 0 4.558-.175 6.808-.174 2.366-.233 4.732-.233 7.098.059 1.385.059 2.712.117 4.04Z"/><path fill="#fff" d="M130.867 51.786c-.466.058-.989 0-1.455 0-2.153-.173-4.306-.057-6.459.058"/><path stroke="#000" stroke-linecap="round" stroke-linejoin="round" stroke-miterlimit="10" stroke-width="1.5" d="M130.867 51.786c-.466.058-.989 0-1.455 0-2.153-.173-4.306-.057-6.459.058"/><path fill="#fff" d="M122.74 56.233s0 2.767 0 0V59"/><path stroke="#000" stroke-linecap="round" stroke-linejoin="round" stroke-miterlimit="10" stroke-width="1.55" d="M122.74 56.233c0 2.767 0 0 0 0V59"/><path fill="#fff" d="M86.179 42.959c.29 2.539.232 5.078.232 7.674-.058 3.347-.058 6.636-.116 9.983v-.288m9.368-17.369c-.058.98.058 2.02.116 3 .058 1.328-.058 2.655-.058 3.982-.058 1.616 0 3.231 0 4.847.058 1.904.058 3.809.116 5.713"/><path fill="#fff" d="M103.984 51.845c-2.909-.115-5.877.116-8.786 0-6.052-.346-12.162.231-18.272 0m-26.883 8.772c2.735.173 5.528.173 8.263 0 .058-2.078-.174-4.213-.233-6.29-.116-3.231.059-6.463-.058-9.694-2.735.173-5.47.23-8.205.288.059 0 0 5.136 0 5.54.059 2.192.059 4.328.117 6.52.116 1.212.116 2.424.116 3.636Z"/><path fill="#fff" d="M57.957 52.537c-.465.058-.989 0-1.455 0-2.153-.173-4.305-.057-6.458.058"/><path stroke="#000" stroke-linecap="round" stroke-linejoin="round" stroke-miterlimit="10" stroke-width="1.5" d="M86.179 42.959c.29 2.539.232 5.078.232 7.674-.058 3.347-.058 6.636-.116 9.983v-.288m9.368-17.369c-.058.98.058 2.02.116 3 .058 1.328-.058 2.655-.058 3.982-.058 1.616 0 3.231 0 4.847.058 1.904.058 3.809.116 5.713m8.147-8.656c-2.909-.115-5.877.116-8.786 0-6.052-.346-12.162.231-18.272 0m54.291 8.54c.058-2.25-.175-4.501-.233-6.694-.117-3.462.058-6.866-.058-10.329-2.735.174-5.47.231-8.205.289.058 0 0 5.482 0 5.886.058 2.308-.083 5.655-.025 7.963m-64.739-4.963c-.465.058-.989 0-1.455 0-2.153-.173-4.305-.057-6.458.058m0 8.022c2.734.173 5.527.173 8.262 0 .058-2.078-.174-4.213-.233-6.29-.116-3.231.059-6.463-.058-9.694-2.735.173-5.47.23-8.205.288.059 0 0 5.136 0 5.54.059 2.192.059 4.328.117 6.52.116 1.212.116 2.424.116 3.636Z"/><path fill="#fff" stroke="#000" stroke-linecap="round" stroke-linejoin="round" stroke-miterlimit="10" stroke-width="1.5" d="M87.458 31.014c.233.75.698 1.443 1.338 1.905.233.173.466.289.757.404.29.058.582.058.815.058a4.29 4.29 0 0 0 2.036-.866c.582-.462.99-1.154 1.164-1.905.175-.75.058-1.5-.175-2.193-.174-.461-.407-.923-.814-1.27-.408-.346-.931-.519-1.513-.576-.407-.058-.873 0-1.28.115a3.873 3.873 0 0 0-1.106.52c-1.28.807-1.63 2.366-1.222 3.808Zm-3.49 84.304v.173c0-.057-.058-.115-.058-.173h.058Z"/><path fill="#fff" stroke="#000" stroke-linecap="round" stroke-linejoin="round" stroke-miterlimit="10" stroke-width="1.5" d="M84.084 108.625c0 2.308-.058 4.501-.116 6.694v.173c0-.058-.059-.115-.059-.173-2.967 0-5.877 0-8.844.058-4.073 0-8.205.057-12.278.057-9.252.058-18.504.116-27.756.231h-.814c-1.863 0-3.666.058-5.528.058h-2.095c.058-6.059.116-13.734.116-18.061 0-4.963.116-20.427-.058-23.774 2.56-1.558 3.491-2.193 5.353-3.116.524-.288 1.048-.52 1.571-.75a77.747 77.747 0 0 1 5.005-2.25c4.305-1.847 8.786-3.347 13.325-4.617.814-.23 1.629-.461 2.502-.346.582.058 1.105.23 1.687.404A175.917 175.917 0 0 1 82.804 74.06c.873 9.752 1.338 22.908 1.28 34.564Z"/><path fill="#fff" stroke="#000" stroke-linecap="round" stroke-linejoin="round" stroke-miterlimit="10" stroke-width="1.5" d="M75.065 115.318c-4.073 0-8.205.058-12.278.058-9.252.058-18.504.116-27.756.231 0-.115-.058-.231-.058-.289-.35-2.308-.058-4.847-.116-7.212 0-2.539 0-5.136-.059-7.675 0-5.135-.058-10.271-.058-15.407v-1.962c13.325-.403 26.592-.519 39.918-.288.523 10.848.465 21.696.407 32.544Z"/><path stroke="#000" stroke-linecap="round" stroke-linejoin="round" stroke-miterlimit="10" stroke-width="1.5" d="M130.925 12.56c.524-5.192-.407-5.896-.058-11.09 0-.115 0-.23-.058-.288a.447.447 0 0 0-.291-.115c-2.56-.116-5.121-.058-7.739 0-.058 0-.175 4.904-.175 5.54.059 2.25.233 5.808.233 5.808M33.643 40.306c2.72 0 23.704 0 27.59-.77 3.886-.771 24.093-21.966 28.756-21.966 2.331 0 28.756 21.58 31.865 21.966 3.109.385 24.553.505 26.884-1.036"/></g><g style="mix-blend-mode:multiply"><path fill="#F2F2F2" d="m3.499 94.5 4 5 3 2 4 2 4.5 1.5 5 .5 2.5-.5V74l7-4V57l-1-2-.5-.5-.5-2 1-2.5 1.5-3-.5-2.5-1-3.5-1.5-2-1-2-1-2v-1.5l1-3v-3l-2-3-3-2.5-3.5-1h-2.5l-4 2-3 4v4l1 3.5-.5 2-1.5 1.5-2.5 4.5v4l1 4 .5 2.5v1.5l-1.5 1-1 1.5-2 3-1 5.5 1 5 .5 3-.5 1-1 1.5c-.167 0-.9.9-2.5 4.5s-1 8.5-.5 10.5l2 3.5Z"/><path stroke="#000" stroke-linecap="round" stroke-linejoin="round" stroke-miterlimit="10" stroke-width="1.5" d="M33.05 55.501c-1.165-1.167-1.69-2.855-.884-4.289a11.447 11.447 0 0 0 1.48-5.623c0-3.246-1.368-6.19-3.587-8.347a3.747 3.747 0 0 1-.795-4.29 8.066 8.066 0 0 0 .762-3.434c0-4.735-4.057-8.569-9.078-8.569-5.01 0-9.078 3.834-9.078 8.569 0 1.223.269 2.378.762 3.434a3.747 3.747 0 0 1-.796 4.29c-2.219 2.156-3.586 5.101-3.586 8.347 0 2.033.538 3.945 1.48 5.623a3.678 3.678 0 0 1-.617 4.401C6.333 58.38 4.63 62.115 4.63 66.227c0 1.922.37 3.767 1.054 5.457.493 1.233.313 2.645-.538 3.678-2.6 3.179-4.147 7.169-4.147 11.492 0 10.403 13.522 20.147 25.541 18.147m-4.541-30.649v40.787m-5.941-32.786 5.94 7.336"/><path stroke="#000" stroke-linecap="round" stroke-linejoin="round" stroke-miterlimit="10" stroke-width="1.5" d="M149 58c0-22.562-.037 12.253-.095-10.251 0-4.27 0-8.598-.873-12.81-.582-3-1.629-5.886-2.735-8.771a158.688 158.688 0 0 0-4.771-11.252c-.233-.577-.524-1.154-1.048-1.5-.581-.405-1.338-.405-2.036-.405l-93.858-.519a305.701 305.701 0 0 0-8.03 22.562c-.699 2.25-1.397 4.501-1.746 6.81-.465 2.884-.407 5.827-.407 8.712l.174 19.446"/><path fill="#fff" stroke="#000" stroke-linecap="round" stroke-linejoin="round" stroke-miterlimit="10" stroke-width="1.5" d="M76.808 60.731c9.194-.115 18.446-.173 27.639-.288-.174-5.886-.407-11.772-.756-17.657-8.845-.058-17.748-.058-26.592 0-.059 2.25 0 4.558-.175 6.808-.174 2.366-.233 4.732-.233 7.098.059 1.385.059 2.712.117 4.04Zm10.65-29.718c.233.75.698 1.443 1.338 1.905.233.173.466.288.757.404.29.058.582.058.815.058a4.29 4.29 0 0 0 2.036-.866c.582-.462.99-1.154 1.164-1.905.175-.75.058-1.5-.175-2.193-.174-.461-.407-.923-.814-1.27-.408-.346-.931-.519-1.513-.576-.407-.058-.873 0-1.28.115a3.873 3.873 0 0 0-1.106.52c-1.28.807-1.63 2.366-1.222 3.808Zm-3.49 84.305v.173c0-.057-.058-.115-.058-.173h.058Z"/><path fill="#fff" stroke="#000" stroke-linecap="round" stroke-linejoin="round" stroke-miterlimit="10" stroke-width="1.5" d="M84.084 108.625c0 2.308-.058 4.501-.116 6.694v.173c0-.058-.059-.115-.059-.173-2.967 0-5.877 0-8.844.058-4.073 0-8.205.057-12.278.057-9.252.058-18.504.116-27.756.231h-.814c-1.863 0-3.666.058-5.528.058h-2.095c.058-6.059.116-13.734.116-18.061 0-4.963.116-20.427-.058-23.774 2.56-1.558 3.491-2.193 5.353-3.116.524-.288 1.048-.52 1.571-.75a77.747 77.747 0 0 1 5.005-2.25c4.305-1.847 8.786-3.347 13.325-4.617.814-.23 1.629-.461 2.502-.346.582.058 1.105.23 1.687.404A175.917 175.917 0 0 1 82.804 74.06c.873 9.752 1.338 22.908 1.28 34.564Z"/><path fill="#fff" d="M13.188 115.777c5.101 0 10.73.111 15.656.055 11.494-.11 22.929-.221 34.422-.276 11.553-.055 23.046-.111 34.598-.111 11.494 0 22.929 0 34.422.056l34.481.165c1.407 0 2.814 0 4.222.056"/><path stroke="#000" stroke-linecap="round" stroke-linejoin="round" stroke-miterlimit="10" stroke-width="1.5" d="M13.188 115.777c5.101 0 10.73.111 15.656.055 11.494-.11 22.929-.221 34.422-.276 11.553-.055 23.046-.111 34.598-.111 11.494 0 22.929 0 34.422.056l34.481.165c1.407 0 2.815 0 4.222.056"/><path fill="#fff" stroke="#000" stroke-linecap="round" stroke-linejoin="round" stroke-miterlimit="10" stroke-width="1.5" d="M114.109 96.356c9.266-.11 18.589-.166 27.855-.276-.176-5.638-.411-11.276-.763-16.913-8.913-.056-17.885-.056-26.798 0-.059 2.155 0 4.366-.176 6.522-.176 2.266-.235 4.532-.235 6.798 0 1.271.059 2.598.117 3.869Z"/><path fill="#fff" d="M123.547 79.28c.293 2.431.234 4.863.234 7.35-.058 3.206-.058 6.357-.117 9.563v-.277"/><path stroke="#000" stroke-linecap="round" stroke-linejoin="round" stroke-miterlimit="10" stroke-width="1.5" d="M123.547 79.28c.293 2.431.234 4.863.234 7.35-.058 3.206-.058 6.357-.117 9.563v-.277"/><path fill="#fff" d="M133.047 79.334c-.058.94.059 1.934.118 2.874.058 1.271-.059 2.543-.059 3.814-.059 1.547 0 3.095 0 4.643.059 1.824.059 3.648.117 5.472"/><path stroke="#000" stroke-linecap="round" stroke-linejoin="round" stroke-miterlimit="10" stroke-width="1.5" d="M133.047 79.334c-.058.94.059 1.934.118 2.874.058 1.271-.059 2.543-.059 3.814-.059 1.547 0 3.095 0 4.643.059 1.824.059 3.648.117 5.472"/><path fill="#fff" d="M141.436 87.79c-2.932-.11-5.923.111-8.855 0-6.099-.331-12.256.222-18.413 0"/><path stroke="#000" stroke-linecap="round" stroke-linejoin="round" stroke-miterlimit="10" stroke-width="1.5" d="M141.436 87.79c-2.932-.11-5.923.111-8.855 0-6.099-.331-12.256.222-18.413 0"/><path fill="#fff" stroke="#000" stroke-linecap="round" stroke-linejoin="round" stroke-miterlimit="10" stroke-width="1.5" d="M148.472 111.556c-5.395-.056-10.79-.056-16.243-.056-5.864 0-11.67-.055-17.534-.055.235-.774.528-1.492.939-2.211.996-1.658 2.814-3.04 4.808-3.15 1.056-.055 2.17.276 3.225.11 1.408-.221 2.463-1.16 3.577-1.989 1.994-1.548 4.398-2.764 6.979-2.875 2.58-.11 5.336 1.272 6.157 3.593.293.829.41 1.824 1.29 2.156.469.165.938.11 1.407.11 1.935-.055 3.695 1.216 4.692 2.819.293.498.527.995.703 1.548Zm-73.409 3.762c-4.073 0-8.205.058-12.278.058-9.252.058-18.504.116-27.756.231 0-.115-.058-.231-.058-.289-.35-2.308-.058-4.847-.116-7.212 0-2.539 0-5.136-.058-7.675 0-5.135-.059-10.271-.059-15.407v-1.962c13.325-.403 26.593-.519 39.918-.288.523 10.848.465 21.696.407 32.544Z"/><path stroke="#000" stroke-linecap="round" stroke-linejoin="round" stroke-miterlimit="10" stroke-width="1.5" d="M130.923 12.56c.524-5.192-.407-5.896-.058-11.09 0-.115 0-.23-.058-.288a.447.447 0 0 0-.291-.115c-2.56-.116-5.121-.058-7.739 0-.058 0-.175 4.904-.175 5.54.059 2.25.233 5.808.233 5.808M33.641 40.306c2.72 0 23.704 0 27.59-.77 3.886-.771 24.093-21.966 28.756-21.966 2.332 0 28.756 21.58 31.865 21.966 3.109.385 24.553.505 26.884-1.036"/><path fill="#2B2B2B" stroke="#000" d="M141.5 40H123l-3-1-12-8.5-17.5-13H89l-6 4-18.5 16-4 2.5H34l1.5-5L42 16.5l2-4 90.5.5h5l1 2 4.5 10 3 11v3h-2.5l-4 1Z"/></g><path fill="#F2F2F2" d="M204.394 58.388c1.976.101 3.569 1.651 3.681 3.623.219 3.85.21 7.434.022 11.281-.1 2.054-1.789 3.66-3.848 3.714-23.687.625-67.334 1.423-80.509 1.659a3.992 3.992 0 0 1-4.059-3.795l-.404-7.985c-.126-2.517-2.113-7.854 2.065-7.854 6.961-.033 13.906-.115 20.868-.198 13.989-.164 27.978-.41 41.985-.739a275.296 275.296 0 0 1 20.199.294Z"/><path fill="#fff" d="M208.108 68.924a160.26 160.26 0 0 1-.16-6.685c.001-2.068-1.517-3.812-3.585-3.843l-.539-.009c-2.334-.036-4.498 1.688-4.682 4.015a241.966 241.966 0 0 0-.657 11.54c-.063 1.95 1.331 3.61 3.282 3.572 2.03-.04 4.226-.25 5.74-.342.783-.05.734.51.917-.376.233-1.102-.1-2.58-.15-3.714-.05-1.38-.1-2.777-.166-4.158Z" style="mix-blend-mode:multiply"/><path stroke="#000" stroke-linecap="round" stroke-linejoin="round" stroke-miterlimit="10" d="M176.516 62.745c10.758-.066 11.608.082 22.366.377m-22.269 5.883c10.442-.049 11.791.476 22.2-.213m-21.434 4.864c10.042-.016 11.241-.262 21.267-.738m-79.306-8.744c2.864.066 3.814-.263 6.678-.18 6.978.164 13.856-.625 20.951-1.101m-27.86 5.637c8.327.378 14.573-.033 22.983-.394 1.732-.082 3.431-.427 5.163-.394m-.287 6.048c-9.742.557-17.37.721-27.113.459m79.649-16.163c-.483 6.556-.761 11.792-.728 18.365"/><path stroke="#000" stroke-linecap="round" stroke-linejoin="round" stroke-miterlimit="10" d="M198.961 62.926c2.964.476 5.945.953 8.893 1.462m-8.975 4.504c2.981.23 5.945.558 8.893.986m-8.858 3.186a53.41 53.41 0 0 0 9.276 1.15"/><path fill="#D92228" d="m176 58-29 .5.5 19L166 77l5 1h5.5l-.5-20Z"/><path fill="#fff" fill-rule="evenodd" stroke="#fff" stroke-linecap="round" stroke-linejoin="round" stroke-miterlimit="10" stroke-width=".5" d="M161.941 62.462c-.044-.43-.713-.361-.668.07.05.486.057.976.054 1.48-1.063.175-2.091.977-2.267 2.08v.005c-.209 1.44 1.336 1.694 2.4 1.885.072.967.156 1.931.204 2.888-.812-.178-1.595-.548-2.289-.997-.363-.236-.729.327-.365.563.804.52 1.732.954 2.683 1.123.011.375.016.748.011 1.121-.005.433.666.442.672.01.005-.358.001-.716-.009-1.073 1.223-.019 2.307-.846 2.307-2.12 0-1.436-1.429-1.852-2.581-2.08a36.065 36.065 0 0 1-.099-2.772 3.546 3.546 0 0 1 1.469.431c.382.205.7-.386.318-.59a4.213 4.213 0 0 0-1.782-.513c.002-.502-.006-1.01-.058-1.51Zm-.619 2.233c-.793.172-1.483.788-1.598 1.5-.13.907 1.046.98 1.687 1.096a36.392 36.392 0 0 1-.089-2.596Zm.822 3.417c.071.94.151 1.884.197 2.835.863-.008 1.661-.534 1.661-1.45 0-1.021-1.037-1.215-1.858-1.385Z" clip-rule="evenodd"/><path stroke="#000" stroke-linecap="round" stroke-linejoin="round" stroke-miterlimit="10" d="M147.203 58.704c.167 6.918.15 12.259.333 19.177.017-.164.05-.312.067-.477m28.608-19.506c.083 7 .166 13.03.25 20.03"/><path stroke="#000" stroke-linecap="round" stroke-linejoin="round" stroke-miterlimit="10" d="M208.036 77.172c-.133-4.831.021-8.642-.162-13.473-.044-1.093-.001-2.38.023-3.496.023-.996-.521-1.69-1.516-1.761-2.412-.173-6.825-.264-6.874-.264h-.001c-.066-.002-19.589-.427-25.94-.313-5.612.099-11.225.214-16.837.313-11.324.204-22.649.422-33.973.629a4.004 4.004 0 0 0-3.918 4.314c.32 4.115.599 7.771.929 12a3.17 3.17 0 0 0 3.088 2.924v0"/><path fill="#F2F2F2" d="M174.768 81.516c-.106-1.69-1.305-3.122-2.976-3.407-5.024-.856-9.873-.537-14.73-.217-15.991 1.052-32.106.867-48.123 1.055l-.083.001c-6.934.082-13.851.164-20.785.196-1.681 0-2.504.408-2.433 2.356.045 1.33.186 2.155.26 3.48.119 2.15.514 13.867.707 13.867 28.119-.41 56.253-.985 84.373-1.727 2.059-.055 3.748-1.66 3.848-3.714.198-4.05.198-7.807-.058-11.89Zm1.193 20.482a3.747 3.747 0 0 0-3.414-3.59c-6.594-.594-13.174-.416-19.721-.239-14.827.402-29.657.688-44.487.891l-4.287.05c-5.716.07-11.431.138-17.147.164-.253.002-.486-.006-.699-.014-1.233-.044-1.64 2.026-1.57 4.24-.496 13.25-.662 17.317-.496 17.317 13.705-.224 27.578-.02 41.466.184 15.432.226 30.882.453 46.141.094a3.973 3.973 0 0 0 3.873-3.727c.314-5.125.545-10.254.341-15.37Z"/><path fill="#fff" d="M114 98.5v-20l29-.5v20l-29 .5Z"/><path stroke="#000" stroke-linecap="round" stroke-linejoin="round" stroke-miterlimit="10" d="M142.945 78.013c.084 7 .167 13.03.25 20.031m.049-15.184c10.759-.066 11.608.082 22.367.377m-22.265 5.883c10.442-.05 11.791.475 22.2-.214m-21.435 4.864c1.57-.003 2.924-.011 4.129-.025M86.072 84.29c2.865.065 3.814-.263 6.679-.181 6.978.164 13.856-.625 20.95-1.101M85.84 88.644c8.327.377 14.572-.033 22.982-.395 1.733-.082 3.431-.427 5.163-.394m-.284 6.046c-9.743.558-17.37.722-27.113.46"/><path stroke="#000" stroke-linecap="round" stroke-linejoin="round" stroke-miterlimit="10" d="M174.639 78.767c-.261-.272-6.421-1.244-7.996-1.488a3.807 3.807 0 0 0-.721-.045c-2.686.088-19.769.639-25.623.745-5.613.098-11.225.213-16.838.312-11.324.204-22.648.422-33.973.63a4.004 4.004 0 0 0-3.917 4.313c.32 4.115.599 7.772.928 12a3.17 3.17 0 0 0 3.088 2.924v0"/><path fill="#000" fill-rule="evenodd" stroke="#000" stroke-linecap="round" stroke-linejoin="round" stroke-miterlimit="10" stroke-width=".5" d="M128.889 82.462c-.045-.43-.713-.361-.669.07.051.486.057.976.055 1.48-1.064.175-2.092.977-2.267 2.08l-.001.005c-.209 1.44 1.336 1.694 2.4 1.885.073.967.156 1.931.204 2.888-.812-.178-1.595-.548-2.289-.997-.363-.236-.729.327-.365.563.804.52 1.732.954 2.683 1.123.012.375.016.748.011 1.121-.005.433.667.442.672.01.005-.358.001-.716-.009-1.073 1.224-.019 2.308-.846 2.308-2.12 0-1.436-1.43-1.852-2.582-2.08a36.067 36.067 0 0 1-.098-2.772 3.552 3.552 0 0 1 1.469.431c.381.205.699-.386.318-.59a4.22 4.22 0 0 0-1.782-.513 14.66 14.66 0 0 0-.058-1.51Zm-.62 2.233c-.793.172-1.483.788-1.597 1.5-.13.907 1.045.98 1.686 1.096a36.392 36.392 0 0 1-.089-2.596Zm.822 3.417c.072.94.151 1.884.197 2.835.863-.008 1.662-.534 1.662-1.45 0-1.021-1.038-1.215-1.859-1.385Z" clip-rule="evenodd"/><path stroke="#000" stroke-linecap="round" stroke-linejoin="round" stroke-miterlimit="10" d="M113.936 78.816c.166 6.918.149 12.26.333 19.177.016-.164.05-.312.066-.476"/><path fill="#F2F2F2" d="M233.986 78.11c1.668.285 2.867 1.718 2.973 3.407.255 4.083.256 7.84.058 11.89-.1 2.054-1.787 3.66-3.843 3.714a7146.34 7146.34 0 0 1-84.378 1.727c-.067 0-.55-10.862-.599-11.848-.1-2.005-.234-3.993-.3-5.998-.084-2.267.683-1.857 2.365-1.857 6.961-.032 13.906-.115 20.867-.197 13.99-.164 27.979-.41 41.985-.74 6.954-.16 13.737-1.314 20.872-.098Z"/><path fill="#fff" d="m205 78-28.5.5V99l29-1-.5-20Z"/><path fill="#fff" d="M237.03 89.039c-.098-2.398-.16-4.496-.16-6.685.001-2.069-1.512-3.869-3.513-4.392a116.65 116.65 0 0 1-.711-.19c-2.254-.605-4.39.98-4.564 3.308a297.694 297.694 0 0 0-.678 12.977c-.059 1.95 1.329 3.658 3.28 3.644 1.34-.01 2.685-.12 4.014-.2.783-.049 2.465.296 2.648-.591.233-1.101-.1-2.58-.15-3.714-.05-1.38-.1-2.777-.166-4.157Z" style="mix-blend-mode:multiply"/><path stroke="#000" stroke-linecap="round" stroke-linejoin="round" stroke-miterlimit="10" d="M176.129 78.817c.166 6.919.15 12.26.333 19.177.017-.164.05-.312.067-.476m28.612-19.505c.083 7 .166 13.03.249 20.031m.048-15.184c10.758-.066 11.607.082 22.366.377m-22.265 5.883c10.442-.05 11.791.475 22.2-.214m-21.434 4.864c10.042-.017 11.241-.263 21.267-.739m-79.306-8.741c2.864.065 3.813-.263 6.678-.181 6.978.164 13.856-.625 20.951-1.101m-27.864 5.636c8.327.377 14.573-.033 22.983-.395 1.732-.082 3.431-.427 5.163-.394m-.283 6.047c-9.743.558-17.37.722-27.113.46"/><path stroke="#000" stroke-linecap="round" stroke-linejoin="round" stroke-miterlimit="10" d="M237.199 98.322c-.133-4.831-.216-9.679-.4-14.51-.043-1.093-.001-2.379.024-3.496.022-.996-.507-1.74-1.484-1.934-1.994-.395-5.391-.93-6.503-1.103a3.798 3.798 0 0 0-.721-.045c-2.686.088-19.768.639-25.623.745-5.612.098-11.225.213-16.837.312-11.325.204-22.649.422-33.973.63a4.004 4.004 0 0 0-3.918 4.313c.32 4.115.599 7.772.928 12a3.171 3.171 0 0 0 3.088 2.924v0"/><path stroke="#000" stroke-linecap="round" stroke-linejoin="round" stroke-miterlimit="10" d="M228.389 76.846a251.461 251.461 0 0 0-.683 19.719"/><path stroke="#000" stroke-linecap="round" stroke-linejoin="round" stroke-miterlimit="10" d="M227.891 83.04c2.964.477 5.945.953 8.893 1.462m-8.979 4.505c2.981.23 5.945.558 8.893.986m-8.858 3.187a53.411 53.411 0 0 0 9.276 1.15"/><path fill="#000" fill-rule="evenodd" stroke="#000" stroke-linecap="round" stroke-linejoin="round" stroke-miterlimit="10" stroke-width=".5" d="M190.988 82.462c-.044-.43-.713-.361-.668.07.05.486.057.976.054 1.48-1.063.175-2.091.977-2.267 2.08v.005c-.209 1.44 1.336 1.694 2.4 1.885.072.967.155 1.931.204 2.888-.812-.178-1.595-.548-2.289-.997-.364-.236-.729.327-.366.563.805.52 1.732.954 2.684 1.123.011.375.016.748.011 1.121-.006.433.666.442.672.01.005-.358.001-.716-.01-1.073 1.224-.019 2.308-.846 2.308-2.12 0-1.436-1.429-1.852-2.581-2.08a36.065 36.065 0 0 1-.099-2.772 3.546 3.546 0 0 1 1.469.431c.382.205.7-.386.318-.59a4.213 4.213 0 0 0-1.782-.513c.002-.502-.006-1.01-.058-1.51Zm-.619 2.233c-.793.172-1.483.788-1.598 1.5-.13.907 1.046.98 1.687 1.096a35.813 35.813 0 0 1-.089-2.596Zm.822 3.417c.071.94.151 1.884.197 2.835.863-.008 1.661-.534 1.661-1.45 0-1.021-1.038-1.215-1.858-1.385Z" clip-rule="evenodd"/><path fill="#fff" d="m141 98-28 1v23.5h27v-11l1-13.5Z"/><path stroke="#000" stroke-linecap="round" stroke-linejoin="round" stroke-miterlimit="10" d="M140.829 99.236a232.122 232.122 0 0 0-.716 22.562m-27.427-17.157c-2.582-.082-19.902-.508-28.479-.197m.516 6.096c6.645 1.542 12.823-.148 19.552.148 4.546.197 3.947-.115 8.41.197m.216 6.278c-7.811.804-10.792-.41-18.62-.263-3.63.066-6.128.378-9.775.246m55.974-1.165c14.29-.197 11.392.213 25.681.016m-24.747-6.31c13.773.329 10.908.624 24.681.345m-24.681-5.062c13.207.196 11.858.377 25.015-.263"/><path stroke="#000" stroke-linecap="round" stroke-linejoin="round" stroke-miterlimit="10" d="M175.905 99.088c-2.748-.476-5.679-.805-8.627-1.068-26.162-.25-52.355 1.417-78.52.79-2.229-.054-4.088 1.706-4.134 3.935l-.366 17.853m82.17-10.6c2.914-.197 5.862 0 8.71.558m-8.792 5.425c2.831 0 5.662.197 8.477.558"/><path fill="#000" fill-rule="evenodd" stroke="#000" stroke-linecap="round" stroke-linejoin="round" stroke-miterlimit="10" stroke-width=".5" d="M126.881 104.462c-.045-.43-.713-.361-.669.069.051.487.057.977.055 1.481-1.064.175-2.092.977-2.267 2.08l-.001.005c-.208 1.439 1.336 1.694 2.401 1.885.072.967.155 1.931.204 2.888-.812-.178-1.596-.548-2.289-.997-.364-.236-.73.327-.366.563.805.521 1.732.954 2.683 1.123.012.375.016.748.012 1.122-.006.432.666.441.672.008.004-.357 0-.715-.01-1.072 1.224-.018 2.308-.846 2.308-2.12 0-1.436-1.429-1.852-2.581-2.079a35.575 35.575 0 0 1-.099-2.773 3.546 3.546 0 0 1 1.469.431c.382.205.699-.386.318-.591a4.222 4.222 0 0 0-1.782-.512 14.38 14.38 0 0 0-.058-1.511Zm-.62 2.233c-.793.172-1.483.788-1.597 1.5-.13.906 1.045.981 1.686 1.096a36.388 36.388 0 0 1-.089-2.596Zm.822 3.417c.072.941.151 1.884.197 2.835.863-.008 1.662-.534 1.662-1.45 0-1.021-1.038-1.215-1.859-1.385Z" clip-rule="evenodd"/><path fill="#fff" d="M112.952 99.138c.116 5.997.099 11.995.066 17.993 0 1.364-.017 2.728-.017 4.108 0 .115-.099.23-.049.329.049.099.099-.131.049-.049"/><path stroke="#000" stroke-linecap="round" stroke-linejoin="round" stroke-miterlimit="10" d="M112.952 99.138c.116 5.997.099 11.995.066 17.993 0 1.364-.017 2.728-.017 4.108 0 .115-.099.23-.049.329.049.099.099-.131.049-.049"/><path fill="#F2F2F2" d="M235.911 98.687a3.745 3.745 0 0 1 3.41 3.589c.204 5.117-.027 10.246-.341 15.37a3.97 3.97 0 0 1-3.867 3.727c-28.994.683-58.679-.751-87.613-.278-.066 0 .683-11.404.633-12.538-.1-2.284-.233-4.585-.3-6.869-.083-2.596.716-2.12 2.432-2.136 7.144-.033 14.289-.132 21.434-.214 14.372-.197 28.761-.476 43.134-.854 6.996-.185 14.029-.433 21.078.203Z"/><path fill="#fff" d="m204 98.5-27.5 1V122h27v-11.5l.5-12Z"/><path fill="#fff" d="M239.132 111.68c-.107-3.03-.224-6.06-.238-9.085-.009-2.033-1.482-3.78-3.49-4.104l-.714-.117c-2.347-.387-4.552 1.291-4.714 3.664a377.16 377.16 0 0 0-.75 15.987c-.049 1.916 1.3 3.531 3.217 3.575a71.05 71.05 0 0 0 2.689.005 3.728 3.728 0 0 0 3.663-3.333c.217-2.004.421-4.573.337-6.592Z" style="mix-blend-mode:multiply"/><path stroke="#000" stroke-linecap="round" stroke-linejoin="round" stroke-miterlimit="10" d="M176.178 99.273c.116 5.998.1 11.996.067 17.994 0 1.364-.017 2.728-.017 4.108 0 .115-.1.23-.05.329.05.098.1-.132.05-.049m27.828-22.283a231.5 231.5 0 0 0-.716 22.562m-27.428-17.156c-2.581-.082-19.902-.508-28.478-.197m.515 6.096c6.645 1.542 12.824-.148 19.552.147 4.547.197 3.947-.114 8.41.197m.219 6.279c-7.811.803-10.792-.411-18.62-.263-3.63.066-6.128.377-9.776.246m55.973-1.167c14.289-.197 11.391.213 25.681.016m-24.747-6.309c13.773.328 10.908.624 24.681.345m-24.681-5.062c13.206.197 11.857.378 25.014-.262"/><path stroke="#000" stroke-linecap="round" stroke-linejoin="round" stroke-miterlimit="10" d="M238.549 121.523c.284-6.597.495-12.526.562-18.926.02-1.948-1.382-3.623-3.315-3.874a133.051 133.051 0 0 0-5.291-.567c-26.163-.25-52.355 1.416-78.521.79-2.228-.054-4.087 1.706-4.133 3.934l-.367 17.854"/><path stroke="#000" stroke-linecap="round" stroke-linejoin="round" stroke-miterlimit="10" d="M229.854 98.501c-.4 7.543-.517 15.085-.383 22.628 0-.214-.017-.411-.017-.625"/><path stroke="#000" stroke-linecap="round" stroke-linejoin="round" stroke-miterlimit="10" d="M229.738 104.597c3.031.443 6.062.903 9.093 1.347m-9.175 4.191c2.915-.197 5.862 0 8.71.558m-8.796 5.424c2.832 0 5.663.197 8.477.558"/><path fill="#000" fill-rule="evenodd" stroke="#000" stroke-linecap="round" stroke-linejoin="round" stroke-miterlimit="10" stroke-width=".5" d="M189.984 104.462c-.044-.43-.713-.361-.668.069.05.487.057.977.054 1.481-1.063.175-2.091.977-2.267 2.08v.005c-.209 1.439 1.336 1.694 2.4 1.885.072.967.156 1.931.204 2.888-.812-.178-1.595-.548-2.289-.997-.363-.236-.729.327-.366.563.805.521 1.733.954 2.684 1.123.011.375.016.748.011 1.122-.005.432.666.441.672.008.005-.357.001-.715-.009-1.072 1.223-.018 2.307-.846 2.307-2.12 0-1.436-1.429-1.852-2.581-2.079a36.075 36.075 0 0 1-.099-2.773 3.542 3.542 0 0 1 1.469.431c.382.205.7-.386.318-.591a4.214 4.214 0 0 0-1.782-.512 14.115 14.115 0 0 0-.058-1.511Zm-.619 2.233c-.793.172-1.483.788-1.598 1.5-.13.906 1.046.981 1.687 1.096a36.388 36.388 0 0 1-.089-2.596Zm.822 3.417c.071.941.151 1.884.197 2.835.863-.008 1.661-.534 1.661-1.45 0-1.021-1.037-1.215-1.858-1.385Z" clip-rule="evenodd"/><path stroke="#000" stroke-linecap="round" stroke-linejoin="round" stroke-miterlimit="10" stroke-width="1.5" d="M259 123c-52.075-2.095-130.045.762-181-1"/></svg>