<svg xmlns="http://www.w3.org/2000/svg" width="262" height="135" fill="none"><g clip-path="url(#a)"><path stroke="#2D2A26" stroke-linecap="round" stroke-linejoin="round" stroke-width="1.574" d="M38.83 106.523H1.145"/><path fill="#F2F2F2" d="M242.186 108.973c13.081-11.698 19.779-28.904 19.621-45.854-.145-15.035-5.939-30.659-18.421-40.229-7.221-5.538-16.231-8.747-25.388-10.43-18.939-3.494-38.595-.772-57.1 4.202-18.505 4.973-83.784 12.126-102.067 17.75-6.702 2.065-13.654 4.005-19.17 8.103-6.023 4.477-9.757 11.14-12.159 17.975-4.24 12.068-4.752 25.413-.51 37.524 4.243 12.111 13.404 22.854 25.566 28.67 8.143 3.895 17.297 5.523 26.376 6.474 10.56 1.102 68.733 1.348 79.328.735 10.323-.598 20.237-2.269 30.383-3.967 5.934-.991 11.879-1.965 17.735-3.302 13.54-3.087 25.699-8.608 35.806-17.651Z"/><path fill="#fff" stroke="#000" stroke-miterlimit="10" stroke-width="1.574" d="m249.913 61.488.706 45.055a.243.243 0 0 1-.014.1.245.245 0 0 1-.128.145.237.237 0 0 1-.094.02H99.277c-.955.076-1.899.177-2.854.265l-2.099-46.356 76.35-13.046 79.945 11.112-.706 2.705Z"/><path fill="#fff" d="M24.578 61.863v44.827c0 .067.025.131.07.179a.23.23 0 0 0 .166.074H96.8v-45.08"/><path stroke="#000" stroke-miterlimit="10" stroke-width="1.574" d="M24.578 61.863v44.827c0 .067.025.131.07.179a.23.23 0 0 0 .166.074H96.8v-45.08"/><path stroke="#000" stroke-linecap="round" stroke-miterlimit="10" stroke-width="1.574" d="M88.285 75.09v-3.413a2.082 2.082 0 0 1 .08-.871c.087-.28.233-.536.427-.747a1.28 1.28 0 0 1 .637-.215 1.9 1.9 0 0 1 .986.09c.317.117.602.317.83.58.338.539.522 1.172.53 1.82l.366 3.793m-61.751-.949.283-3.565c.06-.733.225-1.63.885-1.832.199-.039.402-.039.601 0 .731.075 1.58.303 1.816 1.049.065.325.065.66 0 .986a9.2 9.2 0 0 0 .307 2.983m-4.219 3.427h3.832"/><path fill="#fff" stroke="#2B2B2B" stroke-width="1.574" d="M236.848 16.407c0 8.372-7.73 15.293-17.435 15.293-9.705 0-17.436-6.92-17.436-15.293s7.731-15.294 17.436-15.294 17.435 6.921 17.435 15.294Z"/><path fill="#000" stroke="#000" stroke-width=".787" d="M217.176 11.402c-1.119 0-2.071-.19-3.121.468a1.705 1.705 0 0 0-.592.578 1.84 1.84 0 0 0-.273.808 1.9 1.9 0 0 0 .112.85c.101.27.264.51.47.697.25.205.549.336.861.379.415.079.814.233 1.179.455a5.105 5.105 0 0 1 1.617 1.176c.211.294.364.633.449.994.085.36.101.737.046 1.104-.165.784-1.027 1.163-1.688 1.264a3.512 3.512 0 0 1-1.769-.151c-.447-.152-1.307-.418-1.307-1.05 0-.328-.495-.328-.484 0 0 1.125 1.404 1.517 2.23 1.694a3.01 3.01 0 0 0 1.837-.1 3.226 3.226 0 0 0 1.486-1.164 3.192 3.192 0 0 0 .092-1.942 3.011 3.011 0 0 0-1.035-1.597 5.39 5.39 0 0 0-.871-.544c-.326-.21-.661-.4-1.003-.569a6.861 6.861 0 0 1-1.261-.354 1.128 1.128 0 0 1-.404-.42 1.234 1.234 0 0 1-.151-.579c0-.96.885-1.403 1.64-1.479.725-.05 1.454-.05 2.181 0a.267.267 0 0 0 .193-.26.267.267 0 0 0-.193-.258h-.241Z"/><path fill="#000" stroke="#000" stroke-width=".787" d="M215.648 9.393v12.363a.27.27 0 0 0 .085.15.243.243 0 0 0 .156.058.251.251 0 0 0 .241-.208V9.393a.251.251 0 0 0-.241-.208c-.057 0-.11.02-.156.059a.27.27 0 0 0-.085.15Zm9.454 2.009c-1.119 0-2.071-.19-3.119.468a1.71 1.71 0 0 0-.594.578 1.84 1.84 0 0 0-.273.808 1.9 1.9 0 0 0 .112.85c.101.27.264.51.47.697.252.205.548.336.863.379.413.079.812.233 1.179.455a5.104 5.104 0 0 1 1.614 1.176 2.892 2.892 0 0 1 .496 2.099c-.165.783-1.025 1.162-1.686 1.263-.594.102-1.2.05-1.769-.151-.449-.152-1.309-.418-1.309-1.05 0-.328-.496-.328-.484 0 0 1.125 1.404 1.517 2.229 1.694.608.16 1.248.125 1.838-.1a3.231 3.231 0 0 0 1.486-1.164 3.207 3.207 0 0 0 .094-1.942 3.032 3.032 0 0 0-1.037-1.597 5.304 5.304 0 0 0-.871-.544c-.324-.21-.659-.4-1.003-.569a6.906 6.906 0 0 1-1.261-.354 1.107 1.107 0 0 1-.402-.42 1.212 1.212 0 0 1-.153-.579c0-.96.885-1.403 1.64-1.479.724-.05 1.454-.05 2.181 0a.241.241 0 0 0 .138-.093.273.273 0 0 0 .055-.166.273.273 0 0 0-.055-.166.242.242 0 0 0-.138-.093h-.241Z"/><path fill="#000" stroke="#000" stroke-width=".787" d="M223.574 9.393v12.363a.262.262 0 0 0 .087.15.238.238 0 0 0 .154.058c.057 0 .11-.02.156-.058a.265.265 0 0 0 .085-.15V9.393a.265.265 0 0 0-.085-.15.243.243 0 0 0-.156-.058c-.055 0-.11.02-.154.059a.262.262 0 0 0-.087.15Z"/><path stroke="#000" stroke-linecap="round" stroke-miterlimit="10" stroke-width="1.574" d="m88.195 78.125 4.056-.14"/><path fill="#D92228" stroke="#000" stroke-miterlimit="10" stroke-width="1.574" d="m81.623 104.443-.554-36.104a.267.267 0 0 0-.074-.183.224.224 0 0 0-.174-.07c-13.619.355-27.462 1.075-41.093 1.088a.23.23 0 0 0-.167.074.264.264 0 0 0-.069.178v34.777a.26.26 0 0 0 .069.179.25.25 0 0 0 .077.055.234.234 0 0 0 .09.019l41.659.253a.227.227 0 0 0 .171-.079.249.249 0 0 0 .05-.086.274.274 0 0 0 .015-.101Z"/><path stroke="#000" stroke-linecap="round" stroke-miterlimit="10" stroke-width="1.574" d="M58.465 90.348c1.757 0 3.537 0 5.27-.177"/><path fill="#D92228" stroke="#000" stroke-miterlimit="10" stroke-width="1.574" d="M173.376 101.675s1.108-36.736 1.108-37.09l-17.687.19c-.637 11.857.224 36.9.224 36.9h16.355Z"/><path fill="#fff" stroke="#000" stroke-miterlimit="10" stroke-width="1.574" d="M176.263 69.175a2.81 2.81 0 0 0 .472 1.858c.304.33.675.582 1.084.735a2.65 2.65 0 0 0 1.274.15 3.58 3.58 0 0 0 2.17-.797c3.349-2.857-4.634-8.305-5-1.946Zm-58.888 17.154a.276.276 0 0 0 .015.098.23.23 0 0 0 .129.139.206.206 0 0 0 .092.015h14.563c1.179 0 2.169-.075 3.278-.075a.211.211 0 0 0 .166-.066.256.256 0 0 0 .069-.175c0-2.262.095-19.86.106-22.198a.26.26 0 0 0-.073-.183.229.229 0 0 0-.174-.07c-5.943.304-11.89.497-17.841.582a.215.215 0 0 0-.159.097.236.236 0 0 0-.029.194c0 2.174-.142 19.391-.142 21.642Z"/><path stroke="#000" stroke-linecap="round" stroke-miterlimit="10" stroke-width="1.574" d="M126.48 86.391V75.583l.095-11.239"/><path fill="#fff" stroke="#000" stroke-miterlimit="10" stroke-width="1.574" d="M187.769 64.85a716.525 716.525 0 0 1 39.927-.253.44.44 0 0 1 .323.145.508.508 0 0 1 .135.349l.331 21.313h-41.907l.507-20.846a.756.756 0 0 1 .209-.502.66.66 0 0 1 .475-.206Z"/><path stroke="#000" stroke-miterlimit="10" stroke-width="1.574" d="M197.332 64.686v21.719"/><path stroke="#000" stroke-linecap="round" stroke-miterlimit="10" stroke-width="1.574" d="M197.262 75.646h6.332"/><path stroke="#000" stroke-miterlimit="10" stroke-width="1.574" d="M207.535 64.686v21.719m10.574-21.82v21.87"/><path stroke="#000" stroke-linecap="round" stroke-miterlimit="10" stroke-width="1.574" d="M207.535 75.646h6.367m-96.527 0h6.356m2.843 0h6.368m50.605 14.576c.527 4.189.693 8.42.495 12.642m14.638-12.528.495 11.719a.87.87 0 0 0 .106.493m14.999-11.504c-.142 3.186-.285 8.85-.425 11.984m30.583-12.692.495 11.719c-.002.171.034.34.105.493m-15.796-11.745a32.969 32.969 0 0 1-.129 12.642"/><path fill="#2B2B2B" stroke="#000" stroke-miterlimit="10" stroke-width="1.574" d="M14.755 61.778c7.075 0 73.614-.341 82.045.165l74.203-11.163s59.063 8.18 88.281 11.858a.647.647 0 0 0 .539-.181.72.72 0 0 0 .17-.25.8.8 0 0 0 .059-.302c0-1.264.083-3.793.117-5.057a.773.773 0 0 0-.183-.526.694.694 0 0 0-.218-.167.64.64 0 0 0-.259-.065c-10.611-.519-88.341-10.77-88.341-10.77-15.058 2.527-30.587 5.157-45.704 7.23-9.539 1.264-28.712 4.677-28.712 4.677-9.268.089-74.521-.796-81.796-.897a.667.667 0 0 0-.278.055.704.704 0 0 0-.235.167.806.806 0 0 0-.207.55c-.07 1.023-.2 2.894-.188 3.93a.791.791 0 0 0 .207.532c.066.07.144.125.23.161a.656.656 0 0 0 .27.053Z"/><path fill="#000" stroke="#000" stroke-miterlimit="10" stroke-width=".787" d="M159.543 82.915a.984.984 0 0 0 .177.708c.117.127.26.223.417.28a.998.998 0 0 0 .491.049c.296-.006.584-.108.825-.291 1.25-1.087-1.78-3.16-1.91-.746Z"/><path fill="#fff" stroke="#000" stroke-miterlimit="10" stroke-width="1.574" d="M169.601 72.271a.177.177 0 0 0 .1-.025.191.191 0 0 0 .073-.078.213.213 0 0 0-.008-.213 13.061 13.061 0 0 0-2.087-2.528c-1.345-1.062-2.76-1.492-4.269-.203a14.79 14.79 0 0 0-1.745 2.617.218.218 0 0 0-.024.1.22.22 0 0 0 .086.18c.027.02.059.032.091.036l7.783.114Z"/><path stroke="#000" stroke-linecap="round" stroke-miterlimit="10" stroke-width="1.574" d="M183.184 86.48h58.236"/><path fill="#F2F2F2" stroke="#000" stroke-miterlimit="10" stroke-width="1.574" d="M138.588 91.94a24.229 24.229 0 0 1-.46-4.145 5.377 5.377 0 0 1 .389-2.933.38.38 0 0 1 .176-.19.47.47 0 0 1 .189 0 6.92 6.92 0 0 1 3.061 1.696 7.633 7.633 0 0 1 1.951 3.045c.538 2.139.631 4.379.271 6.56a26.696 26.696 0 0 1-3.939-.43 7.162 7.162 0 0 1-1.638-3.602Z"/><path fill="#F2F2F2" stroke="#000" stroke-miterlimit="10" stroke-width="1.574" d="M144.299 91.827a12.557 12.557 0 0 1 1.792-7.18c.884-1.264 2.134-2.2 2.913-3.54.213.756.386 1.524.518 2.301.153 1.16.201 2.332.142 3.502a23.947 23.947 0 0 1-.495 4.589 8.12 8.12 0 0 1-2.099 4.235 1.832 1.832 0 0 1-.891.232 1.84 1.84 0 0 1-.89-.232 1.662 1.662 0 0 1-.45-.494 1.8 1.8 0 0 1-.234-.644 9.768 9.768 0 0 1-.306-2.769Z"/><path fill="#F2F2F2" stroke="#000" stroke-miterlimit="10" stroke-width="1.574" d="M154.779 86.48a4.038 4.038 0 0 1-.247 2.706 15.849 15.849 0 0 1-3.868 5.208l-1.344 1.264a.72.72 0 0 1-.259.203.87.87 0 0 1-.437.063 8.249 8.249 0 0 1-1.651-.291 10.779 10.779 0 0 1 .39-3.009c.967-3.223 4.433-5.423 7.416-6.143Zm-12.653 4.109c-.057-.478-.085-.96-.083-1.442.01-.524.05-1.047.118-1.567l.13-1.264c.024-.848.26-1.673.684-2.39a6.472 6.472 0 0 1 2.016 2.92 20.71 20.71 0 0 1 .861 3.566c.433 1.756.518 3.591.247 5.385l-1.934.215c-1.014.114-1.12-.936-1.308-1.745a31.16 31.16 0 0 1-.731-3.678Z"/><path fill="#fff" stroke="#000" stroke-linecap="round" stroke-miterlimit="10" stroke-width="1.574" d="m141.384 109.69 7.511.303a.582.582 0 0 0 .519-.164c.095-.126 1.356-11.377 1.356-11.377l1.262-.127s.083-1.947.106-2.528a.251.251 0 0 0-.061-.178.221.221 0 0 0-.163-.075c-1.261 0-7.275-.076-7.947 0l-5.082.14a.274.274 0 0 0-.197.097.31.31 0 0 0-.074.218c0 .594.094 2.377.094 2.377l1.179.088s1.297 8.849 1.497 11.226Z"/><path stroke="#000" stroke-linecap="round" stroke-miterlimit="10" stroke-width="1.574" d="M141.762 98.59c2.405-.1 4.819-.126 7.24-.075M193 90.12v12.971M189 90v12.755m14.879-12.495v12.768m5.141-12.642v12.541m10.234-12.503v12.679m5.187-12.843v12.819m10.321-12.781v12.932m5.187-13.059v12.566"/><path stroke="#000" stroke-linecap="round" stroke-miterlimit="10" stroke-width=".852" d="M153.93 103.382h23.134"/><path fill="#fff" stroke="#2B2B2B" stroke-width="1.574" d="M103.703 25.753c0 8.372-7.73 15.294-17.435 15.294-9.706 0-17.436-6.922-17.436-15.294s7.73-15.294 17.436-15.294c9.705 0 17.435 6.922 17.435 15.294Z"/><path fill="#000" stroke="#000" stroke-width=".983" d="m84.322 18.124-.01-.017a1.622 1.622 0 0 0-.844.704l-.004.005-.001.006a3.179 3.179 0 0 0-.256 1.3c0 .499.24.915.57 1.232.327.316.75.539 1.135.656.396.163.83.177 1.234.04.405-.136.755-.416.992-.794l.001-.003.002-.002a3.12 3.12 0 0 0 .35-1.214c.026-.44-.077-.886-.446-1.15l-.003-.002-.004-.002c-.43-.243-.9-.397-1.383-.451a2.592 2.592 0 0 0-.835 0h-.002a2.766 2.766 0 0 1-.038.007.394.394 0 0 0-.045-.155l-.001-.002-.002-.003a.364.364 0 0 0-.21-.16.34.34 0 0 0-.2.005Zm.214 1.077c.242-.029.492-.056.714-.044.342.036.68.111 1.008.224.139.045.252.083.337.14a.33.33 0 0 1 .15.234c.036.302-.003.609-.112.89l-.002.004v.005a1.03 1.03 0 0 1-.458.62 1.136 1.136 0 0 1-.807.13l-.003-.001a2.19 2.19 0 0 1-.89-.367l-.002-.002-.003-.001a1.32 1.32 0 0 1-.574-.707 1.26 1.26 0 0 1 .001-.454l.001-.004v-.004c.018-.205.06-.406.126-.598v-.002a.427.427 0 0 1 .005-.016c.143-.004.305-.023.471-.043l.038-.004Zm2.125 10.855a1.59 1.59 0 0 0-.564.38.313.313 0 0 0-.129.15c-.038.05-.073.104-.106.159l-.002.003-.002.005a3.168 3.168 0 0 0-.292 1.261v.002c0 .5.24.913.57 1.229.327.314.75.537 1.135.66.395.163.83.177 1.234.04a1.89 1.89 0 0 0 .991-.794l.002-.002.002-.003c.17-.319.324-.774.35-1.214.026-.44-.077-.885-.446-1.149l-.003-.003-.004-.002a3.636 3.636 0 0 0-1.359-.451 2.6 2.6 0 0 0-.836 0H87.2l-.026.005a.394.394 0 0 0-.045-.152l-.001-.003-.001-.003a.365.365 0 0 0-.211-.16.34.34 0 0 0-.257.031l.002.011Zm-.37 1.691a2.801 2.801 0 0 1 .125-.6c.15-.002.32-.023.492-.045l.011-.001c.243-.03.492-.06.713-.049.343.036.68.111 1.008.224h.002c.144.045.256.083.341.14a.355.355 0 0 1 .157.235 2.04 2.04 0 0 1-.125.89l-.001.004-.001.004a1.03 1.03 0 0 1-.458.62 1.134 1.134 0 0 1-.807.13l-.003-.001a2.19 2.19 0 0 1-.889-.367l-.002-.001-.003-.002a1.298 1.298 0 0 1-.563-.708 1.129 1.129 0 0 1 .001-.463v-.005l.002-.005Zm4.716-11.314L80.271 31.956l-.006.006-.05.054.013.015a.399.399 0 0 0 .074.416.331.331 0 0 0 .388.079l.014.015.05-.054.006-.006 3.219-3.451.005-.006.004-.006a.662.662 0 0 0 .015-.026l7.593-8.166a.372.372 0 0 0 .104-.28.41.41 0 0 0-.106-.247.353.353 0 0 0-.226-.12.314.314 0 0 0-.261.11l-.135.144h.035Z"/><path stroke="#000" stroke-dasharray="1.43 1.43" stroke-width="1.574" d="M97.758 38.074c.634-.34 8.982 10.337 13.076 15.718m102.24-22.516-15.058 16.568"/></g><defs><clipPath id="a"><path fill="#fff" d="M0 0h262v134.541H0z"/></clipPath></defs></svg>