<svg xmlns="http://www.w3.org/2000/svg" data-testid="spot-property-making-an-offer" viewBox="0 0 48 48"><path fill="#D92228" d="M9.444 42h29.112c.797 0 1.444-.573 1.444-1.28V23L24 11 8 22.5v18.22c0 .707.647 1.28 1.444 1.28Z"/><path fill="#fff" d="m6.166 18.251 16.219-12.05a2.708 2.708 0 0 1 3.23 0L35 13.172v-5.25c0-.51.448-.923 1-.923h3c.552 0 1 .413 1 .923v8.966l1.834 1.362A2.889 2.889 0 0 1 43 20.571v2.44a1 1 0 0 1-1.596.803L24 10.882 6.596 23.814A1 1 0 0 1 5 23.01v-2.44c0-.915.432-1.775 1.166-2.32Z"/><path fill="#fff" d="M34 29c0 5.523-4.477 10-10 10s-10-4.477-10-10 4.477-10 10-10 10 4.477 10 10Z"/><path fill="#620F12" d="M26.212 5.398a3.708 3.708 0 0 0-4.424 0L5.57 17.448A3.889 3.889 0 0 0 4 20.57v2.441c0 1.566 1.698 2.494 3 1.733l2-1.47 15-11.146 15 11.146 2 1.47c1.302.761 3-.168 3-1.733v-2.44a3.89 3.89 0 0 0-1.57-3.122L41 16.386V8a1 1 0 1 0 0-2h-7a1 1 0 1 0 0 2v3.184l-7.788-5.786ZM7 41H1a1 1 0 1 0 0 2h46a1 1 0 1 0 0-2H7Z"/><path fill="#fff" d="M35 8.168C35 7.523 35.523 7 36.168 7h2.664C39.477 7 40 7.523 40 8.168v10.664c0 .645-.523 1.168-1.168 1.168h-2.664A1.168 1.168 0 0 1 35 18.832V8.168Z"/><path fill="#620F12" fill-rule="evenodd" d="M34 8.168C34 6.971 34.97 6 36.168 6h2.664C40.029 6 41 6.97 41 8.168V18c0 1.198-.97 2.168-2.168 2.168h-2.664A2.168 2.168 0 0 1 34 18V8.168ZM36.168 8a.168.168 0 0 0-.168.168V18c0 .093.075.168.168.168h2.664A.168.168 0 0 0 39 18V8.168A.168.168 0 0 0 38.832 8h-2.664Z" clip-rule="evenodd"/><path fill="#620F12" fill-rule="evenodd" d="M33 7a1 1 0 0 1 1-1h7a1 1 0 1 1 0 2h-7a1 1 0 0 1-1-1Z" clip-rule="evenodd"/><path fill="#fff" d="M22.072 6.624 6.374 18.288A3.43 3.43 0 0 0 4.99 21.04v1.796a1.188 1.188 0 0 0 1.895.953L23.99 11.081l17.104 12.71a1.187 1.187 0 0 0 1.896-.954v-1.796a3.43 3.43 0 0 0-1.385-2.753L25.908 6.624a3.216 3.216 0 0 0-3.836 0Z"/><path fill="#620F12" fill-rule="evenodd" d="M25.317 7.419a2.227 2.227 0 0 0-2.655 0L6.964 19.082a2.44 2.44 0 0 0-.985 1.96v1.795c0 .163.186.256.316.159L23.99 9.848l17.694 13.148c.13.097.316.004.316-.159v-1.796a2.44 2.44 0 0 0-.985-1.959L25.317 7.42Zm-3.836-1.59a4.206 4.206 0 0 1 5.017 0l15.697 11.665a4.42 4.42 0 0 1 1.784 3.547v1.796c0 1.79-2.039 2.815-3.475 1.748L23.99 12.315 7.476 24.584C6.039 25.652 4 24.627 4 22.837v-1.796a4.42 4.42 0 0 1 1.784-3.547L21.48 5.83Z" clip-rule="evenodd"/><path fill="#620F12" fill-rule="evenodd" d="M24 21a1 1 0 0 1 1 1v.807c1.008.118 1.936.41 2.686.848.968.565 1.814 1.492 1.814 2.72a1 1 0 1 1-2 0c0-.221-.161-.607-.822-.992-.433-.253-1.009-.455-1.678-.558v3.214a8.476 8.476 0 0 1 1.79.335c.607.19 1.275.5 1.802 1.024.553.55.908 1.294.908 2.227 0 .933-.355 1.678-.908 2.227-.527.524-1.195.834-1.801 1.024A8.476 8.476 0 0 1 25 35.21V36a1 1 0 1 1-2 0v-.807c-1.008-.118-1.936-.41-2.686-.848-.968-.565-1.814-1.492-1.814-2.72a1 1 0 1 1 2 0c0 .221.161.607.822.992.433.253 1.009.455 1.678.558V29.96a8.476 8.476 0 0 1-1.79-.335c-.607-.19-1.275-.5-1.802-1.024-.553-.55-.908-1.294-.908-2.227 0-.933.355-1.678.908-2.227.527-.524 1.195-.834 1.801-1.024A8.476 8.476 0 0 1 23 22.79V22a1 1 0 0 1 1-1Zm-1 3.798c-.37.039-.792.109-1.191.234-.439.138-.776.32-.992.535-.19.189-.317.429-.317.808 0 .38.127.62.317.808.216.215.553.397.992.535.4.125.82.195 1.191.234v-3.154Zm2 5.25v3.154c.37-.039.792-.109 1.191-.234.439-.138.776-.32.992-.535.19-.189.317-.429.317-.808 0-.38-.127-.62-.317-.808-.216-.215-.553-.397-.992-.535-.4-.125-.82-.195-1.191-.234Z" clip-rule="evenodd"/></svg>