<svg xmlns="http://www.w3.org/2000/svg" width="327" height="287" fill="none"><g clip-path="url(#a)"><path stroke="#A0A0A0" stroke-linecap="round" stroke-linejoin="round" stroke-width="1.782" d="M67.262 188.69c-.428-30.807-.847-61.624-1.275-92.441a11.264 11.264 0 0 1 .556-4.5 11.596 11.596 0 0 1 1.94-2.91c10.275-12.262 33.45-36.852 35.099-37.37 1.284-.373 3.115-.091 4.436-.082 3.288 0 6.559.063 9.838.127 8.217.127 16.433.255 24.632.527h4.855c5.357 0 10.613.119 16.106.255 9.328 11.754 22.792 21.135 31.172 33.49a23.636 23.636 0 0 1 2.77 4.845 22.994 22.994 0 0 1 1.02 7.5c.638 30.362.255 44.825.127 75.478"/><path fill="#fff" d="M164.168 187.818c2.351-4.628 7.871-15.209 12.043-17.918 4.172-2.709 9.911-3.127 13.664.236a30.775 30.775 0 0 0 2.915 2.737c3.589 2.436 8.153 0 12.344-.6 6.713-.973 16.597 9.136 18.747 16.145"/><path stroke="#A0A0A0" stroke-linecap="round" stroke-linejoin="round" stroke-width="1.782" d="M164.168 187.818c2.351-4.628 7.871-15.209 12.043-17.918 4.172-2.709 9.911-3.127 13.664.236a30.775 30.775 0 0 0 2.915 2.737c3.589 2.436 8.153 0 12.344-.6 6.713-.973 16.597 9.136 18.747 16.145M144.392 89.113c1.284 5.681.446 11.572 0 17.363-.738 8.881-.601 17.817-.474 26.735l.802 55.152M80.69 187.509c.318-8.527 0-17.118 1.293-25.545 1.293-8.427 4.555-16.899 10.868-22.644 2.678-2.455 6.148-4.418 9.719-4.037a11.221 11.221 0 0 1 6.158 2.909c5.056 4.455 6.924 11.464 7.907 18.118a110.793 110.793 0 0 1 .292 30.417M196.771 89.058a293.859 293.859 0 0 0-48.499.173 9.799 9.799 0 0 1-4.172-.237 8.378 8.378 0 0 1-2.815-1.936c-12.525-11.763-22.081-26.699-37.43-35.144M96.722 77.831a7.545 7.545 0 0 0-.118 3.464 7.563 7.563 0 0 0 1.448 3.154 6.535 6.535 0 0 0 3.07 2.418 6.612 6.612 0 0 0 2.378.337 8.332 8.332 0 0 0 3.862-1.028 8.292 8.292 0 0 0 2.942-2.7 6.601 6.601 0 0 0-.246-7.263c-3.206-4.363-11.678-3.645-13.336 1.618ZM163.312 115.248l.592 44.616c4.655-.282 10.877-.291 15.55-.563.301-18.336-.054-37.063-.838-55.444l-7.451.128h-7.78c-.437 2.727-.118 8.936-.082 11.263h.009Z"/><path stroke="#A0A0A0" stroke-linecap="round" stroke-linejoin="round" stroke-width="1.782" d="M163.485 120.448c5.22-.7 10.476-1.055 15.732-1.055M163.959 140.074c4.855-.154 10.458-.336 15.267-.6"/><path stroke="#A0A0A0" stroke-linecap="round" stroke-linejoin="round" stroke-width="1.782" d="M171.192 104.003c1.066 7.4.155 14.899-.064 22.363-.164 5.399 0 10.817.246 16.226l.601 16.327M23.683 188.199c1.712-4.463 6.55-10.336 11.204-10.981 4.655-.636 9.383.1 14.083-.091 1.166 0 2.314-.191 3.416-.582 2.915-1.154 4.41-4.281 6.495-6.618a15.958 15.958 0 0 1 8.062-4.781"/><path fill="#2B2B2B" d="M260.465 79.558a29.532 29.532 0 0 1-6.632-13.7c-1.111-4.999-3.808-27.643-4.081-34.025-2.259.4-1.922.555-4.245.927-.856 4.146-2.806 27.917-2.988 35.653-.173 2.791 0 5.591.519 8.336a35.048 35.048 0 0 0 2.487 6.464c2.068 4.481 4.883 7.781 6.832 12.3"/><path stroke="#000" stroke-linecap="round" stroke-linejoin="round" stroke-width="1.782" d="M260.465 79.558a29.532 29.532 0 0 1-6.632-13.7c-1.111-4.999-3.808-27.643-4.081-34.025-2.259.4-1.922.555-4.245.927-.856 4.146-2.806 27.917-2.988 35.653-.173 2.791 0 5.591.519 8.336a35.048 35.048 0 0 0 2.487 6.464c2.068 4.481 4.883 7.781 6.832 12.3"/><path fill="#2B2B2B" d="M249.378 95.34a5.814 5.814 0 0 1-1.002 1.663l-1.302 2.1-2.633 4.182a45.009 45.009 0 0 1-1.212 1.845 51.127 51.127 0 0 0-11.732-7.563l-.183 1.027c-1.002 6.791.055 12.845-.473 20.499.173 2.3.364 4.609.555 6.918-10.594.546-23.11.909-33.714.391.601-7.754 1.813-15.245 1.112-23.008-.192-2.146.227-4.9-.265-6.973-.492-2.072-2.414-3.69-3.999-5.027a133.641 133.641 0 0 1-6.285-5.545 47.047 47.047 0 0 1-6.258-6.236 46.762 46.762 0 0 1-4.081-7.472 73.53 73.53 0 0 1-2.414-8.064c-.511-1.8-1.048-4.109-1.066-4.127.82-.373 2.286-1.1 3.097-1.49.811-.4 1.394-.555 2.113-.855a8.937 8.937 0 0 0 3.626-2.691l4.291 8.445c.419.946.974 1.836 1.639 2.627a11.153 11.153 0 0 0 2.824 2.046 162.431 162.431 0 0 0 18.647 9.054l-.656 3.545c-.1.327-.063.673.082.973.201.236.474.39.784.436 2.997.782 6.176.618 9.073-.482a1.335 1.335 0 0 1-.201-.482 1.432 1.432 0 0 1 0-.518 1.08 1.08 0 0 1 .219-.472c.1-.146.237-.264.383-.355a3.655 3.655 0 0 1 2.076-.409c4.255 0 8.654.346 12.435 2.29a31.063 31.063 0 0 1 7.807 6.473c1.111 1.21 2.232 2.318 3.343 3.482l1.694 1.8c.283.282.547.564.82.855.273.29.692.563.765.881a.937.937 0 0 1 .073.246l.018-.01Z"/><path stroke="#A0A0A0" stroke-linecap="round" stroke-linejoin="round" stroke-width="1.782" d="M1 188.572c10.285-1.2 313.675 0 324.187.337"/><path fill="#fff" d="M227.917 219.071c-.966.436-1.859 1.036-2.815 1.509-.939.527-1.995.8-3.07.782-.292 0-.574-.1-.811-.282-.301-.273-.118-.473-.1-.782v-4.663l-.109-6.327a1461.82 1461.82 0 0 0-.31-12.636c-.237-8.445-.538-16.881-.902-25.317-.373-8.445-.811-16.863-1.33-25.263-.264-4.382-.556-8.754-.856-13.127-.264 1.209-.547 2.291-.82 3.437-3.963 16.69-7.834 33.435-9.957 50.452-.51 4.109-.829 8.236-1.211 12.372-.173 2.082-.337 4.173-.547 6.246a41.815 41.815 0 0 1-.729 6.118c-.701 2.854-1.667 5.681-2.414 8.526a.91.91 0 0 1-.1.246.779.779 0 0 1-.337.191.725.725 0 0 1-.392 0l-4.153-.327a29.97 29.97 0 0 1-3.243-.346 1.706 1.706 0 0 1-.802-.291c-.446-.391-.337-.954-.337-1.472v-1.955c0-1.336.182-2.682.228-4v-.827c0-1.909-.064-3.818 0-5.727 0-4.554.182-9.1.391-13.663a395.31 395.31 0 0 1 2.196-27.254l.255-2.172c.082-.628.155-1.209.237-1.891 1.43-11.345 3.261-22.717 4.181-34.099v-.4c10.594.509 21.198.509 31.81 0 .146 1.737.292 3.473.41 5.209a285.38 285.38 0 0 1-.383 38.071c-.865 13.118-2.222 26.236-3.188 39.372-.137 1.745-.255 3.509-.373 5.254a39.38 39.38 0 0 1-.438 5.063l.019-.027Z"/><path fill="#FDFDFD" d="M182.688 55.932a67.77 67.77 0 0 1-7.105 3.727l-.183-.69c-1.976-7.573-4.399-14.991-7.032-22.373a16.685 16.685 0 0 0-.929-2.245 27.106 27.106 0 0 0-2.596-3.509c-.966-1.209-.556-3.145 1.339-2.809.71.164 1.366.518 1.894 1.027.52.51 1.094.955 1.713 1.337l.966-2.41c.583.155.728.9.747 1.51a12.898 12.898 0 0 0 .346 3.69c.401 1.21.902 2.41 1.394 3.619a155.786 155.786 0 0 0 9.018 18.308l.419.818h.009Z"/><path stroke="#000" stroke-linecap="round" stroke-linejoin="round" stroke-width="1.782" d="M171.429 45.596c-.902-3.518-1.859-6.936-2.924-10.081M208.258 75.968l-16.333-8.018a7.292 7.292 0 0 1-2.041-1.3 7.247 7.247 0 0 1-1.211-1.955c-4.828-9.826-12.352-21.399-17.144-31.226"/><path stroke="#2B2B2B" stroke-linecap="round" stroke-linejoin="round" stroke-width="1.782" d="M221.777 79.313a17.108 17.108 0 0 1 4.518.173c2.551.2 5.065.745 7.47 1.627a17.423 17.423 0 0 1 4.746 2.945c4.764 4.173 9.255 7.236 11.387 10.154"/><path stroke="#000" stroke-linecap="round" stroke-linejoin="round" stroke-width="2.213" d="M168.35 35.142c-1.03-1.21-2.068-2.41-3.216-3.618a23.196 23.196 0 0 0-1.211-1.118c-.183-.128-.31-.3-.383-.51-.064-.327.228-.617.519-.781a4.259 4.259 0 0 1 2.487-.582c.41 0 .82.091 1.212.245.309.155.601.346.865.564l.738.555c.209.19.437.363.692.509.292-.691.41-1.437.729-2.137.064-.136.146-.29.292-.327.145-.036.437.146.546.346a4.78 4.78 0 0 1 .228 2.763c0 .491-.1.991-.155 1.473"/><path fill="#fff" d="M230.294 222.034c2.004 1.837 4.518 3.091 6.377 5.064-.747.082-1.494.082-2.232 0-2.032 0-4.072.1-6.04 0a50.379 50.379 0 0 1-7.542-1.073l.237-4.627c0-.1 2.505-.764 2.751-.845.965-.337 1.913-.737 2.851-1.119.938-.381 1.139-.29 1.703.41a18.86 18.86 0 0 0 1.886 2.19h.009ZM200.597 226.298a46.658 46.658 0 0 1-6.376.145c-2.25-.109-4.491-.372-6.75-.372-1.986 0-3.99.209-5.967 0a15.478 15.478 0 0 1-1.922-.3c1.694-1.2 3.58-2.1 5.584-2.664a41.83 41.83 0 0 0 6.595-2.745 5.03 5.03 0 0 1 1.813-.737c.483-.018.975.037 1.439.173 1.121.218 2.259.355 3.398.409.729 0 2.287-.327 2.879.173.592.491.118 1.727 0 2.409-.292 1.154-.492 2.336-.674 3.518l-.019-.009Z"/><path stroke="#2B2B2B" stroke-linecap="round" stroke-linejoin="round" stroke-width="1.782" d="M198.429 126.711c-1.047 8.872-1.585 17.79-2.122 26.699l-3.999 66.788c-4.746 2.3-9.538 3.5-14.284 5.791 7.616-.264 15.249.582 22.865.309 0-3.618 1.211-7.009 2.159-10.454 1.858-7.127 2.332-14.472 2.997-21.854a368.846 368.846 0 0 1 10.876-61.025c-1.011 31.172 5.32 62.253 3.963 93.415 5.302 1.436 10.722 1.009 16.351 1.082a38.29 38.29 0 0 1-8.353-7.055 4.324 4.324 0 0 1-.783-1.118 4.314 4.314 0 0 1-.146-2.154c2.933-30.217 6.122-60.607 3.826-90.878"/><path stroke="#2B2B2B" stroke-linecap="round" stroke-linejoin="round" stroke-width="2.213" d="M227.871 218.953a31.529 31.529 0 0 1-6.45 2.409M192.253 219.262a9.949 9.949 0 0 0 1.785.691c.93.264 1.886.436 2.852.509a22.942 22.942 0 0 1 4.655.345"/><path stroke="#2B2B2B" stroke-linecap="round" stroke-linejoin="round" stroke-width="1.782" d="M232.28 96.13c4.527 2.946 6.75 4.655 11.287 7.6"/><path stroke="#000" stroke-linecap="round" stroke-linejoin="round" stroke-width="1.782" d="M174.89 60.005c2.888-1.3 5.703-2.71 8.463-4.21"/><path fill="#fff" stroke="#000" stroke-linecap="round" stroke-linejoin="round" stroke-width="1.961" d="M223.38 63.759c-1.23-3.563-1.348-7.272-6.213-9.454-.956-.427-3.571-.427-4.618-.337-1.321.219-2.56.8-3.58 1.664a7.39 7.39 0 0 0-2.214 3.264c-.829 2.554-.218 6.117.228 8.763a46.166 46.166 0 0 0 1.02 5.763l.929.173-.783-.082c-.556 3.091-.647 4.236-1.02 7.418a.982.982 0 0 0 0 .464.967.967 0 0 0 .592.49c3.634 1.555 7.816.564 11.56-.718.328-.109.692-.263.801-.59.046-.191.046-.4 0-.591-.51-2.737-.747-2.682-1.439-5.373 1.658-.273 3.207-.918 4.254-2.209 1.767-2.163 1.458-5.781.465-8.645h.018Z"/><path stroke="#A0A0A0" stroke-linecap="round" stroke-linejoin="round" stroke-width="1.782" d="M275.349 227.143c8.827-.136 27.037-.199 35.791-.299"/><path fill="#FDFDFD" d="M259.936 173.191a67.579 67.579 0 0 0-1.139 11.718 301.757 301.757 0 0 0 .328 25.98c.046.382 0 .764-.136 1.119-.137.218-.31.418-.51.581l-1.877 1.709c-.628-1.209-2.414-1.318-3.38-2.318a4.471 4.471 0 0 1-.956-2.281c-3.07-14.209-5.466-28.663-5.01-43.18 0-.073 8.563-.437 9.337-.482 1.102 0 2.496-.364 3.471.309.328.273.583.618.747 1.009.164.391.218.818.173 1.245a27.962 27.962 0 0 1-1.048 4.573v.018Z"/><path fill="#fff" d="M259.044 228.253c-.902.299-1.832.499-2.779.59a.45.45 0 0 1-.31 0 .346.346 0 0 1-.072-.154.35.35 0 0 1 0-.173 13.162 13.162 0 0 0-.474-3.618 121.508 121.508 0 0 1-2.651 3.055 2.956 2.956 0 0 1-.629.59 2.747 2.747 0 0 1-.765.3 17.41 17.41 0 0 1-9.765-.072c3.735-2.591 8.08-4.355 11.432-7.455a2.2 2.2 0 0 0 .583-.745c.1-.327.119-.673.064-1.018a153.574 153.574 0 0 0-1.111-9.054l4.582 3.618c.565-.782 1.202-1.5 1.895-2.173.255.182.182 1.209.209 1.455 0 .545.082 1.072.109 1.618.064 1.081.11 2.154.119 3.245 0 2.118 0 4.254-.137 6.382a74.236 74.236 0 0 1-.3 3.609Z"/><path stroke="#2B2B2B" stroke-linecap="round" stroke-linejoin="round" stroke-width="1.782" d="M247.074 167.719c.218 17.299 3.99 34.326 6.595 51.434.1.4.1.809 0 1.209a2.5 2.5 0 0 1-.802.964c-3.37 2.918-8.034 4.681-11.405 7.599 3.343 0 6.04.419 8.563.173a4.498 4.498 0 0 0 1.713-.509 6.034 6.034 0 0 0 1.211-1.045l2.77-2.773.118 4.164 2.961-.446a66.597 66.597 0 0 0 .482-15.299l-.819-17.981c-.11-2.573-.228-5.146-.119-7.718.082-1.982.301-3.964.547-5.936a226.91 226.91 0 0 1 2.195-14.227"/><path fill="#FDFDFD" d="m287.201 177.745-.829.546a96.101 96.101 0 0 1-9.374 5.563 9.614 9.614 0 0 1-2.414.927c-.865.2-1.776.082-2.56-.327a4.525 4.525 0 0 1-1.475-1.545 18.068 18.068 0 0 1-1.786-4.473c-.765-2.509-1.375-5.063-2.159-7.563-.956-3-2.414-5.9-2.651-9.045 1.494.136 3.007.027 4.455-.337a37.285 37.285 0 0 1 4.919-.49h2.587a6.574 6.574 0 0 1 1.84.172.39.39 0 0 1 0 .209c.164 2.546.246 5.1.255 7.646a8.183 8.183 0 0 0 .21 2.254.763.763 0 0 0 .137.345c.072.1.173.191.282.246a.88.88 0 0 0 .483 0 18.697 18.697 0 0 0 4.208-2.146 210.864 210.864 0 0 1 4.637-2.59 184.3 184.3 0 0 1 4.6-2.409l2.414-1.209c.301-.146 2.041-1.209 2.296-1.109L300.3 164s-.856 3.873-.902 4.246c.019.482-.072.972-.282 1.409a2.92 2.92 0 0 1-.92 1.1c-1.285.881-2.614 1.691-3.917 2.536l-7.06 4.473-.018-.019Z"/><path fill="#fff" d="M306.531 166.046a6.846 6.846 0 0 1 1.84-.618 5.497 5.497 0 0 1 1.64 0c2.414.336 4.7 1.336 7.114 1.636.146-.346-.145-.727-.419-.991-2.414-2.336-5.675-3.618-8.818-4.827a12.906 12.906 0 0 0 3.043-3.618 2.782 2.782 0 0 0-1.084-.227c-.374 0-.747.072-1.084.227-4.145 1.209-7.816 3.7-11.952 4.991l3.025 1.372a.49.49 0 0 1 .209.146.491.491 0 0 1 .037.2c0 .072-.01.136-.037.2a13.604 13.604 0 0 0-.556 2.618c-.054.436-.091.882-.1 1.327 0 .273-.136 1.045.073 1.209.21.155 1.74-.845 2.086-1.045a67.34 67.34 0 0 1 2.332-1.355c.784-.436 1.767-.827 2.66-1.254l-.009.009Z"/><path stroke="#2B2B2B" stroke-linecap="round" stroke-linejoin="round" stroke-width="1.782" d="m298.825 169.909.938-5.145a.805.805 0 0 0 .064-.291c0-.1-.019-.2-.064-.291a.688.688 0 0 0-.41-.263 26.74 26.74 0 0 0-3.744-1"/><path stroke="#2B2B2B" stroke-linecap="round" stroke-linejoin="round" stroke-width="1.782" d="M263.935 163.064a116.974 116.974 0 0 0 5.839 18.163 6.879 6.879 0 0 0 2.114 3.182 4.758 4.758 0 0 0 2.031.672 4.809 4.809 0 0 0 2.123-.263 14.546 14.546 0 0 0 3.771-2.082 376.803 376.803 0 0 1 26.144-16.518 5.893 5.893 0 0 1 2.159-.881 5.77 5.77 0 0 1 2.086.227l6.841 1.618c.41-.7-.291-1.518-.956-2a24.435 24.435 0 0 0-8.062-3.809l3.152-3.018a1.348 1.348 0 0 0-.528-.718 1.36 1.36 0 0 0-.848-.264 4.24 4.24 0 0 0-1.767.455 267.037 267.037 0 0 0-29.733 14.472c-.082-4.254-.51-5.254-.592-10.263"/><path fill="#2B2B2B" d="M266.504 167.564a89.47 89.47 0 0 0 15.286-.655 221.112 221.112 0 0 0 .993-40.034c.902.045 1.867-39.28.783-39.635l-10.877-4.09c-3.033-1.21-6.613-2-9.783-.664-4.509 1.881-7.852 6.917-11.059 10.408a35.706 35.706 0 0 0-6.395 8.527c-3.197 6.764-1.867 14.672-.965 22.099a170.431 170.431 0 0 1 1.293 22.499c0 3.782-.1 7.618-.483 11.382-.082.882-1.74 9.754-1.111 9.836 3.626.527 7.552.145 11.177.209l11.141.109v.009Z"/><path stroke="#2B2B2B" stroke-linecap="round" stroke-linejoin="round" stroke-width="2.213" d="m252.731 210.926 3.753 3.036a.403.403 0 0 0 .228.119.349.349 0 0 0 .164-.046.405.405 0 0 0 .136-.109 9.588 9.588 0 0 1 1.95-1.882c.072 0 .154-.109.136-.182-.027-.072-.173 0-.082 0"/><path fill="#D92228" stroke="#000" stroke-width="1.782" d="M254.48 13.897h-.009c-.738.4-1.449.855-2.123 1.355a3.822 3.822 0 0 0-1.294 1.318l-.027.055-.018.054a4.642 4.642 0 0 0-.264 1.836 19.227 19.227 0 0 1-.775 5.127v.037c-.1.436-.3.845-.573 1.2-.283.263-.62.482-.975.627l-.037.018-.027.018-1.439.782-.729.4h-.027l-.018.027a8.102 8.102 0 0 1-4.865 1.337l-.392-.091-.236-.073a16.494 16.494 0 0 1-3.253-2.227l-.036-.027-.036-.028c-.583-.39-1.258-.727-1.886-1.036-.264-.136-.528-.264-.765-.39-.829-.437-1.522-.9-2.004-1.555a6.966 6.966 0 0 1-.884-4.118v-.055c0-2.063.073-4.109.2-6.154v-.037c0-.536.101-1.054.31-1.545a3.977 3.977 0 0 1 1.458-1.4h.018l.018-.018a28.297 28.297 0 0 1 4.901-2.51h.018l.018-.017a6.37 6.37 0 0 1 3.143-.591c1.23.3 2.36.909 3.28 1.782l.018.018.027.018 1.74 1.373c.31.281.701.472 1.121.536h.145c.346-.027.674-.145.966-.327l3.133-1.727h.019l.018-.028a4.21 4.21 0 0 1 1.685-.654c.401-.037.811.045 1.312.145l.264.055c.592.109 1.321.227 2.059-.028.61-.209 1.047-.618 1.385-1.027.173-.2.327-.418.473-.618l.055-.082c.127-.172.246-.336.373-.5.292-.363.611-.7.929-.909.319-.209.593-.273.839-.209.063.018.154.046.273.11.054.026.109.063.182.1h.018c.073.045.146.09.228.126.328.164.802.355 1.376.219.628-.146.965-.628 1.166-1.018.1-.2.191-.41.255-.582V2.96c.082-.172.136-.327.209-.454.091-.182.21-.346.346-.491a3.217 3.217 0 0 1 2.004-1 9.901 9.901 0 0 1 3.307.373h.037c.346.082.865.209 1.229.418.182.1.246.182.264.209 0 .01 0 .027-.018.055a3.066 3.066 0 0 1-1.284 1.327l-.064.036-16.297 7.682.492 1.181c1.585-.563 3.343-1.372 5.065-2.181.355-.164.711-.337 1.066-.5a108.353 108.353 0 0 1 3.871-1.773h.009a72.131 72.131 0 0 0 6.322-3.2c.037.018.073.037.101.055a.453.453 0 0 1 .072.182c0 .081 0 .154-.045.227a1.369 1.369 0 0 1-.292.318 29.5 29.5 0 0 1-6.249 3.618h-.018l-.018.018c-2.287 1.136-4.573 2.21-6.978 3.173-.282.118-.574.236-.874.354-1.002.41-2.05.828-3.007 1.319l.019-.01Zm-17.6 8.518h.009a3.776 3.776 0 0 0 2.697-.609l.018-.018.018-.018c.51-.41.902-.955 1.13-1.573.127-.318.191-.673.173-1.018v-.073a3.014 3.014 0 0 0-.456-1.2v-.018l-.291-.418a4.556 4.556 0 0 0-1.859-1.536 3.015 3.015 0 0 0-1.575-.237 3.003 3.003 0 0 0-1.476.591l-.028.018-.018.019a3.475 3.475 0 0 0-1.056 1.827 3.627 3.627 0 0 0-.137.99v.046c.045.782.355 1.527.884 2.11a3.528 3.528 0 0 0 2.004 1.108l-.037.01Z"/><path fill="#fff" d="m249.378 31.097.82-2.082c.419-.846.592-1.8.483-2.736 0-.228-.191-.491-.419-.482a.455.455 0 0 0-.209.082.685.685 0 0 0-.164.163c-.474.591-.802 1.282-1.212 1.873-.21-.191-.392-.41-.528-.655l-.583-.745a4.231 4.231 0 0 0-.693-.764 2.845 2.845 0 0 0-1.047-.527 4.32 4.32 0 0 0-2.56-.1c-.328.1-.674.3-.701.627.018.218.1.428.246.591a39.15 39.15 0 0 1 2.951 5.682"/><path stroke="#000" stroke-linecap="round" stroke-linejoin="round" stroke-width="2.213" d="m249.378 31.097.82-2.082c.419-.846.592-1.8.483-2.736 0-.228-.191-.491-.419-.482a.455.455 0 0 0-.209.082.685.685 0 0 0-.164.163c-.474.591-.802 1.282-1.212 1.873-.21-.191-.392-.41-.528-.655l-.583-.745a4.231 4.231 0 0 0-.693-.764 2.845 2.845 0 0 0-1.047-.527 4.32 4.32 0 0 0-2.56-.1c-.328.1-.674.3-.701.627.018.218.1.428.246.591a39.15 39.15 0 0 1 2.951 5.682"/><path fill="#2B2B2B" d="M282.464 104.848c4.026 3.237 4.91 35.353 6.349 41.571 2.15-.8 3.252-.118 5.466-.909.091-4.236 3.644-18.181 2.733-29.089-.866-10.327-6.523-25.981-10.932-28.181-3.644-1.818-14.575-6.364-14.575-6.364"/><path stroke="#000" stroke-linecap="round" stroke-width="1.782" d="M282.464 104.848c4.026 3.237 4.91 35.353 6.349 41.571 2.15-.8 3.252-.118 5.466-.909.091-4.236 3.644-18.181 2.733-29.089-.866-10.327-6.523-25.981-10.932-28.181-3.644-1.818-14.575-6.364-14.575-6.364"/><path fill="#fff" d="m289.423 148.674-.428 2.2a4.976 4.976 0 0 0 .019 2.782c.045.227.282.454.501.4a.542.542 0 0 0 .318-.309c.356-.664.556-1.4.848-2.055.236.146.455.327.637.546l.711.627c.246.236.519.445.811.618.355.182.737.291 1.129.327.866.137 1.749 0 2.533-.372.3-.155.61-.419.573-.746a.998.998 0 0 0-.346-.536 38.444 38.444 0 0 1-3.935-5.055"/><path stroke="#000" stroke-linecap="round" stroke-linejoin="round" stroke-width="1.782" d="m289.423 148.674-.428 2.2a4.976 4.976 0 0 0 .019 2.782c.045.227.282.454.501.4a.542.542 0 0 0 .318-.309c.356-.664.556-1.4.848-2.055.236.146.455.327.637.546l.711.627c.246.236.519.445.811.618.355.182.737.291 1.129.327.866.137 1.749 0 2.533-.372.3-.155.61-.419.573-.746a.998.998 0 0 0-.346-.536 38.444 38.444 0 0 1-3.935-5.055M257.686 86.022c-6.203 5.281-13.291 15.117-14.065 20.499-.656 4.536.082 9.136.656 13.699a180.217 180.217 0 0 1-.373 47.026c12.689.372 25.369-.546 38.041-1.455-.975-7.236.829-57.607.491-61.179"/><path stroke="#000" stroke-linecap="round" stroke-linejoin="round" stroke-width="1.431" d="m217.031 63.94.136.019M222.26 62.568l.135.018M213.514 63.214c.529-.2.948-.591 1.431-.882 1.257-.746 2.96-.673 4.144.19"/><path stroke="#000" stroke-linecap="round" stroke-linejoin="round" stroke-width="1.431" d="M218.962 62.414a5.197 5.197 0 0 0 2.696 3.381c.21.11.474.273.419.51-.027.108-.127.19-.218.263-.592.436-1.221.818-1.886 1.136"/><path stroke="#000" stroke-linecap="round" stroke-miterlimit="10" stroke-width=".99" d="M218.242 69.486a3.08 3.08 0 0 0 2.806.355"/><path stroke="#000" stroke-linecap="round" stroke-linejoin="round" stroke-width="1.431" d="M220.866 61.114c.182-.491.646-.864 1.166-.936"/><path stroke="#000" stroke-linecap="round" stroke-linejoin="round" stroke-width="1.782" d="M171.429 45.605c1.211 4.5 2.232 9.173 3.343 13.7 0 .218.109.436.173.654.856 3.41 1.731 6.727 2.687 9.8a28.316 28.316 0 0 0 3.507 8.009 20.13 20.13 0 0 0 1.786 2.145c.838.882 1.731 1.709 2.623 2.536l13.364 12.309v-.282l.583.8-.556-.518c.073.918.146 1.882.21 2.845.209 3.273.246 6.564.109 9.836-.337 6.336-.683 12.654-1.029 18.963l1.876.073c10.476.336 20.943.272 31.419-.209a379.658 379.658 0 0 1-.146-7.236c-.073-6.836.082-13.682.474-20.5l.145-2.409s.082.019.046.046c1.038.454 1.849 1.064 2.696 1.818a47.173 47.173 0 0 0 8.518 6M220.301 79.095c5.666-.764 11.596.618 16.342 3.79.866.582 1.704 1.219 2.533 1.855 1.129.864 2.259 1.737 3.388 2.6 1.203.927 2.405 1.855 3.535 2.864a30.07 30.07 0 0 1 3.562 3.809"/><path fill="#fff" stroke="#000" stroke-width="1.557" d="M208.559 64.732c-.337.745-.1 1.836.237 2.581.209.464.929.728 1.439.864.237.064.31.354.137.527-.811.773-1.986 1.737-2.815 2.373a.407.407 0 0 1-.62-.155c-.583-1.29-2.186-5.036-2.514-8.008-.146-1.3-.282-2.61-.091-3.9.392-2.518 2.095-4.736 4.3-6.027 2.204-1.291 8.08-1.7 10.621-1.464 2.287.21 4.819 1.21 5.539 3.382.118.345.173.727.064 1.072-.255.782-1.212 1.037-2.023 1.173-1.576.264-6.385.527-7.961.791-1.813.3-6.268-.49-5.63 2.536.073.355.692 2.318.966 3.164a.459.459 0 0 1-.246.554c-.428.191-1.185.037-1.412.537h.009Z"/><path fill="#2B2B2B" d="M208.778 64.56c-.301.654-.092 1.617.209 2.272.182.409.82.645 1.266.763.21.055.274.319.119.464-.711.682-1.749 1.536-2.478 2.09a.36.36 0 0 1-.547-.136c-.51-1.136-1.931-4.436-2.213-7.045-.128-1.145-.255-2.3-.073-3.436.337-2.218 1.849-4.173 3.789-5.3 1.941-1.127 8.682-1.554 10.923-1.345 2.013.182 4.245 1.063 4.873 2.972.1.3.155.637.055.946-.219.69-1.066.909-1.776 1.036-1.385.236-7.188.518-8.572.755-1.595.263-5.521-.428-4.956 2.227.064.309.61 2.036.847 2.79.064.2-.027.4-.218.492-.374.172-1.048.036-1.248.472v-.018Z"/><path stroke="#000" stroke-width="1.557" d="M208.559 64.704c-.337.746-.1 1.837.237 2.582.209.464.929.727 1.439.864.237.063.31.354.137.527-.811.773-1.986 1.736-2.815 2.373a.407.407 0 0 1-.62-.155c-.583-1.29-2.186-5.036-2.514-8.009-.146-1.3-.282-2.609-.091-3.9.392-2.518 2.095-4.736 4.3-6.027 2.204-1.29 8.08-1.7 10.621-1.463 2.287.209 4.819 1.209 5.539 3.381.118.346.173.728.064 1.073-.255.782-1.212 1.036-2.023 1.173-1.576.264-6.385.527-7.961.79-1.813.3-6.268-.49-5.63 2.537.073.354.692 2.318.966 3.163a.459.459 0 0 1-.246.555c-.428.19-1.185.036-1.412.536h.009Z"/><path fill="#fff" d="M271.204 72.259c0 2.727 0 6.363.72 8.672.173.337.219.718.128 1.082a1.372 1.372 0 0 1-.574.627c-4.418 3.273-9.283 1.246-13.938 4.164 1.822-3.637 2.733-6.364 2.861-11.29"/><path stroke="#000" stroke-linecap="round" stroke-linejoin="round" stroke-width="1.782" d="M271.204 72.259c0 2.727 0 6.363.72 8.672.173.337.219.718.128 1.082a1.372 1.372 0 0 1-.574.627c-4.418 3.273-9.283 1.246-13.938 4.164 1.822-3.637 2.733-6.364 2.861-11.29"/><path stroke="#000" stroke-linecap="round" stroke-linejoin="round" stroke-width="1.782" d="m264.518 74.54-2.423.31c-1.02.181-2.05.209-3.079.1a3.776 3.776 0 0 1-1.457-.482 3.696 3.696 0 0 1-1.13-1.028 3.766 3.766 0 0 1-.519-1.954c0-.336.073-1.727.109-2.1.301-2.627.993-4.872 1.166-5.572.219-.81.474-1.6.774-2.382.292-.655.638-1.282 1.03-1.882.911-1.427 4.017-4.554 8.554-4.154 1.129.1 2.204.527 3.115 1.2a6.26 6.26 0 0 1 2.05 2.627 11.394 11.394 0 0 1 .51 6.636c-.392 2.218-1.166 4.345-1.74 6.527"/><path stroke="#000" stroke-linecap="round" stroke-linejoin="round" stroke-width="1.26" d="M265.028 64.468c-.883-1.055-2.386-1.545-3.725-1.218-.21 1.345-1.185 2.518-2.287 3.436-.41.336-.273.982.228 1.145.501.164 1.057.219 1.558 0M263.006 65.623l.164.163M258.442 64.495l.164.164M258.196 70.213c0 .4.301.755.656.946.355.19.765.245 1.175.282.601.054 1.23.063 1.777-.191M259.116 62.65a3.508 3.508 0 0 0-1.257-.318"/><path fill="#D92228" stroke="#000" stroke-miterlimit="10" stroke-width="1.782" d="M265.502 62.614c.811 1.745 3.225 3.836 4.919 4.754.51.282-.829 4.627 2.022 3.482 4.027-1.61 3.963-6.3 3.963-8.145 0-2.7-1.749-4.246-2.15-4.682-1.366-1.482-5.593-2.482-7.588-2.155-3.298.555-2.059 4.827-1.166 6.745Z"/><path fill="#D92228" d="M278.091 48.523c.738.955.738 2.182.592 3.318-.063.51-.164 1.028-.428 1.491-.319.573-.856 1.036-1.457 1.41-2.159 1.336-5.366 1.454-7.488.09-2.123-1.363-2.205-3.945-1.139-6.009 1.385-2.681 6.869-4.218 9.92-.3Z"/><path stroke="#000" stroke-miterlimit="10" stroke-width="1.944" d="M280.032 47.196c.874 1.127.874 2.582.701 3.927-.082.61-.2 1.218-.51 1.773-.374.672-1.011 1.227-1.722 1.663-2.55 1.582-6.349 1.727-8.863.1-2.514-1.627-2.606-4.663-1.348-7.108 1.639-3.173 8.125-4.991 11.742-.355Z"/><path fill="#D92228" stroke="#000" stroke-miterlimit="10" stroke-width="1.782" d="M258.014 61.35c-.865-.1-1.813-1.382-1.312-2.927.474-1.455 3.562-3.182 5.83-3.618 2.997-.582 4.837.345 5.967.545-4.956.246-8.754 2.482-10.485 6Z"/></g><defs><clipPath id="a"><path fill="#fff" d="M0 0h326.187v286.506H0z"/></clipPath></defs></svg>