<svg xmlns="http://www.w3.org/2000/svg" aria-label="houselogic logo" data-testid="logo-house-logic" viewBox="0 0 1430 492"><path fill="#81d2e4" d="M0 236.89C86.59 162.36 173.09 87.71 259.81 13.34c65.58 45.46 131.18 90.9 196.64 136.53-53.75 48.49-107.62 96.86-161.41 145.31-2.65 2.24-5 4.86-7.93 6.78a91 91 0 0 1 .07 1.65l-.18.05c-8.51-5.52-17.43-10.41-26.1-15.68-9.87 3.75-19.71 7.58-29.57 11.35-2.23.87-4.61 1.5-6.53 2.99l-.18-.49-2.5.87 1.26-1.37c-56.6-36.39-112.83-73.37-169.5-109.65-.18 25.11.03 50.21-.1 75.32-.03 1.74.19 3.46.54 5.18-1.22-.59-2.46-1.12-3.59-1.88-16.85-11.15-33.81-22.16-50.66-33.31l-.07.95v-1.05Z"/><g fill="#666"><path d="M521.16 117.27c2.69-1.37 5.75-1.14 8.68-1.1.16 24.62 0 49.24.08 73.86 12.7-9.77 29.23-13.94 45.08-12.18 7.44.24 15.61 2.64 19.99 9.11 5.29 7.91 6.29 17.76 7 27.01 1.25 13.31.78 26.69.87 40.03-.06 21.97.12 43.94-.09 65.9-2.25 2.47-6.56 1.15-9.64 1.42.02-29.12.01-58.25 0-87.37-.03-11.35 0-22.91-3.05-33.92-1.52-5.85-6.03-11.11-12.19-12.16-16.78-3.36-35.41 1.13-47.91 13.12-.21 39.35.04 78.71-.12 118.06.25 1.65-1.58 2.19-2.85 2.14-2.28.24-4.58.32-6.85.07.08-66.79-.01-133.57.05-200.36-.08-1.29.49-2.46.95-3.63Zm537.9.77c2.27-1.75 5.39-.78 8.05-1.03.03 52.01 0 104.02.01 156.03.1 10.17-.62 20.86 3.42 30.44 1.69 4.23 5.7 7.42 10.39 7.15 6.07-1.02 4.96 8.59.05 9.13a19.2 19.2 0 0 1-17.11-8.65c-3.98-6.26-5.47-13.8-5.84-21.1-.59-29.66-.11-59.33-.27-89 .01-25.97-.02-51.94.02-77.91.24-1.68-.35-3.94 1.28-5.06Zm264.27 5.23a7.32 7.32 0 0 1 6.41-.07c2.54 1.7 2.72 5.05 2.83 7.82-.18 3.04-.12 6.74-2.76 8.79-3.18 2.51-8.67 1.01-9.41-3.19-.72-4.45-.9-10.22 2.93-13.35Zm-190.81 54.41c10.66-1.58 22.48-1.16 31.75 5 8.08 5.28 12.7 14.34 15.4 23.34a120.03 120.03 0 0 1 4.43 29.05c1.12 14.13.62 28.41-1.65 42.4-2.42 13.09-6.9 26.68-16.97 35.94-7.07 6.67-16.98 9.57-26.56 9.31-8.38-.4-17.28-1.3-24.26-6.42-9.03-6.38-12.98-17.43-15.26-27.8-2.97-14.97-3.5-30.31-3.15-45.53.72-13.4 2.11-27.04 7.27-39.56 4.79-12.54 15.37-23.48 29-25.73m2.63 8.62c-9.6 1.65-17.33 8.85-21.33 17.5-6.46 13.72-7.88 29.2-8.03 44.18-.16 14.68.1 29.64 4.45 43.79 2.38 7.6 6.77 15.18 14.11 18.89 6.96 3.34 15.16 3.88 22.63 2.07 8.57-2.22 15.2-9.01 19.14-16.72 6.85-13.23 8.12-28.38 8.87-43.01.14-11.36-.51-22.75-2.19-33.98-1.83-9.87-4.64-20.5-12.51-27.34-6.83-5.93-16.56-6.64-25.14-5.38Zm98.81-6.49c8.92-3.64 18.84-3.36 28.16-1.72 11.62.1 23.24.05 34.87.02 1.23 2.29 1.66 5.63-.32 7.63-2.57 1.79-5.85.96-8.75 1.04-4.3.1-8.56-1.25-12.83-.56 8.06 4.17 13.49 12.22 15.98 20.78 2.52 7.77 2.18 16.03 1.85 24.08-1.14 12.03-4.84 24.47-13.47 33.3-5.84 6.22-13.94 9.95-22.29 11.29a77.22 77.22 0 0 1-26.78-1.59c-5.59 4.05-10.78 9.04-13.87 15.28-.65 1.84-1.96 4.53 0 6.01 2.43 1.96 5.53 2.75 8.47 3.67 12.48 3.36 25.36 4.76 38.14 6.42 8.8 1.3 17.96 2.98 25.39 8.2 6.54 4.46 9.97 12.58 9.57 20.38.45 8.51-3.36 16.79-9.11 22.91-6.45 6.94-15.26 11.27-24.35 13.58a87.16 87.16 0 0 1-33.63 1.39c-7.83-1.1-15.84-3.68-21.7-9.2-6.36-6.04-8.59-15.37-7.83-23.87 1.81-13.4 12.36-23.29 22.76-30.83-6.29-2.25-13.84-3.58-17.94-9.4-1.11-3.32-.16-6.98 1.34-10.03 3.5-7.36 9.53-13.08 15.65-18.29-10.56-6.26-15.48-18.55-16.86-30.24-.99-11.08-1.25-22.59 2.48-33.24 3.92-12.06 13.08-22.53 25.07-27.01m11.43 5.77a32.16 32.16 0 0 0-22.7 14.22c-5.82 8.53-7.53 19.09-7.7 29.21.55 9.53 1.26 19.84 7.26 27.73 5.06 6.79 13.56 10.09 21.81 10.6 7.3.88 15.07-.03 21.41-3.99 8.05-4.92 13.12-13.53 15.74-22.41 3.4-11.89 3.92-24.93-.41-36.65-2.98-8.04-9.6-14.64-17.83-17.18-5.66-1.67-11.73-2.63-17.58-1.53m-33.91 149.98c-1.58 6.69-.52 14.46 4.26 19.68 4.47 4.69 10.97 6.6 17.19 7.64 12.88 1.56 26.51 1.06 38.48-4.44 7.4-3.43 14.2-9.43 16.47-17.5 1.89-6.59.85-14.58-4.34-19.43-5.21-4.69-12.38-6.08-19.08-7.15-10.16-1.25-20.42-2.1-30.41-4.41-9.63 6.18-18.95 14.41-22.57 25.61Zm169.48-152.7c9.54-5.83 21.21-6.6 32.08-5.52 6.05 1.31 12.81 2.88 16.96 7.85v2.42a30.1 30.1 0 0 1-2.03 5.64c-4.46-3.34-9.35-6.47-15.01-7.16-8.21-.74-16.88-.26-24.28 3.72-7.34 3.8-12.44 10.81-15.57 18.3-3.97 9.48-5.71 19.75-6.42 29.95-1.37 13.46-.76 27.05.63 40.48 1.32 9.15 3.06 18.79 8.83 26.29 3.87 5.17 10.08 8 16.36 8.85 8.22.92 16.94 1.13 24.57-2.55 4.13-1.76 7.83-4.34 11.39-7.05l1.53 3.51v4.27c-5.63 6.72-14.55 9.65-22.94 10.99-9.6.32-19.73.79-28.67-3.34-6.18-2.77-10.86-8.11-13.74-14.14-5.05-10.35-6.35-21.96-7.46-33.27-.92-21.53-1.47-43.72 5.47-64.42 3.35-9.85 9.2-19.34 18.3-24.82Zm-722.44-4.24c10.65-2.07 22.42-1.59 32.05 3.87 9.79 5.64 15.03 16.48 17.81 27.03 3.88 15.15 4.45 30.91 4.38 46.48-.66 16.94-2.54 34.58-11.05 49.6-5.5 9.9-15.23 17.77-26.63 19.38-6.62 1.25-13.38.47-19.99-.4-8.28-1.42-16.1-5.93-20.77-13.01-6.8-10.16-8.89-22.58-10.24-34.5-1.3-11.98-1.2-24.06-.92-36.09 1.1-15.08 3.18-30.69 10.94-43.97 5.22-9.09 14.07-16.19 24.42-18.39m1.96 8.97c-10.82 2.59-18.21 12.19-21.78 22.24-6.96 19.24-6.29 40.06-5.69 60.2 1.26 12.34 2.58 25.51 9.94 35.96 4.89 7.08 13.66 10.56 22.09 10.43 9.57.78 19.18-3.8 24.83-11.52 8.28-11 11.06-25.03 12.27-38.45 1.55-15.14.75-30.44-1.31-45.48-1.77-9.95-4.49-20.59-12.09-27.78-7.47-6.98-18.73-7.64-28.26-5.6Zm188.07.98c9.6-8.61 23.09-10.57 35.5-11.08 11.43-.08 23.23 1.58 33.38 7.16 2.12 1.34 4.67 2.7 5.54 5.23a17.25 17.25 0 0 1-3.04 6.71c-8.33-5.43-17.86-9.46-27.91-9.79-10.74-.57-22.07.15-31.69 5.41-5.37 2.88-9.96 8.39-9.54 14.8-.3 5.09 2.15 9.9 5.46 13.62 3.83 4.29 8.73 7.41 13.34 10.77 11.04 7.97 22.16 15.81 33.15 23.85 9.05 6.79 17.32 16.06 18.98 27.66.92 9.52-.63 19.71-6.18 27.7-5.03 7.13-13.13 11.55-21.53 13.41-12.72 2.9-26.03 2.26-38.73-.4-4.87-1.23-10.02-2.6-13.9-5.96-2.14-2.96.52-6.55 2.62-8.75 11.71 7.86 26.43 8.06 40.01 7.21 9.22-.87 19.32-4.28 24.29-12.68 4.83-8.65 5.46-20.17-.16-28.62-5.15-8.14-13.39-13.47-21.06-18.97-10.25-7.4-20.61-14.64-30.77-22.14-7.12-5.42-14.33-12.42-15.39-21.78-1.43-8.41 1.08-17.65 7.63-23.36Zm128.93-10.03c9.64-1.38 19.98-2.06 29.12 1.99 7.41 3.22 12.85 9.92 15.6 17.41 4.52 12.16 3.89 25.35 3.39 38.09-.6 5.93-.58 11.93-1.73 17.8-24.15 4.66-48.88 5.4-73.43 5.14.21 13.6.45 27.73 6.01 40.4 3.1 7.3 9.43 13.25 17.23 15.13 12.32 2.82 25.37 1.65 37.34-2.19 4.54-1.33 8.4-4.16 12.56-6.24.5 3.14 1.58 6.3 1.14 9.51-1.53 1.99-3.96 2.92-6.13 3.98-9.66 4.09-20.18 5.76-30.6 6.09-9.63-.17-19.88-.95-28.08-6.54-8.14-5.44-12.75-14.66-15.22-23.87-4.54-16.71-3.79-34.16-3.51-51.29 1.28-16.44 3.16-33.59 11.68-48.08 5.2-9.01 14.33-15.6 24.63-17.33m-6.49 12.38c-7.38 4.52-11.79 12.47-14.54 20.44-4.21 12.47-5.46 25.69-5.97 38.77 21.64.07 43.51.28 64.79-4.07 1-3.95.72-8.07 1-12.1.42-11.72.57-24.02-4.16-34.98a20.01 20.01 0 0 0-17.24-12.17c-8.09-.51-16.77-.28-23.88 4.11Zm350.5-8.4c2.53-2.25 6.13-1.37 9.21-1.41-.03 43.29-.01 86.59-.01 129.88-.11 2.32.39 4.81-.71 6.97-3.1.64-6.31.87-9.45.46.07-43.82.02-87.63.03-131.45.08-1.5.02-3.17.93-4.45Zm-586.33-.22c3.01-.61 6.09-.59 9.16-.52.04 28.75.01 57.5.02 86.24-.07 7.71.22 15.41.74 23.09.95 7.03 2.29 14.81 7.87 19.76 5.74 5 13.77 5.43 21.02 5.59 11.98-.01 24.47-1.55 35.05-7.54.04-42.24-.2-84.49.12-126.73 3.07-.43 6.17-.51 9.27-.4.09 44.79-.05 89.59.07 134.38-13.27 7.06-28.59 9.22-43.45 9.47-10.37-.31-22.04-1.02-29.96-8.61-8.09-8.07-9.07-20.19-9.96-30.95-.46-30.02-.13-60.04-.23-90.06.1-4.57-.26-9.17.28-13.72Zm364.26 195.2c8.78-2.18 18.64 2.93 21.81 11.43 2.93 7.23 1.03 16.19-4.85 21.4-6.68 6.4-18.16 6.58-25.11.5-6.87-5.6-8.63-16.17-4.38-23.86a18.88 18.88 0 0 1 12.53-9.47m1.04 3.12c-7.91 1.37-13.51 9.64-12.34 17.49.79 7.81 8.05 14.37 15.97 13.93 8.32-.01 15.46-7.75 15.03-16.01.36-9.5-9.35-17.7-18.66-15.41Zm-328.26-2.26c2.54.1 5.1.11 7.66.01 7.87 21.37 15.18 42.97 22.85 64.42-2.62.02-5.24.02-7.85.07-2.32-6.07-4.21-12.29-6.46-18.38-8.45.06-16.89-.01-25.32.03l-6.3 18.3c-2.48.02-4.96.01-7.44-.03 7.69-21.45 14.97-43.05 22.86-64.42m3.52 9.59c-3.38 9.92-6.82 19.83-10.28 29.73 6.87.16 13.74.01 20.61.09-3.44-9.94-6.47-20.06-10.33-29.82Zm148.37-9.73c8.25-1.92 17.49.08 23.77 5.89 6.28 5.82 9.29 14.41 9.86 22.8.71 9.79-1.11 20.35-7.54 28.08-8 9.95-23.64 11.85-34.18 4.92-7.44-4.74-11.56-13.32-12.81-21.84-1.34-9.72-.27-20.23 5.11-28.64a25.47 25.47 0 0 1 15.79-11.21m.29 7.22c-5.09 1.61-9.05 5.77-11.16 10.59-2.87 6.51-3.26 13.88-2.39 20.87.85 6.5 3.6 13.21 9.14 17.08 6.86 4.82 17.16 4.07 23.05-2 5.41-5.47 7.12-13.51 7.17-20.96.03-7.53-1.62-15.67-7.03-21.25-4.72-4.96-12.37-6.44-18.78-4.33Zm105.5 1.56c2.79-5.19 8.44-8.25 14.13-9.11 6.79-1.02 14.23-.01 19.85 4.19 3.38 2.46 5.75 6.02 7.41 9.81-2.03 1.15-4.05 2.3-6.09 3.42-2.07-4.35-5.4-8.42-10.17-9.85-5.19-1.46-11.31-1.52-15.9 1.66-4.87 3.25-4.63 11.45.38 14.47 8.65 5.39 19.65 5.8 27.8 12.17 6.63 5.02 7.42 15.47 2.59 21.98-3.26 4.44-8.58 6.88-13.9 7.81-6.82 1.13-14.22.41-20.18-3.31-4.78-2.91-8.24-7.68-9.97-12.96a950.3 950.3 0 0 1 6.41-2.86c2.09 5.51 6.33 10.52 12.24 12.02 5.59 1.33 12.05 1.17 16.98-2.11 5.23-3.46 5.23-12.24-.03-15.67-8.51-5.79-19.64-6.01-27.93-12.23-5.93-4.33-6.98-13.19-3.62-19.43Zm-506.06-8.24c2.49-.02 4.99-.02 7.48 0 .01 8.11.03 16.22-.01 24.33 3.54-3.23 7.6-6.34 12.55-6.79 7.11-1.14 14.73 2.47 17.94 9 3.87 7.74 3.99 17.06 1.6 25.27-1.99 6.88-8.24 12.36-15.49 12.82-6.21.87-12.3-1.93-16.61-6.29l.04 5.7a470 470 0 0 1-7.51 0c.01-21.35-.01-42.69.01-64.04m7.67 30.64c-.4 7.05-.09 14.15-.15 21.22 3.93 4.33 9.64 7.75 15.7 6.57 4.97-.63 8.57-5.01 9.56-9.71 1.26-5.85 1.31-12.25-1.15-17.81-1.78-4.1-5.94-7.1-10.47-7.07-5.33-.2-10.06 3-13.49 6.8Zm110.94 33.39c.11-21.36-.18-42.74.15-64.09 8.43.19 16.87-.13 25.3.16 7.06.37 15.1 3.29 17.92 10.36 2.41 6.39 1.9 14.5-2.91 19.68-2.76 2.94-6.64 4.49-10.49 5.37 5.13 9.56 10.47 19.01 15.66 28.53-2.84.01-5.69.08-8.52-.1-4.89-9.2-10.13-18.21-15.06-27.39-4.82-.14-9.64-.02-14.45-.08-.07 9.2 0 18.39-.05 27.59-2.52 0-5.04-.01-7.55-.03m7.57-57.1v22.74c5.96-.06 11.93.19 17.89-.21 3.9-.31 8.32-1.55 10.35-5.22a13.93 13.93 0 0 0 .3-11.41c-1.87-3.99-6.55-5.36-10.6-5.68-5.97-.41-11.96-.15-17.94-.22Zm51.37 57.11c.12-21.37-.23-42.76.17-64.12 13.07.26 26.14-.17 39.2.21-.07 2.3-.07 4.61-.05 6.91-10.54.03-21.08 0-31.62.02.01 6.65-.07 13.31.04 19.96 7.77-.1 15.54.06 23.31-.09.22 2.3.15 4.62.13 6.93-7.83.02-15.66-.01-23.49.01 0 7.73-.01 15.45.01 23.18 11.13.01 22.27-.01 33.41.01.02 2.35.13 4.72-.14 7.07-13.66-.18-27.32-.01-40.97-.09Zm112.32-64.04c2.55-.02 5.11-.02 7.68 0v57.04c10.25.04 20.5-.01 30.75.02l-.01 6.99c-12.8.02-25.59-.01-38.39.02-.08-21.36-.02-42.71-.03-64.07Zm36.32 0h48.35c0 2.37.13 4.75-.15 7.12-6.73-.15-13.47-.03-20.2-.06-.03 19 .01 38-.02 57l-7.68-.02c0-18.99.01-37.98-.01-56.98-6.76-.01-13.52-.02-20.28.01-.03-2.36-.04-4.72-.01-7.07Zm120.94 0c8.3.03 16.61-.11 24.92.07 7.13.29 15.31 3.02 18.34 10.1 2.71 6.76 2.01 15.62-3.58 20.76-2.71 2.47-6.22 3.75-9.72 4.6 5.19 9.52 10.46 19 15.69 28.51a588 588 0 0 1-8.4 0c-5.12-9.19-10.15-18.42-15.33-27.57-4.8.12-9.6-.17-14.38.17.18 9.12 0 18.25.09 27.38-2.55.03-5.1.05-7.63.03-.02-21.35-.02-42.7 0-64.05m7.62 6.94c-.02 7.57-.01 15.15 0 22.73 6.13-.07 12.28.23 18.41-.27 3.76-.37 8.02-1.71 9.88-5.32a14 14 0 0 0 .31-11.01c-1.66-3.97-6.2-5.48-10.15-5.86-6.14-.51-12.3-.2-18.45-.27Z"/><path d="M1096.17 385.18c4.39.12 9.38-1.11 13.31 1.45 3.81 2.76 2.65 9.43-1.89 10.79 1.49 3.02 3.18 5.94 4.78 8.91-1.36.17-2.71.24-4.04.28a102.99 102.99 0 0 1-4.58-8.54c-1.24-.08-2.47-.13-3.68-.17-.01 2.88-.02 5.76-.01 8.64-1.33.01-2.64-.05-3.93-.2.11-7.05.04-14.11.04-21.16m3.89 3.51c-.04 1.99 0 3.99.08 5.99 2.23-.14 4.64.23 6.75-.77 1.37-1.18 1.36-3.54-.07-4.66-2.17-.78-4.52-.48-6.76-.56Zm-530.82 8.4 7.89-.06a2074.6 2074.6 0 0 1 13.34 36.86c5.09-12.04 9.01-24.6 13.67-36.83 2.53-.02 5.07-.01 7.61.02-6.55 16.99-13.05 33.99-19.6 50.98-1.74 4.45-4.14 9.32-8.88 11.19-4.89 1.8-10.36 1.29-15.31.02a583.7 583.7 0 0 1 1.73-5.96c3.7.52 7.8 1.46 11.33-.29 3.54-2.09 4.41-6.45 5.88-9.97-5.89-15.32-11.74-30.65-17.66-45.96Z"/></g><path fill="#0099c2" d="M53.88 191.68c56.67 36.28 112.9 73.26 169.5 109.65l-1.26 1.37c-25.51 9.98-51.25 19.38-76.64 29.65l-.16.06c-30.2-20.07-60.53-39.96-90.89-59.78l-.11-.45a23.86 23.86 0 0 1-.54-5.18c.13-25.11-.08-50.21.1-75.32Z"/><path fill="#f15a09" d="M53.82 281.97c.09-3.12-.44-6.33.61-9.34 30.36 19.82 60.69 39.71 90.89 59.78-30.55 11.65-60.96 23.65-91.58 35.12.16-28.52.02-57.04.08-85.56Z"/><path fill="#85c418" d="M231.33 299.33c9.86-3.77 19.7-7.6 29.57-11.35 8.67 5.27 17.59 10.16 26.1 15.68-1.66.12-2.84 1.32-4.02 2.32-7.3 6.6-14.59 13.19-21.98 19.67l-.11-.08c-12.17-7.53-24.05-15.51-36.09-23.25 1.92-1.49 4.3-2.12 6.53-2.99Z"/><path fill="#006ca4" d="M145.48 332.35c25.39-10.27 51.13-19.67 76.64-29.65l2.5-.87.18.49c12.04 7.74 23.92 15.72 36.09 23.25-17.37 16.24-35.28 31.92-52.88 47.91-20.82-13.75-41.91-27.1-62.53-41.13Z"/><path fill="#cce079" d="M282.98 305.98c1.18-1 2.36-2.2 4.02-2.32l.18-.05c56.78 33.79 113.65 67.42 170.47 101.14-65.51 29.09-131.04 58.15-196.58 87.19-.44-24.29-.07-48.59-.19-72.88.08-31.14-.16-62.28.12-93.41 7.39-6.48 14.68-13.07 21.98-19.67Z"/><path fill="#f8a13c" d="m260.89 325.57.11.08c-.28 31.13-.04 62.27-.12 93.41.12 24.29-.25 48.59.19 72.88l-.18.06h-.41c-66.96-40.16-133.9-80.35-200.85-120.53-2.01-1.24-4.22-2.23-5.89-3.94 30.62-11.47 61.03-23.47 91.58-35.12l.16-.06c20.62 14.03 41.71 27.38 62.53 41.13 17.6-15.99 35.51-31.67 52.88-47.91Z"/></svg>