<svg xmlns="http://www.w3.org/2000/svg" data-testid="spot-listing-save" viewBox="0 0 48 48"><path fill="#620F12" fill-rule="evenodd" d="M24 7a1 1 0 0 1 1 1v10a1 1 0 1 1-2 0V8a1 1 0 0 1 1-1Zm13 0a1 1 0 0 1 1 1v10a1 1 0 1 1-2 0V8a1 1 0 0 1 1-1Z" clip-rule="evenodd"/><path fill="#fff" fill-rule="evenodd" d="M8.5 3A2.5 2.5 0 0 0 6 5.5V7H4a2 2 0 0 0-2 2v1a2 2 0 0 0 2 2h2v33h5V12h31a2 2 0 0 0 2-2V9a2 2 0 0 0-2-2H11V5.5A2.5 2.5 0 0 0 8.5 3Z" clip-rule="evenodd"/><path fill="#D92228" d="M16 22a4 4 0 0 1 4-4h22a4 4 0 0 1 4 4v10a4 4 0 0 1-4 4H20a4 4 0 0 1-4-4V22Z"/><path fill="#fff" d="M32.479 31.092a2.696 2.696 0 0 1-2.958 0C26.911 29.379 25 27.432 25 25.105 25 23.39 26.492 22 28.333 22c1.09 0 2.059.488 2.667 1.241.608-.753 1.576-1.241 2.667-1.241C35.507 22 37 23.39 37 25.105c0 2.327-1.912 4.274-4.521 5.987Z"/><path fill="#620F12" fill-rule="evenodd" d="M0 45a1 1 0 0 1 1-1h46a1 1 0 1 1 0 2H1a1 1 0 0 1-1-1Z" clip-rule="evenodd"/><path fill="#620F12" fill-rule="evenodd" d="M8.5 4A1.5 1.5 0 0 0 7 5.5V8H4a1 1 0 0 0-1 1v1a1 1 0 0 0 1 1h3v33h3V11h32a1 1 0 0 0 1-1V9a1 1 0 0 0-1-1H10V5.5A1.5 1.5 0 0 0 8.5 4ZM5 5.5a3.5 3.5 0 1 1 7 0V6h30a3 3 0 0 1 3 3v1a3 3 0 0 1-3 3H12v33H5V13H4a3 3 0 0 1-3-3V9a3 3 0 0 1 3-3h1v-.5Z" clip-rule="evenodd"/></svg>