<svg xmlns="http://www.w3.org/2000/svg" data-testid="spot-phone-home" viewBox="0 0 48 48"><path fill="#fff" d="M12 5.796c0-1.581 1.007-2.863 2.25-2.863h19.5c1.243 0 2.25 1.282 2.25 2.863V42.07c0 1.581-1.007 2.864-2.25 2.864h-19.5c-1.243 0-2.25-1.282-2.25-2.864V5.796Z"/><path fill="#620F12" d="M22 40a2 2 0 1 1 4 0 2 2 0 0 1-4 0Z"/><path fill="#620F12" fill-rule="evenodd" d="M28 7a1 1 0 0 1-1 1h-6a1 1 0 1 1 0-2h6a1 1 0 0 1 1 1Z" clip-rule="evenodd"/><path fill="#620F12" fill-rule="evenodd" d="M11 6.933a5 5 0 0 1 5-5h16a5 5 0 0 1 5 5v34a5 5 0 0 1-5 5H16a5 5 0 0 1-5-5v-34Zm5-3a3 3 0 0 0-3 3v34a3 3 0 0 0 3 3h16a3 3 0 0 0 3-3v-34a3 3 0 0 0-3-3H16Zm31 20a1 1 0 0 1-1 1h-4a1 1 0 1 1 0-2h4a1 1 0 0 1 1 1Zm-2.976 9.231a.95.95 0 0 1-1.337.358l-2.474-1.5a1.053 1.053 0 0 1-.373-1.395.95.95 0 0 1 1.337-.358l2.473 1.5c.473.287.64.911.374 1.395Zm.044-18.463a1.053 1.053 0 0 1-.373 1.395l-2.474 1.5a.95.95 0 0 1-1.336-.358 1.053 1.053 0 0 1 .373-1.395l2.474-1.5a.95.95 0 0 1 1.336.358ZM1 23.933a1 1 0 0 1 1-1h4a1 1 0 1 1 0 2H2a1 1 0 0 1-1-1Zm2.976-9.232a.95.95 0 0 1 1.337-.358l2.474 1.5c.472.287.639.911.373 1.395a.95.95 0 0 1-1.337.358l-2.473-1.5a1.053 1.053 0 0 1-.374-1.395Zm-.045 18.463a1.053 1.053 0 0 1 .374-1.395l2.473-1.5a.95.95 0 0 1 1.337.358 1.053 1.053 0 0 1-.373 1.395l-2.474 1.5a.95.95 0 0 1-1.337-.358Z" clip-rule="evenodd"/><path fill="#D92228" d="M19.444 31h9.112c.797 0 1.444-.647 1.444-1.444V23l-6-6-6 6v6.556c0 .797.647 1.444 1.444 1.444Z"/><path fill="#620F12" fill-rule="evenodd" d="M25.208 18.5a1.708 1.708 0 0 0-2.416 0l-6.085 6.085a1 1 0 0 1-1.414-1.414l6.085-6.085a3.708 3.708 0 0 1 5.244 0l6.085 6.085a1 1 0 0 1-1.414 1.414L25.208 18.5Z" clip-rule="evenodd"/><path fill="#620F12" d="M30 17.878a1 1 0 0 1 1 1V23l-2-2.5v-1.622a1 1 0 0 1 1-1Zm-8 8a1 1 0 0 1 1-1h2a1 1 0 0 1 1 1V31h-4v-5.122Z"/></svg>