<svg xmlns="http://www.w3.org/2000/svg" fill="none" data-testid="picto-couple-couch-laptop" viewBox="0 0 174 126"><path fill="#F2F2F2" d="M168.332 103.711c-.09 3.738.09 4.07-2.664 3.853-2.766-.216-148.241-.62-150.815-.534-2.406.072-2.792-.115-2.767-3.954-.051-14.186-.283-59.414-.09-65.922.09-2.18.283-2.396 1.995-3.248C15.702 33.041 112.137 2.1 116.344.526c2.175-.807 2.407-.692 3.745.39 1.995 1.631 43.649 30.436 46.956 32.86 1.107.809 1.132 1.068 1.274 3.074.232 3.522.103 63.109.013 66.861Z"/><path stroke="#000" stroke-linecap="round" stroke-linejoin="round" stroke-miterlimit="10" d="M36.869 92.458c0 .012-.012.023-.012.035-1.926 6.114-3.84 12.24-5.744 18.378m11.98-18.413c0 .012.011.023.011.035a4244.99 4244.99 0 0 1 5.744 18.378"/><path fill="#2B2B2B" d="M33.145 73.105c.103.522.263 1.056.538 1.509.413.672 1.113 1.171 1.33 1.926.184.626 0 1.287-.068 1.937-.172 1.694.458 3.388 1.421 4.792.964 1.392 2.225 2.54 3.486 3.666.24-.754.47-1.52.608-2.297.149-.87.183-1.764.149-2.657-.172-5.383-2.66-10.581-6.524-14.294-.023-.023-.963 2.181-.998 2.448-.137.998-.149 1.972.058 2.97Z"/><path fill="#2B2B2B" d="M30.586 80.286c.378.72.974 1.369 1.743 1.636.837.29 1.834.127 2.59.603-.183.36-.366.72-.446 1.114-.08.394-.012.835.24 1.137.172.197.413.325.642.44 1.491.767 2.982 1.52 4.483 2.286-.172-1.89-.905-3.7-1.96-5.279-1.055-1.578-2.385-2.935-3.83-4.153-1.467-1.242-3.06-2.379-4.872-3.028.034.011.149 1.31.183 1.45.103.44.252.87.39 1.3.264.846.424 1.705.837 2.494Z"/><path fill="#2B2B2B" d="M41.602 82.258c-.837 1.567-1.353 3.284-1.811 5.012a52.795 52.795 0 0 0 4.116-2.633c.504-.36 1.043-.778 1.203-1.393.08-.336.035-.707.15-1.032.343-.998 1.8-1.068 2.407-1.926.16-.22.252-.5.298-.766.138-.766-.046-1.543-.229-2.309-.046-.185-3.268 1.555-3.6 1.822-1.044.882-1.88 2.007-2.534 3.225Z"/><path fill="#fff" stroke="#000" stroke-linecap="round" stroke-linejoin="round" stroke-miterlimit="10" d="M36.329 91.045c.069.487.16.986.413 1.404.825 1.392 3.13 1.392 4.494 1.056.768-.186 1.525-.638 1.88-1.37.344-.684.367-1.52.379-2.262.011-.928.103-1.821-.046-2.75-.012-.092-.035-.197-.103-.266-.08-.082-.207-.093-.333-.105-2.144-.07-4.69-.232-6.787.325a18.358 18.358 0 0 0 .103 3.968Z"/><path stroke="#000" stroke-linecap="round" stroke-linejoin="round" stroke-miterlimit="10" d="M40.619 91.795c.39 5.836 1.731 13.273 2.476 19.074"/><path fill="#fff" d="M67.434 35.872h47.323v46.909H67.434z"/><path stroke="#000" stroke-linecap="round" stroke-linejoin="round" stroke-miterlimit="10" stroke-width="1.5" d="M91.6 37.357c.177 4.155-.044 7.075.103 10.425.544 11.84.324 23.338.383 35.193M67.26 36.536a1585.59 1585.59 0 0 0 .338 50.964M114.6 36.538c-.162 16.993-.045 33.165.338 50.143"/><path stroke="#000" stroke-linecap="round" stroke-linejoin="round" stroke-miterlimit="10" stroke-width="1.5" d="M67.494 63.346c15.983.208 31.053-.717 47.036-.792M67.494 36.54c15.983-.209 31.108-.142 47.09-.067"/><path fill="#fff" stroke="#000" stroke-linecap="round" stroke-linejoin="round" stroke-miterlimit="10" d="M134.898 93.908c.629 6.125.082 12.332-.455 18.448.51 2.453-9.99 2.748-10.045.876.574-4.179-2.835-22.83 2.816-23.143 2.243-.24 4.868-.415 6.891.701.593.886.593 2.085.793 3.118Z"/><path fill="#fff" stroke="#000" stroke-linecap="round" stroke-linejoin="round" stroke-miterlimit="10" d="M129.401 85.551c.183 1.476.128 2.813.092 4.363-2.452.037-4.676.129-4.977 3.136-.684 3.837-.62 7.563-.401 11.511-.283-1.845-26.698-.452-33.926-.452-8.167 0-33.826-1.208-33.826.286h-.018c-.264-4.483 1.121-9.205-.21-13.522-1.157-1.125-3.135-.849-4.648-.987.127-3.219-.766-8.449 3.9-8.209 19.744-.526 57.808-.756 68.409-.397 2.871-.055 5.441 1.07 5.605 4.271Z"/><path fill="#fff" stroke="#000" stroke-linecap="round" stroke-linejoin="round" stroke-miterlimit="10" d="M124.397 113.232c0 .073 0 .138.019.212-21.202-.489-47.608.507-68.81.037 1.304-2.731.639-6.097.739-9.086h.018c0-1.494 25.659-.286 33.826-.286 7.237 0 33.652-1.393 33.926.452.282 3.929.182 5.184.282 8.671Z"/><path fill="#000" stroke="#000" stroke-linecap="round" stroke-linejoin="round" stroke-miterlimit="10" stroke-width=".75" d="M129.649 79.527c4.986-.028 7.73.24 12.187-.277-.547-4.077-.337-9.011-1.313-13.134-2.187-.213-7.602-.065-9.798.11-.374 2.113-1.322 13.301-1.076 13.301Z"/><path stroke="#000" stroke-linecap="round" stroke-linejoin="round" stroke-miterlimit="10" d="M134.552 78.466c-.037 1.457 0 3.33-.037 4.787m-2.432 6.872c.365-1.79.748-3.57 1.167-5.35a20.696 20.696 0 0 1 5.287-.157 979.853 979.853 0 0 0 4.357 28.751"/><path stroke="#000" stroke-linecap="round" stroke-linejoin="round" stroke-miterlimit="10" d="M134.899 93.906c1.631.01 3.272-.064 4.894-.203"/><path stroke="#000" stroke-linecap="round" stroke-linejoin="round" stroke-miterlimit="10" stroke-width=".75" d="M124.116 104.56c-.265-1.836-26.644-.775-34.072-.729-8.167.056-33.69-.94-33.68.563"/><path fill="#fff" stroke="#000" stroke-linecap="round" stroke-linejoin="round" stroke-miterlimit="10" d="M45.462 94.341c-.292 5.655-.055 10.875.164 16.529-.064 1.375.547 2.675 1.996 2.841 1.841.415 8.504 1.421 8.468-1.485.556-3.246.173-6.576.246-9.86.082-3.56.684-7.148.082-10.653-.219-2.131-2.971-1.799-4.521-1.808-4.166.138-6.17-.544-6.435 4.436Z"/><path stroke="#000" stroke-linecap="round" stroke-linejoin="round" stroke-miterlimit="10" stroke-width=".75" d="M124.315 113.453c-21.165-.535-47.543.507-68.708.018m68.893.203c-.347-3.588-.037-5.073-.383-9.113-.082-3.274-.73-11.779 1.567-13.955 1.924-.987 4.312-.738 6.399-.48.975.175 2.279.286 2.407 1.522"/><path stroke="#000" stroke-linecap="round" stroke-linejoin="round" stroke-miterlimit="10" stroke-width=".75" d="M129.493 89.766c.264-4.649 0-8.66-5.697-8.486-10.592-.36-48.665-.129-68.408.397-4.63-.24-3.783 4.935-3.901 8.145"/><path fill="#000" d="M130.724 66.217c-.374 2.113-.766 10.774-1.076 13.31 3.938.277 8.222-.046 12.187-.276"/><path stroke="#000" stroke-linecap="round" stroke-linejoin="round" stroke-miterlimit="10" stroke-width=".75" d="M130.724 66.217c-.374 2.113-.766 10.774-1.076 13.31 3.938.277 8.222-.046 12.187-.276"/><path fill="#fff" stroke="#000" stroke-linecap="round" stroke-linejoin="round" stroke-miterlimit="10" stroke-width=".75" d="M87.774 91.509c1.276-.056 2.443-.213 3.746-.037.675.286-1.203.433-1.394.535.483-.01 3.217-.48 3.281-.028-.647.175-1.896.092-2.561.212.802.037 2.16.046 2.953.148.583.461-2.543.286-2.79.396 3.027.323 3.747.766-.145.554.438.129 2.206.304 2.096.609-.036.092-2.36.175-3.29-.222-1.23-.535-2.37-.572-3.637-.58.693-1.218-.328-1.67 1.741-1.587Z"/><path fill="#fff" d="M90.5 75.708c-1.997.517-4.303 2.823-5.916 5.903-1.95 3.432-4.512 8.588-2.635 11.069 1.54 2.038 9.498-7.748 10.966-11.041"/><path stroke="#000" stroke-linecap="round" stroke-linejoin="round" stroke-miterlimit="10" d="M90.5 75.708c-1.997.517-4.303 2.823-5.916 5.903-1.95 3.432-4.512 8.588-2.635 11.069 1.54 2.038 9.498-7.748 10.966-11.041"/><path fill="#fff" stroke="#000" stroke-linecap="round" stroke-linejoin="round" stroke-miterlimit="10" d="M82.104 77.488c7.192 2.408 1.586 12.406 7.265 15.828-.146.618-.219 1.006-.41 1.476-19.862-3.062-13.09-19.388-6.855-17.304Z"/><path fill="#2B2B2B" stroke="#000" stroke-linecap="round" stroke-linejoin="round" stroke-miterlimit="10" d="M82.268 91.426c5.095 1.089 20.718 6.374 12.715 11.751-5.377 1.559-11.74.508-16.835-1.07-1.914-.673-3.965-1.309-5.277-2.868-1.842-2.186.227-6.715 2.351-8.947l7.046 1.134Z"/><path fill="#fff" stroke="#000" stroke-linecap="round" stroke-linejoin="round" stroke-miterlimit="10" d="M75.267 101.222c-1.24-.526-2.032-2.075-4.065.184-1.03 1.144-3.454.581-4.548 1.688-.647.655 2.434.738 4.84.646 2.406-.092 3.573.009 6.052-.111-.018-.581.046-.839-.064-1.577-.838-.185-1.394-.563-2.215-.83Z"/><path fill="#fff" d="M84.427 81.493c.41.968.037 2.038-.273 2.794-.684 1.624-2.507 6.605-1.64 8.219-1.45.018-6.317.978-8.797-.941 2.389-6.466-6.307-11.972.83-14.288 4.129-1.042 3.947-4.058 4.685-5.866.246.166.629.286 1.02.369.511.59.803 1.513.712 2.758-.173 2.14.82 3.21 1.86 4.64"/><path stroke="#000" stroke-linecap="round" stroke-linejoin="round" stroke-miterlimit="10" d="M84.427 81.493c.41.968.037 2.038-.273 2.794-.684 1.624-2.507 6.605-1.64 8.219-1.45.018-6.317.978-8.797-.941 2.389-6.466-6.307-11.972.83-14.288 4.129-1.042 3.947-4.058 4.685-5.866.246.166.629.286 1.02.369.511.59.803 1.513.712 2.758-.173 2.14.82 3.21 1.86 4.64"/><path fill="#2B2B2B" d="M83.903 101.664c-4.43-1.457-5.743.415-8.596-.562-.191.47-.884 1.881-1.112 2.665 4.667.48 12.397 0 19.607.12"/><path stroke="#000" stroke-linecap="round" stroke-linejoin="round" stroke-miterlimit="10" d="M83.903 101.664c-4.43-1.457-5.743.415-8.596-.562-.191.47-.884 1.881-1.112 2.665 4.667.48 12.397 0 19.607.12"/><path fill="#000" stroke="#000" stroke-linecap="round" stroke-linejoin="round" stroke-miterlimit="10" stroke-width=".75" d="M80.247 64.373c-.501-2.666-4.42-3.229-4.64-.194-.182 3.486 5.26 5.156 4.64.194Z"/><path fill="#000" stroke="#000" stroke-linecap="round" stroke-linejoin="round" stroke-miterlimit="10" stroke-width=".75" d="M83.41 69.713c.1-1.586-1.039-2.056-1.941-2.48-1.65-.766-3.546.368-4.184 1.521-1.103 1.993.574 5.617 3.08 4.741.958-.424 1.578-1.346 2.37-2.001.42-.342.684-.858.675-1.78Z"/><path fill="#fff" stroke="#000" stroke-linecap="round" stroke-linejoin="round" stroke-miterlimit="10" d="M83.628 78.163c-1.149 3.653-6.928 2.444-9.088-.895 3.974-1.162 3.947-4.058 4.685-5.866.246.166.63.286 1.021.369.51.59 1.058 1.503.957 2.758-.173 2.14 1.167 2.905 2.425 3.634Z"/><path fill="#fff" d="M80.16 73.957c2.289 1.983 3.765-1.67 3.182-3.92-4.503-.277-2.498-1.163-3.491.913-1.358-2.113-2.352 1.236-.72 1.365"/><path stroke="#000" stroke-linecap="round" stroke-linejoin="round" stroke-miterlimit="10" d="M80.16 73.957c2.289 1.983 3.765-1.67 3.182-3.92-4.503-.277-2.498-1.163-3.491.913-1.358-2.113-2.352 1.236-.72 1.365"/><path fill="#fff" d="M89.996 83.465c.2 5.756.246 3.625-.355 12.323 5.496 3.459 15.814 2.122 17.719.148-.182-5.34-.337-7.518.091-18.77-1.504-2.353-10.063-3.709-11.038-3.653-.975.055-5.57 1.365-7.465 2.896"/><path stroke="#000" stroke-linecap="round" stroke-linejoin="round" stroke-miterlimit="10" d="M89.996 83.465c.2 5.756.246 3.625-.355 12.323 5.496 3.459 15.814 2.122 17.719.148-.182-5.34-.337-7.518.091-18.77-1.504-2.353-10.063-3.709-11.038-3.653-.975.055-5.57 1.365-7.465 2.896"/><path fill="#fff" stroke="#000" stroke-linecap="round" stroke-linejoin="round" stroke-miterlimit="10" d="M109.231 84.554c.529 3.403.42 7.047-1.485 8.135-1.869 1.061-3.282-6.576-3.455-7.139l4.94-.996Z"/><path fill="#fff" d="M71.757 79.463c-.948 2.665-.082 5.848 1.313 7.812 2.524 3.542 7.237 6.079 9.643 5.737 1.914-.267.037-5.801-3.381-10.293"/><path stroke="#000" stroke-linecap="round" stroke-linejoin="round" stroke-miterlimit="10" d="M71.757 79.463c-.948 2.665-.082 5.848 1.313 7.812 2.524 3.542 7.237 6.079 9.643 5.737 1.914-.267.037-5.801-3.381-10.293"/><path fill="#fff" d="M91.43 83.52c.911-.876 2.98-1.2 3.791-1.088-.218 1.171-1.349.138-2.616 1.688"/><path stroke="#000" stroke-linecap="round" stroke-linejoin="round" stroke-miterlimit="10" stroke-width=".75" d="M91.43 83.52c.911-.876 2.98-1.2 3.791-1.088-.218 1.171-1.349.138-2.616 1.688"/><path fill="#fff" d="m92.414 85.604.347.277c1.74-1.633.592-2.122-.839-2.648-1.14.508-1.276.895-3.956 2.334-1.03.553-2.57 1.411-4.585 2.195l.866 4.428c1.094-.59 3-2.989 4.667-4.861.264-.295.52-.572.766-.812.984-.978 1.74.01 2.743-1.448"/><path stroke="#000" stroke-linecap="round" stroke-linejoin="round" stroke-miterlimit="10" stroke-width=".75" d="m92.414 85.604.347.277c1.74-1.633.592-2.122-.839-2.648-1.14.508-1.276.895-3.956 2.334-1.03.553-2.57 1.411-4.585 2.195l.866 4.428c1.094-.59 3-2.989 4.667-4.861.264-.295.52-.572.766-.812.984-.978 1.74.01 2.743-1.448"/><path fill="#fff" d="M82.178 88.233c2.023-.923 5.086-2.316 6.125-2.869l.83 2.472c-.246.249-3.801 4.012-4.904 4.713-.875.572-2.561.452-3.127.35"/><path stroke="#000" stroke-linecap="round" stroke-linejoin="round" stroke-miterlimit="10" stroke-width=".75" d="M82.178 88.233c2.023-.923 5.086-2.316 6.125-2.869l.83 2.472c-.246.249-3.801 4.012-4.904 4.713-.875.572-2.561.452-3.127.35"/><path fill="#FFEDC6" d="M92.326 84.045c.774.213 1.02.443 1.184.849l-1.184-.849Z"/><path stroke="#000" stroke-linecap="round" stroke-linejoin="round" stroke-miterlimit="10" stroke-width=".75" d="M92.326 84.045c.774.213 1.02.443 1.184.849"/><path fill="#FFEDC6" d="M92.404 85.052c.136.019.319 0 .392-.037l-.392.037Z"/><path stroke="#000" stroke-linecap="round" stroke-linejoin="round" stroke-miterlimit="10" stroke-width=".75" d="M92.404 85.052c.136.019.319 0 .392-.037"/><path fill="#fff" d="M105.226 87.949c-2.684-.016-6.505-.103-7.703-.435-.973-.538-1.58-1.941-2.154-2.64-.287.532.485 2.386.485 2.386-1.056-.058-4.646-2.243-3.367.245 1.185 2.305 3.966 2.107 3.966 2.107 2.221.69 10.041 7.095 12.586 1.399"/><path stroke="#000" stroke-linecap="round" stroke-linejoin="round" stroke-miterlimit="10" d="M105.226 87.949c-2.684-.016-6.505-.103-7.703-.435-.973-.538-1.58-1.941-2.154-2.64-.287.532.485 2.386.485 2.386-1.056-.058-4.646-2.243-3.367.245 1.185 2.305 3.966 2.107 3.966 2.107 2.221.69 10.041 7.095 12.586 1.399"/><path fill="#000" d="M93.408 69.234c-2.707-7.103 8.623-6.937 5.678-.222l-5.678.222Z"/><path stroke="#000" stroke-linecap="round" stroke-linejoin="round" stroke-miterlimit="10" d="M93.408 69.234c-2.707-7.103 8.623-6.937 5.678-.222"/><path fill="#fff" d="M94.346 70.728c.036 2.085-.155 3.191.009 3.413 1.185 1.577 4.065.747 4.311-.388-.027-1.208-.592-3.763-.592-3.763"/><path stroke="#000" stroke-linecap="round" stroke-linejoin="round" stroke-miterlimit="10" d="M94.346 70.728c.036 2.085-.155 3.191.009 3.413 1.185 1.577 4.065.747 4.311-.388-.027-1.208-.592-3.763-.592-3.763"/><path fill="#fff" stroke="#000" stroke-linecap="round" stroke-linejoin="round" stroke-miterlimit="10" d="M99.087 69.999c-1.686 9.02-9.79-2.685-2.825-2.98 1.713-.083 3.126.47 2.825 2.98Z"/><path fill="#fff" d="M102.905 82.183c.483 1.448.948 2.62 1.285 3.708l5.35-.922c-.556-3.579-.993-6.199-2.233-8.025"/><path stroke="#000" stroke-linecap="round" stroke-linejoin="round" stroke-miterlimit="10" d="M102.905 82.183c.483 1.448.948 2.62 1.285 3.708l5.35-.922c-.556-3.579-.993-6.199-2.233-8.025"/><path fill="#D92228" d="M101.216 94.942c.867-.042 1.405-.73 1.411-1.597.025-3.566-.316-8.372-.427-11.175 0-.07 0-.142-.042-.198-.07-.114-.238-.128-.364-.114-5.844.27-11.673.196-17.517.465a.787.787 0 0 0-.252.043c-.098.057-.154.156-.197.27-.182.44-.182.936-.168 1.404.028 2.127.127 7.573.295 9.686"/><path stroke="#000" stroke-linecap="round" stroke-linejoin="round" stroke-miterlimit="10" d="M102.2 82.17c.111 2.803.452 7.61.427 11.175-.006.868-.544 1.555-1.411 1.597-3.431.166-12.093-.377-17.261-1.216-.168-2.113-.267-7.56-.295-9.686-.014-.469-.014-.965.169-1.405.042-.113.098-.212.196-.269a.787.787 0 0 1 .252-.043c5.844-.269 11.673-.195 17.517-.465.126-.014.294 0 .364.114.042.056.042.127.042.198Z"/><path fill="#fff" stroke="#000" stroke-linecap="round" stroke-linejoin="round" stroke-miterlimit="10" d="M97.61 95.655c4.613-.563 9.744-2.122 13.81-2.786 7.829-1.273 9.57 9.178 2.297 10.312-7.147.517-12.789.517-16.562.415-3.774-.101-3.564-7.443.455-7.941Z"/><path fill="#fff" d="M97.602 95.646c-4.768-.074-9.006-1.827-13.545-2.49-8.76-1.274-9.699 9.527-1.523 10.238 7.921.682 13.035-.028 17.219.332"/><path stroke="#000" stroke-linecap="round" stroke-linejoin="round" stroke-miterlimit="10" d="M97.602 95.646c-4.768-.074-9.006-1.827-13.545-2.49-8.76-1.274-9.699 9.527-1.523 10.238 7.921.682 13.035-.028 17.219.332"/><path fill="#fff" stroke="#000" stroke-linecap="round" stroke-linejoin="round" stroke-miterlimit="10" d="M90.043 103.688c.984-.028 2.488.036 3.746-.028l-.355-2.574c-.83-.083-1.933-.387-2.48-.747l-.91 3.349Z"/><path fill="#2B2B2B" stroke="#000" stroke-linecap="round" stroke-linejoin="round" stroke-miterlimit="10" d="M91.53 100.636c-1.166-.784-2.114-1.116-3.099.692-1.112 2.038-3.445-.009-3.92 2.223 2.535.258 4.175.184 6.053.129 0 0-.173-2.131.966-3.044Z"/><path fill="#fff" d="M112.987 103.246c-5.278.637-19.734.378-19.734.378l-.71-2.831s6.015-1.937 13.626-5.313"/><path stroke="#000" stroke-linecap="round" stroke-linejoin="round" stroke-miterlimit="10" d="M112.987 103.246c-5.278.637-19.734.378-19.734.378l-.71-2.831s6.015-1.937 13.626-5.313"/><path fill="#fff" d="M94.238 117.646c-.046-.84-.683-1.873-.857-2.14-1.103-1.688.985-2.74 2.006-1.135.291.452 1.558 1.605 2.187 1.983"/><path stroke="#000" stroke-linecap="round" stroke-linejoin="round" stroke-miterlimit="10" d="M94.238 117.646c-.046-.84-.683-1.873-.857-2.14-1.103-1.688.985-2.74 2.006-1.135.291.452 1.558 1.605 2.187 1.983"/><path fill="#fff" stroke="#000" stroke-linecap="round" stroke-linejoin="round" stroke-miterlimit="10" d="M96.918 115.854c1.905.654 2.707 1.78.474 3.947-1.814 1.762-1.595 2.703-2.99 4.649-2.524 2.583-.009-3.265-.191-6.927 0-.009 2.297-.258 2.707-1.669Z"/><path fill="#fff" d="M77.267 99.686c1.486 3.855 16.225 16.224 16.225 16.224s1.376-1.134 1.977-1.623c-3.728-7.111-4.52-12.664-7.383-15.782"/><path stroke="#000" stroke-linecap="round" stroke-linejoin="round" stroke-miterlimit="10" d="M77.267 99.686c1.486 3.855 16.225 16.224 16.225 16.224s1.376-1.134 1.977-1.623c-3.728-7.111-4.52-12.664-7.383-15.782"/><path stroke="#000" stroke-linecap="round" stroke-linejoin="round" stroke-miterlimit="10" stroke-width="1.5" d="M44.682 107.615c-12.567-1.927-31.385.701-43.682-.92m172 .92c-10.735-1.927-26.808.701-37.312-.92"/></svg>