<svg xmlns="http://www.w3.org/2000/svg" data-testid="spot-sell" viewBox="0 0 48 48"><path fill="#fff" d="M26.216 3H40a4 4 0 0 1 4 4v13.869a3 3 0 0 1-.879 2.12L22.096 44.016a3 3 0 0 1-4.097.137L2.917 30.956a2.5 2.5 0 0 1-.203-3.564l21.282-23.41A3 3 0 0 1 26.216 3Z"/><path fill="#620F12" fill-rule="evenodd" d="M23.256 3.31A4 4 0 0 1 26.216 2H40a5 5 0 0 1 5 5v13.869a4 4 0 0 1-1.172 2.828L22.803 44.722a4 4 0 0 1-5.463.182L2.26 31.708a3.5 3.5 0 0 1-.285-4.988L23.256 3.31Zm2.96.69a2 2 0 0 0-1.48.655L3.454 28.065a1.5 1.5 0 0 0 .122 2.138l15.081 13.196a2 2 0 0 0 2.732-.09l21.025-21.026A2 2 0 0 0 43 20.868V7a3 3 0 0 0-3-3H26.216Z" clip-rule="evenodd"/><path fill="#620F12" d="M40 9.5a2.5 2.5 0 1 1-5 0 2.5 2.5 0 0 1 5 0Z"/><path fill="#fff" d="M8.444 30h18.112c.797 0 1.444-.647 1.444-1.444V13.273L17.5 7 7 13.273v15.283C7 29.353 7.647 30 8.444 30Z"/><path fill="#D92228" d="M28 28V14.028L17 6 6 14.028V28a2 2 0 0 0 2 2h18a2 2 0 0 0 2-2Z"/><path fill="#fff" d="M21 23a2 2 0 0 0-2-2h-4a2 2 0 0 0-2 2v7h8v-7Z"/><path fill="#620F12" fill-rule="evenodd" d="M18.042 7.063a1.708 1.708 0 0 0-2.084 0L4.61 15.793a1 1 0 1 1-1.22-1.586l11.349-8.73a3.708 3.708 0 0 1 4.522 0l11.349 8.73a1 1 0 0 1-1.22 1.585l-11.348-8.73Z" clip-rule="evenodd"/><path fill="#fff" d="M20 14a3 3 0 1 1-6 0 3 3 0 0 1 6 0Z"/><path fill="#620F12" d="M28 8a1 1 0 0 1 1 1v5l-2-1V9a1 1 0 0 1 1-1Z"/></svg>