<svg xmlns="http://www.w3.org/2000/svg" data-testid="spot-style" viewBox="0 0 48 48"><path fill="#fff" d="M39 20a4 4 0 0 1-4 4H13a4 4 0 0 1-4-4V10a4 4 0 0 1 4-4h22c2.21 0 4 .292 4 2.5V20Z"/><path fill="#D92228" d="M40 24.247c0 2.654-2.239 4.805-5 4.805h-6.008V41.49c0 1.386-1.372 2.51-3.065 2.51h-4.582c-1.693 0-3.065-1.124-3.065-2.51V29.052H13c-2.761 0-5-2.151-5-4.805V18h32v6.247Z"/><path fill="#620F12" fill-rule="evenodd" d="M12.994 5A4.997 4.997 0 0 0 8 10v10h31.96V10c0-.412.01-.811.02-1.194C40.043 6.62 40.088 5 37.963 5H12.994Zm-2.997 5c0-1.657 1.342-3 2.997-3H28v4a1 1 0 1 0 2 0V7h2.5v8a1 1 0 1 0 2 0V7h3.462v11H9.997v-8Z" clip-rule="evenodd"/></svg>