<svg xmlns="http://www.w3.org/2000/svg" aria-label="RealtorTM and RealEState logo" data-testid="logo-realtor-real-estate" viewBox="0 0 1100 413"><path fill="#1b203a" d="M342.5.5c9.07-.03 18.13.04 27.2-.03.09 49.35.09 98.71-.01 148.06-9.06-.07-18.12 0-27.18-.03-.02-49.33-.02-98.67-.01-148zm50.01 27.12c9.09-4.92 18.08-10.03 27.24-14.83v37.69c6.08.04 12.16 0 18.25.02-.01 8.09.01 16.17-.01 24.26-6.08-.01-12.16-.02-18.23 0 .01 12.08-.06 24.16.03 36.23.21 3.84.85 8.63 4.72 10.53 4.2 1.9 8.96 1.69 13.47 1.73.04 8.42.01 16.83.02 25.24-11.22.16-23.43.16-33.11-6.33-8.39-5.81-11.14-16.48-11.89-26.1-.97-13.76-.25-27.56-.56-41.33-5.48.04-10.95.01-16.43.03 0-8.1-.07-16.2.05-24.29 5.47.05 10.95.03 16.43.02.02-7.62-.01-15.24.02-22.87zM132.75 67.86a50.8 50.8 0 0 1 34.27-19.03c14.91-1.74 30.81 2.89 41.56 13.58 9.33 8.94 14.46 21.76 14.9 34.58.09 4.09-.01 8.17.01 12.26-25.17.03-50.35-.05-75.53.04 2.02 6.21 6.18 11.88 12.22 14.66 7.74 3.55 17.22 4.08 24.91.13 4.78-2.48 8.62-6.4 11.84-10.66 7.33 4.04 14.63 8.12 21.92 12.23-6.55 10.95-17.1 19.52-29.49 22.85-14.66 3.95-31.1 2.39-44.13-5.67-13.13-7.98-21.77-22.5-23.11-37.75-1.42-13.16 2.35-26.85 10.63-37.22m28.95 6.86c-5.58 2.51-9.88 7.29-12.5 12.75 15.68.02 31.35.09 47.03-.04-2.18-5.85-6.62-10.98-12.52-13.26-7.02-2.69-15.16-2.63-22.01.55zm77.55-10.42C249.46 52.67 265.7 46.82 281 48.9c8.49 1.03 16.83 4.67 22.76 10.93-.02-3.11-.01-6.22 0-9.32 9 .01 18.02-.08 27.03.05-.13 32.66.09 65.32-.11 97.99-8.98-.11-17.95-.01-26.93-.06-.01-3.47-.02-6.95.03-10.42a38.11 38.11 0 0 1-21.71 11.83c-15.4 2.79-31.74-3.34-42.17-14.85-10.22-10.88-14-26.55-12.63-41.16.79-10.78 4.76-21.46 11.98-29.59m34.2 10.38c-12.52 2.53-21.78 15.57-19.71 28.24 1.24 10.12 9.23 18.87 19.11 21.25 9.97 2.7 21.28-1.73 27-10.28a25.43 25.43 0 0 0 2.86-23.39c-4.15-11.48-17.34-18.82-29.26-15.82zm207.16-24.96c11.52-2.59 23.97-1.23 34.5 4.18a51.06 51.06 0 0 1 25.97 31.08c4.48 15.4 1.5 32.92-8.45 45.6a50.94 50.94 0 0 1-39.6 19.95 50.9 50.9 0 0 1-51.44-43.47c-2.4-15.35 2.71-31.7 13.56-42.85a50.78 50.78 0 0 1 25.46-14.49m5.86 24.96a25.6 25.6 0 0 0-18.08 15.61c-2.9 7.45-2.09 16.31 2.38 22.99 5.72 9.18 17.8 13.88 28.18 10.67 12.22-3.21 20.7-16.44 18.19-28.89-2.17-13.78-17.05-23.91-30.67-20.38zM58.74 50.54c8.92-.09 17.84-.03 26.76-.03-.01 5.21.04 10.41-.04 15.62 2.98-5.69 7.51-10.71 13.57-13.16 7.69-3.47 16.29-2.27 24.47-2.47 0 8.76.02 17.51-.02 26.26-6.81.09-13.63-.22-20.42.15-5.37.34-10.87 2.82-13.6 7.65-3.08 5.23-3.5 11.49-3.7 17.42.01 15.48-.06 30.96.04 46.44-9.01.18-18.03.04-27.05.07-.01-32.65.02-65.3-.01-97.95zm491.48 97.91c.14-32.67-.14-65.35.14-98.02 8.88.16 17.76.02 26.64.07-.01 5.2.02 10.4-.02 15.59 2.89-5.58 7.34-10.46 13.19-12.97 7.78-3.61 16.53-2.44 24.83-2.62-.01 8.75.02 17.51-.02 26.26-7.33.17-14.7-.41-22.01.34-5.51.59-10.71 3.95-12.87 9.15-3.26 7.09-2.8 15.12-2.85 22.73v39.51c-9.01 0-18.02.06-27.03-.04zm84.97-94.21c.06-1.28.13-2.56.21-3.83 6.95.19 13.9.03 20.85.1l-.01 3.73-8.23.01c-.03 7.5.01 15-.02 22.51h-4.22c-.05-7.5 0-15-.02-22.51l-8.56-.01zm24.32-3.72 3.63-.06c3.69 4.56 6.93 9.48 10.8 13.9 3.55-4.67 7.17-9.28 10.8-13.9l3.51.06c0 8.74.01 17.49-.01 26.23h-3.99c-.03-6.37.06-12.73-.06-19.09-3.62 4.24-6.8 8.84-10.53 12.99a582.08 582.08 0 0 0-10.18-13c.03 6.37.04 12.74 0 19.11l-3.94.02c-.1-8.76-.03-17.51-.03-26.26zM14.45 110.64c5.16-1.52 10.97-1.33 15.78 1.19a20.04 20.04 0 0 1 11.07 18.1 20.11 20.11 0 0 1-7.48 15.88c-6.25 5.2-15.71 5.97-22.77 1.99A20.12 20.12 0 0 1 .69 129.05c.05-8.25 5.99-15.88 13.76-18.41z"/><g fill="#85d942"><path d="M114.84 278.22c46.51-24.55 92.99-49.15 139.5-73.71 49.56 26.3 99.23 52.42 148.79 78.72-4.27 7.86-8.31 15.85-12.61 23.69-6.9-3.72-13.87-7.31-20.77-11.05l.01 115.12c-9.1-.01-18.19.05-27.28-.03.09-43.1-.07-86.21.08-129.31-29.37-15.74-58.88-31.24-88.36-46.77-42.25 22.45-84.57 44.76-126.88 67.1-4.13-7.93-8.42-15.79-12.48-23.76zm478.88 11.96c9.05-5.03 18.11-10.04 27.25-14.89.06 12.57.01 25.14.03 37.71h18.25v24.25l-18.24-.01c-.01 11.93-.03 23.85 0 35.78.16 4.03.77 9.09 4.87 11.08 4.2 1.78 8.89 1.62 13.37 1.67v25.22c-11.37.13-23.85.19-33.53-6.65-7.95-5.78-10.62-15.96-11.43-25.26-1.01-13.92-.35-27.89-.54-41.83-5.5-.01-11 .01-16.5-.01l-.01-24.23c5.5-.02 11.01 0 16.51-.02-.02-7.6.03-15.2-.03-22.81zm177.78-.14c8.96-4.97 17.95-9.87 26.94-14.77.1 12.55.08 25.11.01 37.66 6.18.15 12.36.03 18.55.07v24.25c-6.18.01-12.34-.02-18.51.02.04 11.58-.03 23.17.03 34.76.25 4.19.4 9.51 4.55 11.85 4.31 2.07 9.26 1.84 13.93 1.88V411c-11.53.11-24.27.21-34.02-6.88-8.76-6.64-10.81-18.33-11.4-28.64-.19-12.74-.01-25.49-.09-38.24h-16.74V313c5.59-.02 11.18.03 16.77-.03-.04-7.64-.02-15.29-.02-22.93zm-276.45 34.98c6.88-9.97 19.03-15.07 30.83-15.87 12.05-.74 24.96.81 35.05 7.96 5.6 3.81 9.71 9.36 12.93 15.26-8.17 3.35-16.26 6.89-24.44 10.21-4.31-10.04-17.51-13.48-27-9.19-3.38 1.33-5.75 6.15-3.03 9.14 3.16 2.51 7.28 3.23 11.09 4.22 11.7 2.62 24.26 4.18 34.21 11.44a24.77 24.77 0 0 1 10.27 18.68c.89 9.37-3.36 18.68-10.16 24.99-7.07 6.91-16.89 10.14-26.55 11.14H527.5c-7.32-.59-14.69-1.93-21.33-5.19-9.19-4.32-15.98-12.59-19.74-21.9 8.82-3.39 17.6-6.91 26.44-10.26 2.36 5.82 7.07 10.83 13.25 12.49 5.92 1.66 12.98 1.88 18.17-1.86 2.51-1.86 4.54-5.9 2.04-8.58-2.34-2.33-5.69-3.16-8.77-4.01-10.89-2.66-22.45-3.44-32.52-8.76-6.12-3.03-11.36-8.22-13.47-14.82-2.57-8.31-1.69-17.93 3.48-25.09z"/><path d="M149.61 316.54c15.12-7.77 34.1-7.36 48.95.87 12.22 6.7 20.95 19.08 23.74 32.67 1.65 7.11 1.14 14.44 1.19 21.67-25.18 0-50.36-.01-75.54.01 1.45 3.93 3.34 7.83 6.47 10.7 6.4 6.01 15.88 7.8 24.34 6.34 7.61-1.46 13.67-6.88 18.21-12.88 7.3 4.05 14.58 8.14 21.88 12.2-8.43 14.6-24.38 24.13-41.2 24.88h-8.16c-16.26-1.03-32.11-9.83-40.39-24.05-8.29-13.83-9.54-31.58-3.45-46.48a50.96 50.96 0 0 1 23.96-25.93m12.52 20.45c-5.74 2.51-10.3 7.34-12.92 12.99 15.66.02 31.33.05 47-.01-2.07-5.75-6.37-10.78-12.08-13.12a28.68 28.68 0 0 0-22 .14zm75.1-7.73c9.8-13 26.81-19.84 42.9-17.98 8.81.89 17.43 4.62 23.66 11-.05-3.09-.05-6.19-.04-9.28 9 0 18-.01 27.01.01v97.98c-9.01.02-18.01.01-27.01.01-.01-3.47-.02-6.93.04-10.39-6.57 7.18-15.87 11.47-25.51 12.39h-7.36c-11.14-1.14-21.96-6.05-29.75-14.16-8.52-8.32-13.12-20.07-13.96-31.83-1.02-13.18 1.8-27.14 10.02-37.75m35.95 7.95c-12.18 2.67-21.23 15.22-19.52 27.65 1.07 10.75 9.8 20.07 20.38 22.07 9.61 2.08 20.13-2.29 25.67-10.36a25.37 25.37 0 0 0 2.76-24.16c-4.38-11.26-17.52-18.25-29.29-15.2zm136.02-21.03c14.63-7.19 32.64-6.87 47.1.59 12.27 6.28 21.3 18.21 24.49 31.57 1.98 7.64 1.75 15.59 1.7 23.41-25.24.01-50.47-.03-75.7.03 1.53 3.95 3.44 7.9 6.64 10.79 6.51 5.97 16.06 7.76 24.57 6.17 7.48-1.55 13.35-6.96 17.89-12.82 7.27 4.08 14.58 8.09 21.83 12.22-8.37 14.59-24.32 24.07-41.08 24.86h-8.14c-15.09-.96-29.9-8.44-38.53-21.03-8.73-12.34-11.34-28.64-7.51-43.21a51.07 51.07 0 0 1 26.74-32.58m11.26 21.08c-5.52 2.55-9.81 7.25-12.37 12.72 15.68.02 31.37.06 47.06-.02-1.95-4.96-5.22-9.54-10-12.1a28.34 28.34 0 0 0-24.69-.6zm233.92-9.8c10.27-12.16 27.02-18.32 42.74-16.01a38.23 38.23 0 0 1 22.41 10.82 572.9 572.9 0 0 1-.03-9.27h27v98h-27c-.01-3.52-.03-7.03.06-10.54-6.59 7.44-16.19 11.77-26.04 12.54h-6.95c-13.21-1.34-25.87-8.16-33.82-18.85-8.21-10.79-11.03-24.9-9.74-38.21.85-10.33 4.59-20.55 11.37-28.48m32.95 10.18c-12.59 3.51-20.82 17.68-17.4 30.33 2.96 13.57 18.35 22.75 31.66 18.46 13.14-3.42 21.62-18.48 17.47-31.48-3.5-13.17-18.72-21.68-31.73-17.31zm161.9-21.33c14.39-7.19 32.13-7.06 46.53.05 12.13 5.89 21.2 17.27 24.86 30.2 2.48 8.16 2.18 16.76 2.12 25.19-25.21.02-50.42-.03-75.63.03 1.43 3.89 3.33 7.73 6.41 10.59 6.64 6.28 16.6 8.08 25.35 6.23 7.26-1.64 12.83-7.03 17.3-12.69 7.27 4.1 14.58 8.13 21.86 12.21-8.33 14.47-24.07 23.89-40.69 24.88h-8.74c-16.6-1.04-32.68-10.28-40.84-24.95-8.42-14.74-9.04-33.72-1.37-48.9a50.8 50.8 0 0 1 22.84-22.84m11.9 20.79c-5.73 2.49-10.07 7.35-12.81 12.87 15.7.06 31.4.03 47.11.01-2.1-5.76-6.39-10.84-12.14-13.17-7.03-2.82-15.24-2.85-22.16.29zM58.75 313H85.5c-.01 5.18.04 10.36-.05 15.55 3.18-5.9 8.01-11.12 14.43-13.44 7.51-3.04 15.74-1.89 23.62-2.11l-.01 26.25c-6.94.11-13.9-.23-20.83.17-5.82.42-11.57 3.59-13.99 9.07-2.4 5.13-2.78 10.9-2.92 16.48l.01 46.02-27.01.01v-98zm-42.36 59.6c7.79-1.7 16.49 1.29 21.11 7.9 5.38 7.29 5.02 18.19-.9 25.08-6.16 7.64-18.09 9.51-26.34 4.24-8.32-4.84-11.78-15.99-8.28-24.84a20.33 20.33 0 0 1 14.41-12.38z"/></g></svg>