<svg xmlns="http://www.w3.org/2000/svg" data-testid="spot-browse" viewBox="0 0 48 48"><path fill="#fff" d="m22 25 3-3 9 9-3 3-9-9Z"/><path fill="#620F12" fill-rule="evenodd" d="M25 20.586 35.414 31 31 35.414 20.586 25 25 20.586ZM23.414 25 31 32.586 32.586 31 25 23.414 23.414 25Z" clip-rule="evenodd"/><path fill="#D92228" d="M29.414 35.414a2 2 0 0 1 0-2.828l3.172-3.172a2 2 0 0 1 2.828 0l10.172 10.172a2 2 0 0 1 0 2.828l-3.172 3.172a2 2 0 0 1-2.828 0L29.414 35.414Z"/><path fill="#fff" d="M31 16c0 8.284-6.716 15-15 15-8.284 0-15-6.716-15-15C1 7.716 7.716 1 16 1c8.284 0 15 6.716 15 15Z"/><path fill="#620F12" fill-rule="evenodd" d="M16 29c7.18 0 13-5.82 13-13S23.18 3 16 3 3 8.82 3 16s5.82 13 13 13Zm0 2c8.284 0 15-6.716 15-15 0-8.284-6.716-15-15-15C7.716 1 1 7.716 1 16c0 8.284 6.716 15 15 15Z" clip-rule="evenodd"/><path fill="#D92228" d="M11.444 23h9.112c.797 0 1.444-.647 1.444-1.444V15l-6-6-6 6v6.556c0 .797.647 1.444 1.444 1.444Z"/><path fill="#620F12" fill-rule="evenodd" d="M17.208 10.622a1.708 1.708 0 0 0-2.416 0l-6.085 6.085a1 1 0 0 1-1.414-1.414l6.085-6.085a3.708 3.708 0 0 1 5.244 0l6.085 6.085a1 1 0 0 1-1.414 1.414l-6.085-6.085Z" clip-rule="evenodd"/><path fill="#620F12" d="M22 10a1 1 0 0 1 1 1v4l-2-2v-2a1 1 0 0 1 1-1Zm-8 8a1 1 0 0 1 1-1h2a1 1 0 0 1 1 1v5h-4v-5Z"/></svg>